<svg width="24" height="35" viewBox="0 0 24 35" fill="none" xmlns="http://www.w3.org/2000/svg">
<g clip-path="url(#clip0_5937_27701)">
<path d="M0.445363 28.7518C0.0357771 28.9872 0.0335233 29.3762 0.440531 29.6161L8.72807 34.5025C9.13508 34.7424 9.80288 34.7455 10.2121 34.5098L23.695 26.7447C24.1043 26.5091 24.1025 26.1264 23.6909 25.8946L15.2099 21.1165C14.7984 20.8848 14.1266 20.8877 13.7169 21.1231L0.445363 28.7518Z" fill="#BABCBE"/>
<path d="M0.58507 28.9536C0.58507 28.9514 0.58507 28.9492 0.58507 28.9469V27.6623L13.6953 20.2287C14.0909 20.0013 14.7396 19.9986 15.1369 20.2224L23.6239 24.9166V26.1612C23.6356 26.3177 23.5388 26.4768 23.3307 26.5966L10.3129 34.0938C10.0867 34.2241 9.77933 34.2762 9.48391 34.2557L9.48038 34.2576L9.47618 34.2552C9.25778 34.2393 9.04609 34.1847 8.87989 34.0866L0.878107 29.3687C0.691196 29.2585 0.594628 29.1158 0.586464 28.9717L0.584961 28.9709L0.58507 28.9536Z" fill="#142328"/>
<path d="M0.882866 27.2733C0.487564 27.5007 0.485309 27.8762 0.878246 28.1077L8.88006 32.8257C9.27299 33.0573 9.91771 33.0604 10.313 32.8327L23.3308 25.3354C23.7261 25.1078 23.7243 24.7385 23.3268 24.5146L15.1383 19.9014C14.741 19.6776 14.0924 19.6802 13.6968 19.9077L0.882866 27.2733Z" fill="#1E3336"/>
<path d="M16.1406 26.8703V26.8692V26.6397L17.4068 25.922C17.4771 25.8813 17.5931 25.8809 17.664 25.9208L19.0304 26.6768V26.8991C19.0325 26.9271 19.0151 26.9555 18.9781 26.9768L17.7285 27.7058C17.6883 27.7291 17.6333 27.7385 17.5806 27.7348L17.5798 27.735L17.579 27.7348C17.5402 27.7318 17.5023 27.722 17.4726 27.7045L16.193 26.9444C16.1596 26.9247 16.1426 26.8992 16.141 26.8734L16.1407 26.8732L16.1406 26.8703Z" fill="#78250E"/>
<path d="M16.1928 26.5701C16.1223 26.6108 16.1219 26.6778 16.192 26.7191L17.4716 27.4793C17.5418 27.5207 17.6571 27.5214 17.7274 27.4808L18.977 26.7517C19.0476 26.7109 19.0474 26.6449 18.9763 26.6051L17.6633 25.8635C17.5924 25.8234 17.4765 25.824 17.4058 25.8646L16.1928 26.5701Z" fill="#C21E39"/>
<path d="M14.0439 25.6655C14.0439 25.6652 14.0439 25.6649 14.0439 25.6644V25.435L15.3099 24.7174C15.3805 24.6767 15.4964 24.6762 15.5673 24.7162L16.9337 25.4722V25.6946C16.9359 25.7224 16.9185 25.7508 16.8814 25.7723L15.6318 26.5014C15.5916 26.5245 15.5366 26.5339 15.4839 26.5303L15.4831 26.5307L15.4824 26.5303C15.4434 26.5275 15.4057 26.5176 15.3759 26.5002L14.0964 25.7399C14.063 25.7201 14.0457 25.6947 14.0444 25.669L14.0441 25.6688L14.0439 25.6655Z" fill="#78250E"/>
<path d="M14.0971 25.3653C14.0266 25.406 14.0262 25.4731 14.0963 25.5145L15.3759 26.2745C15.4461 26.316 15.5613 26.3166 15.6318 26.276L16.8813 25.5469C16.9519 25.5063 16.9517 25.4403 16.8806 25.4002L15.5676 24.6587C15.4966 24.6187 15.3808 24.6192 15.3101 24.6599L14.0971 25.3653Z" fill="#C21E39"/>
<path d="M11.9482 24.5111C11.9482 24.5106 11.9482 24.5103 11.9482 24.5098V24.2804L13.2142 23.5627C13.2848 23.522 13.4007 23.5215 13.4715 23.5615L14.8379 24.3176V24.5399C14.84 24.5679 14.8227 24.5961 14.7855 24.6176L13.536 25.3466C13.4958 25.3699 13.4408 25.3791 13.3881 25.3756L13.3873 25.3759L13.3866 25.3755C13.3476 25.3727 13.3097 25.3628 13.2801 25.3454L12.0007 24.5852C11.9672 24.5654 11.9499 24.54 11.9485 24.5143L11.9482 24.5111Z" fill="#333333"/>
<path d="M12.0013 24.211C11.9309 24.2515 11.9304 24.3186 12.0007 24.36L13.2802 25.1202C13.3504 25.1615 13.4656 25.1621 13.536 25.1215L14.7855 24.3924C14.8562 24.3518 14.856 24.2859 14.7848 24.2457L13.4719 23.5042C13.4008 23.4643 13.285 23.4648 13.2144 23.5054L12.0013 24.211Z" fill="#59595B"/>
<path d="M9.87012 23.3325C9.87012 23.332 9.87012 23.3317 9.87012 23.3313V23.1018L11.136 22.3842C11.2065 22.3435 11.3225 22.3431 11.3936 22.383L12.7596 23.1392V23.3614C12.7618 23.3894 12.7444 23.4176 12.7072 23.4392L11.4579 24.1682C11.4176 24.1914 11.3626 24.2008 11.3099 24.1971L11.3091 24.1975L11.3085 24.197C11.2695 24.1942 11.2316 24.1845 11.2019 24.1669L9.92232 23.4068C9.88889 23.3871 9.87195 23.3617 9.87033 23.3358L9.87012 23.3325Z" fill="#333333"/>
<path d="M9.92234 23.0323C9.85189 23.0729 9.85122 23.14 9.92149 23.1813L11.201 23.9415C11.2713 23.9829 11.3865 23.9834 11.457 23.9428L12.7064 23.2137C12.7771 23.1731 12.7769 23.1071 12.7058 23.067L11.3928 22.3255C11.3219 22.2856 11.2059 22.2862 11.1354 22.3267L9.92234 23.0323Z" fill="#59595B"/>
<path d="M14.168 27.993C14.168 27.9925 14.168 27.9921 14.168 27.9918V27.7623L15.4341 27.0447C15.5045 27.004 15.6205 27.0036 15.6914 27.0435L17.0577 27.7995V28.0219C17.0599 28.0499 17.0425 28.0782 17.0054 28.0997L15.7558 28.8287C15.7157 28.8521 15.6606 28.8614 15.6079 28.8576L15.6072 28.8579L15.6064 28.8576C15.5675 28.8546 15.5297 28.8448 15.4999 28.8274L14.2204 28.0672C14.1869 28.0476 14.1699 28.022 14.1684 27.9963L14.168 27.993Z" fill="#59595B"/>
<path d="M14.2211 27.6929C14.1506 27.7335 14.1502 27.8006 14.2203 27.8419L15.4999 28.602C15.5701 28.6434 15.6854 28.6441 15.7558 28.6035L17.0053 27.8745C17.076 27.8337 17.0757 27.7678 17.0046 27.7278L15.6916 26.9863C15.6207 26.9463 15.5048 26.9468 15.434 26.9873L14.2211 27.6929Z" fill="#919395"/>
<path d="M12.0723 26.7881V26.7869V26.5576L13.3382 25.8399C13.4087 25.7993 13.5247 25.7987 13.5956 25.8388L14.9619 26.5948V26.817C14.9641 26.845 14.9467 26.8733 14.9096 26.8947L13.66 27.6238C13.6198 27.647 13.5649 27.6564 13.5121 27.6527L13.5113 27.6531L13.5106 27.6527C13.4716 27.6499 13.4339 27.6401 13.4041 27.6226L12.1247 26.8623C12.0911 26.8426 12.0739 26.817 12.0725 26.7915L12.0723 26.7912V26.7881Z" fill="#59595B"/>
<path d="M12.1254 26.488C12.0549 26.5287 12.0545 26.5958 12.1247 26.6372L13.4042 27.3973C13.4744 27.4388 13.5896 27.4393 13.66 27.3987L14.9097 26.6696C14.9802 26.629 14.98 26.563 14.9089 26.523L13.5959 25.7815C13.525 25.7414 13.4091 25.7419 13.3383 25.7826L12.1254 26.488Z" fill="#919395"/>
<path d="M9.97656 25.6337C9.97656 25.6333 9.97656 25.6331 9.97656 25.6324V25.4031L11.2425 24.6855C11.3129 24.6448 11.429 24.6442 11.5 24.6843L12.8662 25.4403V25.6626C12.8682 25.6906 12.851 25.7188 12.8139 25.7404L11.5644 26.4693C11.5241 26.4926 11.4691 26.5019 11.4165 26.4983L11.4156 26.4985L11.415 26.498C11.376 26.4953 11.3382 26.4855 11.3084 26.468L10.0291 25.7078C9.99544 25.688 9.97826 25.6627 9.97688 25.6369L9.97656 25.6337Z" fill="#59595B"/>
<path d="M10.0297 25.3335C9.95918 25.3741 9.95876 25.4412 10.029 25.4827L11.3084 26.2429C11.3786 26.2843 11.4939 26.2848 11.5644 26.2442L12.8138 25.5151C12.8844 25.4745 12.8842 25.4085 12.8131 25.3685L11.5001 24.627C11.429 24.587 11.3134 24.5874 11.2427 24.6282L10.0297 25.3335Z" fill="#919395"/>
<path d="M7.89844 24.455C7.89844 24.4546 7.89844 24.4544 7.89844 24.454V24.2245L9.16437 23.5067C9.23485 23.4661 9.35086 23.4657 9.42198 23.5056L10.788 24.2616V24.4838C10.7902 24.5119 10.7729 24.5402 10.7358 24.5617L9.48643 25.2908C9.44591 25.3139 9.39092 25.3233 9.3383 25.3197L9.33741 25.3201L9.33678 25.3195C9.29778 25.3167 9.25998 25.307 9.23023 25.2894L7.95067 24.5294C7.91725 24.5095 7.90027 24.4842 7.89868 24.4584L7.89844 24.455Z" fill="#333333"/>
<path d="M7.95157 24.1551C7.88109 24.1957 7.88066 24.2627 7.95069 24.304L9.23028 25.0642C9.30051 25.1055 9.41578 25.1063 9.48648 25.0654L10.7359 24.3364C10.8063 24.2958 10.8061 24.2298 10.735 24.1898L9.42199 23.4483C9.35112 23.4083 9.23532 23.4089 9.16463 23.4495L7.95157 24.1551Z" fill="#59595B"/>
<path d="M12.1953 29.1428C12.1953 29.1421 12.1953 29.1418 12.1953 29.1416V28.9119L13.4615 28.1942C13.5318 28.1535 13.6478 28.1531 13.7187 28.1931L15.0851 28.9492V29.1714C15.0872 29.1995 15.0698 29.2278 15.0327 29.2492L13.7832 29.9782C13.743 30.0016 13.688 30.0109 13.6353 30.0072L13.6345 30.0074L13.6338 30.007C13.5949 30.0041 13.5571 29.9944 13.5273 29.9768L12.2476 29.2168C12.2142 29.197 12.1973 29.1716 12.1956 29.1458L12.1953 29.1428Z" fill="#59595B"/>
<path d="M12.2484 28.8426C12.178 28.8832 12.1775 28.9503 12.2476 28.9915L13.5272 29.7518C13.5975 29.7931 13.7128 29.7937 13.7831 29.7531L15.0326 29.024C15.1033 28.9833 15.1031 28.9174 15.032 28.8775L13.719 28.1359C13.648 28.096 13.5321 28.0966 13.4614 28.1369L12.2484 28.8426Z" fill="#919395"/>
<path d="M10.0996 27.9379C10.0996 27.9376 10.0996 27.9372 10.0996 27.9368V27.7073L11.3655 26.9897C11.436 26.949 11.552 26.9486 11.6229 26.9885L12.9891 27.7445V27.9668C12.9913 27.9948 12.9739 28.0232 12.9367 28.0446L11.6874 28.7737C11.647 28.7969 11.5921 28.8063 11.5394 28.8026L11.5386 28.8029L11.5379 28.8026C11.4989 28.7996 11.4611 28.7898 11.4314 28.7725L10.1518 28.0122C10.1185 27.9925 10.1012 27.967 10.0998 27.9413L10.0996 27.9379Z" fill="#59595B"/>
<path d="M10.1527 27.6377C10.0823 27.6784 10.0818 27.7455 10.1519 27.7868L11.4314 28.5469C11.5017 28.5885 11.6169 28.589 11.6874 28.5484L12.9368 27.8193C13.0075 27.7784 13.0071 27.7126 12.9362 27.6726L11.6232 26.9311C11.5523 26.8911 11.4365 26.8916 11.3658 26.9323L10.1527 27.6377Z" fill="#919395"/>
<path d="M8.00391 26.7833C8.00391 26.783 8.00391 26.7826 8.00391 26.7822V26.5528L9.26984 25.835C9.34032 25.7944 9.45633 25.7939 9.52734 25.8339L10.8936 26.5899V26.8122C10.8957 26.8401 10.8784 26.8685 10.8414 26.8899L9.59179 27.6189C9.55148 27.6421 9.49649 27.6515 9.44387 27.6478L9.44299 27.6481L9.44235 27.6478C9.40335 27.645 9.36534 27.635 9.3358 27.6177L8.05625 26.8574C8.02282 26.8376 8.00564 26.8121 8.00426 26.7865L8.00391 26.7833Z" fill="#59595B"/>
<path d="M8.05703 26.4833C7.98655 26.5239 7.98613 26.591 8.05619 26.6324L9.33574 27.3924C9.40601 27.434 9.52125 27.4345 9.59173 27.3939L10.8413 26.6648C10.9118 26.6242 10.9116 26.5582 10.8405 26.5181L9.52749 25.7766C9.45637 25.7366 9.34058 25.7371 9.26999 25.7778L8.05703 26.4833Z" fill="#919395"/>
<path d="M5.9248 25.6046V25.6034V25.3741L7.19095 24.6563C7.26143 24.6157 7.37744 24.6151 7.44831 24.6553L8.81458 25.4113V25.6335C8.81673 25.6614 8.79944 25.6898 8.76217 25.7113L7.51276 26.4403C7.47249 26.4635 7.4175 26.4729 7.36463 26.4693L7.36399 26.4697L7.36336 26.4693C7.32436 26.4665 7.28656 26.4566 7.2568 26.4392L5.97722 25.679C5.94404 25.6592 5.92685 25.6337 5.92523 25.608L5.9248 25.6078V25.6046Z" fill="#333333"/>
<path d="M5.97799 25.3045C5.90733 25.3452 5.90711 25.4123 5.97714 25.4537L7.25669 26.2137C7.32696 26.2553 7.4422 26.2558 7.51268 26.2151L8.76206 25.4861C8.83275 25.4454 8.83254 25.3795 8.76142 25.3394L7.44844 24.5979C7.37754 24.5579 7.26153 24.5584 7.19108 24.5991L5.97799 25.3045Z" fill="#59595B"/>
<path d="M10.2256 30.2831C10.2256 30.2826 10.2256 30.2824 10.2256 30.282V30.0525L11.4915 29.3348C11.562 29.2941 11.678 29.2935 11.7489 29.3336L13.115 30.0896V30.3119C13.1173 30.3399 13.0999 30.3682 13.0627 30.3898L11.8133 31.1188C11.773 31.1419 11.718 31.1513 11.6654 31.1477L11.6645 31.1481L11.6639 31.1475C11.6249 31.1447 11.5871 31.135 11.5573 31.1174L10.2778 30.3573C10.2444 30.3376 10.2274 30.3121 10.2258 30.2863L10.2256 30.2831Z" fill="#59595B"/>
<path d="M10.2789 29.983C10.2082 30.0237 10.2078 30.0907 10.278 30.132L11.5576 30.8922C11.6278 30.9336 11.7431 30.9341 11.8135 30.8935L13.0629 30.1644C13.1336 30.1238 13.1333 30.0578 13.0622 30.0178L11.7493 29.2763C11.6784 29.2363 11.5624 29.2369 11.4917 29.2775L10.2789 29.983Z" fill="#919395"/>
<path d="M8.12988 29.0784C8.12988 29.078 8.12988 29.0776 8.12988 29.0772V28.8477L9.39581 28.1299C9.46626 28.0893 9.58206 28.089 9.65328 28.1287L11.0196 28.8848V29.107C11.0217 29.1353 11.0044 29.1634 10.9671 29.1849L9.71773 29.9139C9.67746 29.9373 9.62247 29.9467 9.5696 29.9428L9.56897 29.9431L9.56833 29.9427C9.52912 29.9397 9.49153 29.93 9.46174 29.9127L8.18219 29.1525C8.14891 29.1326 8.13161 29.1072 8.1302 29.0814L8.12988 29.0784Z" fill="#59595B"/>
<path d="M8.18316 28.7782C8.1125 28.8189 8.11204 28.886 8.18231 28.9272L9.46186 29.6875C9.53213 29.7287 9.64716 29.7294 9.71785 29.6887L10.9672 28.9597C11.0379 28.9188 11.0377 28.8529 10.9666 28.813L9.65361 28.0715C9.58271 28.0316 9.4667 28.0321 9.39604 28.0726L8.18316 28.7782Z" fill="#919395"/>
<path d="M6.0332 27.9239V27.9228V27.6933L7.29934 26.9756C7.36983 26.9349 7.48563 26.9345 7.55674 26.9744L8.92298 27.7304V27.9528C8.92513 27.9808 8.90784 28.0091 8.87057 28.0304L7.62119 28.7595C7.58089 28.7828 7.5259 28.7922 7.47306 28.7884L7.47239 28.7887L7.47176 28.7884C7.43254 28.7855 7.39474 28.7756 7.3652 28.7582L6.08565 27.998C6.05202 27.9781 6.03483 27.9528 6.03366 27.927L6.0332 27.9269V27.9239Z" fill="#59595B"/>
<path d="M6.08736 27.6238C6.0167 27.6644 6.01649 27.7315 6.08651 27.7728L7.3661 28.533C7.43634 28.5743 7.5514 28.575 7.62205 28.5343L8.87143 27.8052C8.94212 27.7646 8.94191 27.6986 8.8708 27.6587L7.55782 26.9172C7.4867 26.8771 7.37094 26.8776 7.30024 26.9182L6.08736 27.6238Z" fill="#919395"/>
<path d="M2.00879 27.8241V27.8229V27.5934L5.22167 25.7968C5.29215 25.7562 5.40816 25.7558 5.47924 25.7959L6.8453 26.5518V26.7742C6.84745 26.8021 6.83016 26.8305 6.79289 26.8518L3.59697 28.6597C3.5567 28.6831 3.50168 28.6925 3.44862 28.6887L3.44819 28.6889L3.44712 28.6887C3.40834 28.6858 3.37053 28.6759 3.34077 28.6585L2.06121 27.8982C2.02802 27.8786 2.01083 27.8531 2.00922 27.8274L2.00879 27.8272V27.8241Z" fill="#803E14"/>
<path d="M2.06199 27.524C1.99131 27.5646 1.99109 27.6318 2.06113 27.6731L3.34069 28.4333C3.41116 28.4748 3.52621 28.4755 3.5969 28.4348L6.79278 26.6268C6.86347 26.5861 6.86326 26.5201 6.79214 26.4802L5.47917 25.7387C5.40805 25.6986 5.29229 25.6992 5.2218 25.7399L2.06199 27.524Z" fill="#D6722D"/>
<path d="M8.25391 31.407C8.25391 31.4066 8.25391 31.4062 8.25391 31.4059V31.1764L9.51984 30.4588C9.59028 30.418 9.70629 30.4176 9.7772 30.4576L11.1434 31.2136V31.4358C11.1456 31.4639 11.1283 31.4923 11.091 31.5135L9.84165 32.2426C9.80138 32.2659 9.74635 32.2753 9.69352 32.2715L9.69288 32.2718L9.69221 32.2715C9.65325 32.2686 9.61541 32.2588 9.58566 32.2413L8.30611 31.4811C8.27268 31.4614 8.25549 31.4358 8.25412 31.4102L8.25391 31.407Z" fill="#59595B"/>
<path d="M8.30622 31.1069C8.23552 31.1476 8.2351 31.2147 8.30537 31.256L9.58492 32.0162C9.65519 32.0576 9.77043 32.0582 9.84091 32.0176L11.0903 31.2885C11.161 31.2478 11.1608 31.1818 11.0897 31.142L9.77667 30.4004C9.70577 30.3603 9.58976 30.3609 9.5191 30.4014L8.30622 31.1069Z" fill="#919395"/>
<path d="M6.1582 30.2022C6.1582 30.202 6.1582 30.2017 6.1582 30.201V29.9718L7.42413 29.254C7.49458 29.2134 7.61038 29.2128 7.6816 29.2529L9.04787 30.0089V30.2312C9.04999 30.2591 9.0327 30.2874 8.99543 30.3089L7.74605 31.038C7.70578 31.0611 7.65079 31.0705 7.59792 31.0667L7.59729 31.0673L7.59665 31.0667C7.55744 31.064 7.51985 31.0542 7.49006 31.0367L6.21072 30.2764C6.17712 30.2567 6.15993 30.2312 6.15852 30.2056L6.15831 30.2053L6.1582 30.2022Z" fill="#59595B"/>
<path d="M6.21118 29.9021C6.14095 29.9428 6.14028 30.0099 6.21076 30.0514L7.4901 30.8113C7.56037 30.8528 7.6754 30.8535 7.74609 30.8129L8.99547 30.0838C9.06616 30.043 9.06595 29.9772 8.99483 29.9371L7.68185 29.1956C7.61095 29.1554 7.49494 29.1561 7.42424 29.1967L6.21118 29.9021Z" fill="#919395"/>
<path d="M4.06152 29.0479C4.06152 29.0475 4.06152 29.0472 4.06152 29.0465V28.8173L5.32766 28.0995C5.39811 28.0589 5.51391 28.0583 5.58492 28.0984L6.95137 28.8544V29.0767C6.95331 29.1047 6.93623 29.1329 6.89896 29.1545L5.64937 29.8834C5.60931 29.9067 5.55432 29.916 5.50145 29.9123L5.50082 29.9127L5.49997 29.9122C5.46118 29.9094 5.42338 29.8995 5.39359 29.8821L4.11404 29.122C4.08041 29.1022 4.06325 29.0767 4.06205 29.051L4.06163 29.0509L4.06152 29.0479Z" fill="#59595B"/>
<path d="M4.1147 28.7477C4.04404 28.7882 4.04383 28.8553 4.11386 28.8968L5.39341 29.6569C5.46368 29.6982 5.57895 29.6989 5.64919 29.6581L6.89877 28.9292C6.96947 28.8886 6.96926 28.8226 6.89814 28.7825L5.58516 28.041C5.51404 28.0011 5.39824 28.0015 5.32759 28.0421L4.1147 28.7477Z" fill="#919395"/>
<path d="M12.292 21.6767L19.9605 26.1152L21.8566 25.0431L14.1881 20.6045L12.292 21.6767Z" fill="#B0BC8A"/>
<path d="M17.3388 26.9797L17.5884 26.8838L17.8135 27.0155L17.6809 27.1793L17.7826 27.2386L18.2492 26.6401L18.1446 26.5787L17.2363 26.9197L17.3388 26.9797ZM17.7104 26.8327L17.9516 26.7374C17.9683 26.7311 17.9936 26.7212 18.0275 26.707C18.0615 26.6929 18.0859 26.6823 18.1011 26.6752C18.0699 26.7057 18.0387 26.7405 18.007 26.7799L17.882 26.933L17.7104 26.8327Z" fill="white"/>
<path d="M17.5071 26.3181C17.5625 26.3505 17.583 26.3916 17.5694 26.4414C17.5551 26.491 17.5079 26.5431 17.4278 26.598C17.3437 26.6554 17.2645 26.6898 17.1908 26.7016C17.1168 26.7131 17.0509 26.702 16.9931 26.6682C16.9676 26.6537 16.9466 26.6374 16.9286 26.6199C16.9113 26.6021 16.8944 26.5827 16.8778 26.5617L16.7812 26.6272C16.8073 26.6684 16.8497 26.706 16.9084 26.7403C16.9952 26.7909 17.0919 26.809 17.1995 26.7944C17.3065 26.7801 17.4168 26.7339 17.5301 26.6568C17.6014 26.6081 17.6527 26.559 17.6835 26.5095C17.7146 26.4598 17.7231 26.413 17.7089 26.3689C17.695 26.3245 17.6595 26.2857 17.6023 26.252C17.5419 26.2168 17.4716 26.194 17.3913 26.1841L17.3324 26.2678C17.3634 26.2721 17.3941 26.278 17.4244 26.2856C17.4551 26.2929 17.4826 26.3037 17.5071 26.3181Z" fill="white"/>
<path d="M15.2877 28.1928L15.6892 27.5088L16.0967 27.7658L16.214 27.6853L15.6719 27.3434L15.5788 27.4071L15.1514 28.1069L15.2877 28.1928Z" fill="white"/>
<path d="M13.1343 28.9531L13.2366 29.0207L13.043 29.149L13.1622 29.2276L13.3556 29.0998L13.7021 29.3292L13.8118 29.2566L14.0487 28.6408L13.9306 28.562L13.3548 28.9426L13.2529 28.8747L13.1343 28.9531ZM13.4737 29.0216L13.6956 28.8745C13.7745 28.8224 13.8375 28.7784 13.8846 28.7428L13.8885 28.7456C13.8718 28.7697 13.8546 28.8011 13.8373 28.8399L13.7064 29.1759L13.4737 29.0216Z" fill="white"/>
<path d="M11.1221 30.3005L11.2456 30.3816L11.8251 29.9985C11.8942 29.9527 11.9475 29.9157 11.9849 29.8871C11.983 29.8988 11.982 29.9125 11.982 29.928C11.982 29.9435 11.984 29.9942 11.9873 30.0797L12.1401 30.0601L12.1216 29.7754L12.019 29.7076L11.1221 30.3005Z" fill="white"/>
<path d="M9.41357 31.0074C9.2551 31.1118 9.15907 31.2033 9.12589 31.2822C9.09261 31.3613 9.12042 31.43 9.21 31.4881C9.29668 31.5441 9.40196 31.5608 9.52591 31.5371C9.64987 31.5139 9.78833 31.4514 9.94087 31.3504C10.1007 31.2446 10.1971 31.1525 10.2297 31.0743C10.262 30.9958 10.2343 30.9277 10.1456 30.87C10.0587 30.8137 9.95385 30.7971 9.82969 30.8204C9.70584 30.8439 9.56675 30.9063 9.41357 31.0074ZM9.81465 31.2683C9.6907 31.3502 9.59145 31.4015 9.51635 31.4226C9.4417 31.4433 9.37994 31.4385 9.33215 31.4074C9.28432 31.3761 9.27628 31.3357 9.30776 31.2855C9.33967 31.2353 9.417 31.1701 9.53932 31.0892C9.66127 31.0088 9.76051 30.958 9.837 30.9364C9.91358 30.9148 9.97588 30.9196 10.0233 30.9509C10.0709 30.9819 10.0791 31.0221 10.0474 31.0714C10.0161 31.1208 9.9385 31.1865 9.81465 31.2683Z" fill="white"/>
<path d="M15.7031 25.2414C15.7735 25.2888 15.7994 25.3452 15.7819 25.4103C15.764 25.4755 15.7042 25.5416 15.6016 25.6082C15.4952 25.6781 15.3945 25.7182 15.3007 25.7279C15.2068 25.7377 15.1231 25.7178 15.0494 25.6682C15.0178 25.6466 14.9906 25.6236 14.968 25.5985C14.9457 25.5736 14.924 25.5466 14.9035 25.5172L14.7803 25.5975C14.8134 25.6541 14.8672 25.7077 14.9419 25.758C15.052 25.8322 15.1752 25.8637 15.3113 25.8526C15.4479 25.8416 15.5881 25.789 15.732 25.6948C15.8223 25.6354 15.8873 25.5739 15.9269 25.5103C15.9664 25.4466 15.9773 25.3846 15.9595 25.3247C15.9416 25.2648 15.8963 25.2102 15.824 25.1609C15.7477 25.1091 15.6581 25.0735 15.5563 25.054L15.4814 25.1614C15.5206 25.1692 15.5595 25.1795 15.5984 25.1915C15.6371 25.2036 15.6721 25.2203 15.7031 25.2414Z" fill="white"/>
<path d="M13.9666 26.253C13.8951 26.205 13.8195 26.1794 13.7394 26.1762C13.6598 26.1734 13.5873 26.1926 13.5229 26.2347C13.4325 26.2937 13.4072 26.3721 13.4467 26.4693C13.3527 26.4522 13.2741 26.4474 13.2111 26.4556C13.1475 26.4638 13.0923 26.4832 13.0447 26.5141C12.9719 26.5616 12.9365 26.6153 12.9386 26.6746C12.9405 26.7343 12.9809 26.7903 13.0594 26.8427C13.1417 26.8979 13.2259 26.9268 13.3121 26.9305C13.3983 26.9339 13.4794 26.9109 13.5547 26.8617C13.6038 26.8297 13.636 26.7929 13.6514 26.7514C13.6671 26.7099 13.6629 26.6613 13.6401 26.6052C13.7184 26.6153 13.7852 26.6152 13.8404 26.6049C13.8959 26.5948 13.9456 26.5753 13.9903 26.5462C14.0539 26.5042 14.0831 26.4566 14.0779 26.4029C14.0728 26.3496 14.0359 26.2995 13.9666 26.253ZM13.4428 26.7807C13.401 26.8081 13.3558 26.8209 13.3075 26.819C13.2591 26.8174 13.2134 26.8021 13.1703 26.7729C13.1257 26.7431 13.1032 26.7121 13.1024 26.6798C13.1014 26.6476 13.1216 26.6182 13.1632 26.5914C13.1956 26.5701 13.2369 26.5584 13.2864 26.5559C13.3362 26.5536 13.3958 26.5605 13.4648 26.5764L13.4876 26.5813C13.51 26.6272 13.5169 26.6659 13.5091 26.6976C13.5012 26.7292 13.4792 26.7569 13.4428 26.7807ZM13.8591 26.3247C13.8931 26.3478 13.911 26.3728 13.912 26.4C13.9135 26.4271 13.8967 26.4518 13.8627 26.4739C13.8417 26.4876 13.8195 26.4973 13.7954 26.5027C13.7711 26.5085 13.7456 26.5109 13.7175 26.51C13.6893 26.5092 13.6489 26.5032 13.5955 26.4924C13.5758 26.4507 13.5683 26.4164 13.5753 26.3898C13.5818 26.3628 13.6003 26.3391 13.6319 26.3188C13.6657 26.2965 13.7036 26.286 13.7445 26.2875C13.7855 26.2887 13.8238 26.3011 13.8591 26.3247Z" fill="white"/>
<path d="M11.6283 27.6716C11.5491 27.6203 11.463 27.5956 11.3705 27.5968C11.2774 27.5981 11.1909 27.6258 11.1106 27.6799C11.0175 27.7424 10.9711 27.8082 10.9717 27.8773C10.9723 27.9467 11.0212 28.0126 11.1185 28.0749C11.2066 28.1316 11.292 28.1657 11.3734 28.1768L11.5006 28.0913C11.4532 28.0848 11.4056 28.0728 11.3578 28.0551C11.3102 28.0375 11.2701 28.0182 11.2376 27.9977C11.1803 27.9609 11.1509 27.9233 11.149 27.8851C11.1475 27.8467 11.1737 27.8093 11.2283 27.7727C11.3322 27.7027 11.4442 27.7064 11.5642 27.7837C11.5814 27.7945 11.6003 27.8091 11.621 27.8277C11.6422 27.8462 11.6598 27.8629 11.6734 27.8783L11.767 27.8897L12.1599 27.5847L11.7512 27.3211L11.6273 27.4045L11.9248 27.5963L11.7285 27.7527C11.7182 27.7431 11.7051 27.7314 11.6905 27.7174C11.6756 27.7037 11.6546 27.6883 11.6283 27.6716Z" fill="white"/>
<path d="M8.86133 28.9906L9.42194 29.3255L9.52539 29.2552L9.53312 28.9784C9.53665 28.8959 9.5419 28.8391 9.549 28.8082C9.5563 28.7771 9.56749 28.7506 9.58263 28.7285C9.59777 28.7063 9.61895 28.6857 9.64687 28.667C9.6852 28.6409 9.72677 28.6272 9.77103 28.6256C9.81529 28.6241 9.8575 28.6351 9.89672 28.6588C9.92862 28.6777 9.9528 28.7 9.97062 28.7258C9.9876 28.7515 10.0002 28.7867 10.0076 28.8308L10.1687 28.8128C10.1628 28.7585 10.1465 28.7127 10.1203 28.6758C10.0934 28.6385 10.056 28.6053 10.0072 28.5763C9.93078 28.5302 9.84893 28.5074 9.76126 28.5074C9.67394 28.5077 9.5953 28.5314 9.52549 28.5783C9.48734 28.6044 9.45748 28.6329 9.43655 28.6645C9.41516 28.6956 9.40002 28.732 9.39078 28.7734C9.38199 28.8149 9.37863 28.8757 9.38047 28.9567L9.38068 29.1396L9.37454 29.1435L8.98228 28.9089L8.86133 28.9906Z" fill="white"/>
<path d="M7.58744 30.0734C7.61829 30.0536 7.63481 30.0337 7.63784 30.0143C7.64052 29.9947 7.62881 29.9766 7.60301 29.9597C7.57703 29.9429 7.54865 29.9354 7.51805 29.9379C7.48745 29.9398 7.45735 29.9507 7.42805 29.9698C7.39805 29.9894 7.38132 30.0092 7.37765 30.0296C7.37391 30.0499 7.38517 30.0683 7.41097 30.0851C7.43674 30.1018 7.46487 30.1089 7.49592 30.1067C7.52667 30.1041 7.55727 30.0933 7.58744 30.0734Z" fill="white"/>
<path d="M13.4608 24.3307L13.9725 24.252L13.827 24.1605L13.4676 24.2213L13.5512 23.9873L13.4063 23.8963L13.2985 24.2292L12.7598 24.3102L12.9055 24.4014L13.2928 24.3372L13.2032 24.5878L13.3486 24.6788L13.4608 24.3307Z" fill="white"/>
<path d="M11.2438 25.2226C11.0677 25.3358 10.9669 25.4408 10.9404 25.5374C10.9144 25.6341 10.9625 25.7233 11.0846 25.8053C11.131 25.8362 11.1678 25.8564 11.1949 25.8658L11.3149 25.7881C11.2736 25.7739 11.2372 25.7563 11.206 25.7353C11.123 25.6796 11.0871 25.6214 11.0986 25.5605C11.1097 25.4993 11.1695 25.4317 11.2771 25.3572L11.2834 25.3615C11.2677 25.3989 11.266 25.4325 11.2786 25.4625C11.2916 25.4925 11.3174 25.5207 11.3565 25.5468C11.424 25.5921 11.5015 25.6119 11.5898 25.6062C11.6773 25.6002 11.7639 25.5697 11.8497 25.5145C11.9427 25.4544 11.9941 25.392 12.0045 25.3263C12.015 25.2609 11.9814 25.2023 11.9042 25.1505C11.8503 25.1143 11.7875 25.0922 11.7162 25.0851C11.6451 25.0778 11.5692 25.0856 11.4882 25.1087C11.408 25.1317 11.3263 25.1698 11.2438 25.2226ZM11.7836 25.2258C11.8261 25.2543 11.8423 25.2863 11.8329 25.3225C11.823 25.3585 11.7891 25.3953 11.7307 25.433C11.6797 25.4657 11.6292 25.4842 11.5793 25.4889C11.5293 25.4935 11.4826 25.4814 11.4397 25.4525C11.3981 25.4248 11.3781 25.3923 11.3785 25.3546C11.3792 25.3169 11.3987 25.2858 11.4377 25.2609C11.474 25.2376 11.5134 25.2199 11.5572 25.2074C11.6008 25.1954 11.6424 25.1907 11.6823 25.1936C11.7219 25.1961 11.756 25.207 11.7836 25.2258Z" fill="white"/>
<path d="M9.62278 26.8184C9.9746 26.5913 10.0277 26.3962 9.78263 26.2326C9.74427 26.2069 9.70777 26.1874 9.67414 26.1739L9.5535 26.2516C9.5894 26.2636 9.62462 26.2813 9.65963 26.3048C9.74236 26.3598 9.77833 26.4177 9.76813 26.4786C9.75782 26.5394 9.69768 26.6081 9.58671 26.6839L9.58036 26.6799C9.59712 26.6474 9.59991 26.6153 9.5883 26.5836C9.57683 26.552 9.5505 26.5227 9.50991 26.4958C9.44007 26.449 9.36048 26.4289 9.27133 26.4353C9.18196 26.4416 9.09429 26.4725 9.00824 26.5278C8.91341 26.5888 8.86078 26.6523 8.85132 26.7176C8.84123 26.7833 8.87571 26.8421 8.95389 26.8938C9.00955 26.9309 9.07304 26.9527 9.14501 26.9598C9.21718 26.9668 9.29398 26.9585 9.37541 26.9348C9.45662 26.9111 9.5391 26.8723 9.62278 26.8184ZM9.07604 26.8182C9.03337 26.7897 9.01643 26.7577 9.02585 26.7217C9.03489 26.6855 9.06927 26.6483 9.12909 26.6098C9.18108 26.5764 9.23254 26.5574 9.28368 26.5528C9.33514 26.548 9.3825 26.5602 9.42545 26.589C9.45231 26.6067 9.46993 26.6273 9.47938 26.6508C9.48863 26.6745 9.488 26.698 9.47765 26.7218C9.46756 26.7456 9.45016 26.7651 9.42588 26.7807C9.36778 26.818 9.30591 26.8408 9.23921 26.8484C9.1724 26.8561 9.11825 26.8462 9.07604 26.8182Z" fill="white"/>
<path d="M7.49218 27.3993C7.43472 27.4364 7.4013 27.4769 7.39142 27.5205C7.38132 27.5641 7.39625 27.6075 7.43504 27.6507L7.42999 27.6539C7.35845 27.6185 7.28864 27.6023 7.22084 27.6051C7.1535 27.6078 7.08926 27.6286 7.02891 27.6676C6.94082 27.724 6.89966 27.7852 6.90471 27.851C6.91022 27.9166 6.96153 27.9818 7.05972 28.0462C7.14619 28.1032 7.23513 28.1406 7.32785 28.1585L7.45816 28.0743C7.40613 28.0648 7.35598 28.0513 7.30872 28.0337C7.26136 28.016 7.22063 27.9959 7.1866 27.9735C7.12611 27.9338 7.0941 27.8953 7.09011 27.8588C7.08658 27.8223 7.11259 27.7862 7.16716 27.7507C7.21579 27.7195 7.26866 27.7075 7.3245 27.7143C7.38037 27.7213 7.44344 27.7483 7.5142 27.795L7.58179 27.8397L7.70091 27.7628L7.63205 27.7175C7.5081 27.6353 7.49606 27.5622 7.59662 27.4973C7.63558 27.4721 7.67652 27.4601 7.71962 27.4606C7.76236 27.4612 7.80457 27.4756 7.84689 27.5034C7.87643 27.5228 7.89972 27.5448 7.91712 27.5691C7.93456 27.5933 7.94797 27.6268 7.957 27.6696L8.11985 27.6441C8.10997 27.5577 8.0584 27.4832 7.9642 27.4211C7.88578 27.3692 7.80499 27.3415 7.72142 27.3377C7.63851 27.3341 7.56213 27.3545 7.49218 27.3993Z" fill="white"/>
<path d="M5.63095 28.8228L5.8477 28.9632L5.9606 28.89L5.7445 28.7498L6.0038 28.5828L5.90625 28.5193L5.64673 28.6862L5.42974 28.5456L5.31588 28.6184L5.53298 28.7593L5.27367 28.9262L5.37165 28.9898L5.63095 28.8228ZM5.42328 29.2364L5.53707 29.163L5.0048 28.818L4.89062 28.8914L5.42328 29.2364Z" fill="white"/>
<path d="M9.2896 24.3052L9.49959 24.4462L9.60925 24.3761L9.39968 24.2353L9.65104 24.0755L9.55642 24.0116L9.30463 24.1716L9.09354 24.03L8.98367 24.1L9.19472 24.2414L8.94336 24.4009L9.03865 24.4646L9.2896 24.3052Z" fill="white"/>
<path d="M7.43537 25.5485L7.5602 25.469L7.28618 25.2869L7.16113 25.3662L7.43537 25.5485Z" fill="white"/>
<path d="M4.90831 27.1628L5.021 27.0911L4.50324 26.749L4.38991 26.8206L4.90831 27.1628ZM4.65652 27.3229L4.76879 27.2514L4.25018 26.9092L4.1377 26.9807L4.65652 27.3229Z" fill="white"/>
<path d="M11.4939 23.2758L11.6141 23.1974L11.0957 22.8829L10.9795 22.9643L11.4939 23.2758Z" fill="white"/>
<path d="M11.4683 22.861C11.4245 22.8912 11.4168 22.9324 11.4511 22.9533C11.4857 22.9744 11.5495 22.9674 11.5938 22.9378C11.6389 22.9075 11.6467 22.8657 11.6117 22.8449C11.5771 22.8233 11.5126 22.8308 11.4683 22.861Z" fill="white"/>
<path d="M10.9744 23.2206C10.9335 23.2485 10.9279 23.2874 10.9608 23.3075C10.9946 23.3276 11.0546 23.3216 11.0962 23.294C11.1369 23.266 11.1442 23.2265 11.1105 23.2065C11.0765 23.1862 11.0154 23.1924 10.9744 23.2206Z" fill="white"/>
<path d="M12.292 21.6766L19.9605 26.1152V12.2558L12.292 7.81732V21.6766Z" fill="#BE7B05"/>
<path d="M7.41895 16.8331L15.0873 21.2719L19.96 12.2558L12.2915 7.81732L7.41895 16.8331Z" fill="#BE7B05"/>
<path d="M5.76367 2.66862L11.9132 0.89912L17.21 9.34112L15.088 8.10418V21.2719L7.41964 16.8331V3.63397L5.76367 2.66862Z" fill="#F4AB2A"/>
<path d="M12.3006 8.83382V9.47316H13.1561V10.2471H12.2498C12.1594 10.7799 11.9364 11.1669 11.5806 11.408C11.2305 11.6492 10.6997 11.7697 9.98813 11.7697V12.2156C9.98813 12.4792 10.0418 12.6867 10.1491 12.8381C10.262 12.9895 10.4512 13.0652 10.7166 13.0652C10.9707 13.0652 11.1542 12.9951 11.2672 12.8549C11.3801 12.7091 11.4366 12.4988 11.4366 12.224H12.5378C12.5265 12.7904 12.3655 13.2251 12.055 13.5279C11.7444 13.8252 11.3011 13.9738 10.7251 13.9738C10.1265 13.9738 9.66907 13.8139 9.35283 13.4943C9.0366 13.1746 8.87848 12.7091 8.87848 12.0978V10.979C9.48272 10.979 9.92883 10.965 10.2168 10.9369C10.5048 10.9033 10.7194 10.836 10.8606 10.735C11.0018 10.6341 11.095 10.4714 11.1401 10.2471H8.60742V9.47316H11.1825V8.83382H8.60742V8.00941H13.1561V8.83382H12.3006Z" fill="white"/>
</g>
<defs>
<clipPath id="clip0_5937_27701">
<rect width="24" height="34" fill="white" transform="translate(0 0.870667)"/>
</clipPath>
</defs>
</svg>
