<svg width="18" height="19" viewBox="0 0 18 19" fill="none" xmlns="http://www.w3.org/2000/svg">
<g clip-path="url(#clip0_69_651)">
<path d="M2.25 2.75C2.25 1.5095 3.2595 0.5 4.5 0.5C5.7405 0.5 6.75 1.5095 6.75 2.75C6.75 3.9905 5.7405 5 4.5 5C3.2595 5 2.25 3.9905 2.25 2.75ZM12 5C13.2405 5 14.25 3.9905 14.25 2.75C14.25 1.5095 13.2405 0.5 12 0.5C10.7595 0.5 9.75 1.5095 9.75 2.75C9.75 3.9905 10.7595 5 12 5ZM8.25 6.5C7.0095 6.5 6 7.5095 6 8.75C6 9.9905 7.0095 11 8.25 11C9.4905 11 10.5 9.9905 10.5 8.75C10.5 7.5095 9.4905 6.5 8.25 6.5ZM6.02325 5.75H3.375C1.9275 5.75 0.75 6.9275 0.75 8.375V11H3V8.375C3 8.168 3.168 8 3.375 8H4.57575C4.76325 7.0805 5.29575 6.2915 6.02325 5.75ZM13.1483 8C13.3553 8 13.5233 8.168 13.5233 8.375V10.25H15.7733V8.375C15.7733 6.9275 14.5957 5.75 13.1483 5.75H10.5C11.2275 6.2915 11.76 7.0805 11.9475 8H13.1483ZM3.75 14.375V17H6V14.375C6 14.1687 6.168 14 6.375 14H9.75V11.75H6.375C4.9275 11.75 3.75 12.9275 3.75 14.375ZM18 14H15.75V11.75H13.5V14H11.25V16.25H13.5V18.5H15.75V16.25H18V14Z" fill="white" fill-opacity="0.5"/>
</g>
<defs>
<clipPath id="clip0_69_651">
<rect width="18" height="18" fill="white" transform="translate(0 0.5)"/>
</clipPath>
</defs>
</svg>
