<svg width="18" height="19" viewBox="0 0 18 19" fill="none" xmlns="http://www.w3.org/2000/svg">
<g clip-path="url(#clip0_69_626)">
<path d="M17.25 8.75H15.75V7.24999C15.75 6.83578 15.4142 6.5 15 6.5C14.5858 6.5 14.25 6.83578 14.25 7.24999V8.75H12.75C12.3358 8.75 12 9.08578 12 9.49999C12 9.9142 12.3358 10.25 12.75 10.25H14.25V11.75C14.25 12.1642 14.5858 12.5 15 12.5C15.4142 12.5 15.75 12.1642 15.75 11.75V10.25H17.25C17.6642 10.25 18 9.9142 18 9.49999C18 9.08578 17.6642 8.75 17.25 8.75Z" fill="white" fill-opacity="0.5"/>
<path d="M6.75 9.5C9.23528 9.5 11.25 7.48528 11.25 5C11.25 2.51472 9.23528 0.5 6.75 0.5C4.26472 0.5 2.25 2.51472 2.25 5C2.25 7.48528 4.26472 9.5 6.75 9.5Z" fill="white" fill-opacity="0.5"/>
<path d="M6.75 11C3.02379 11.0041 0.00414844 14.0238 0 17.75C0 18.1642 0.335777 18.5 0.749988 18.5H12.75C13.1642 18.5 13.5 18.1642 13.5 17.75C13.4959 14.0238 10.4762 11.0041 6.75 11Z" fill="white" fill-opacity="0.5"/>
</g>
<defs>
<clipPath id="clip0_69_626">
<rect width="18" height="18" fill="white" transform="translate(0 0.5)"/>
</clipPath>
</defs>
</svg>
