<svg width="18" height="18" viewBox="0 0 18 18" fill="none" xmlns="http://www.w3.org/2000/svg">
<g clip-path="url(#clip0_2040_3585)">
<path d="M9 0.1125C9.345 0.225 9.66 0.405 9.9225 0.66L12.8475 3.615C13.095 3.8625 13.2675 4.1625 13.3725 4.4925H9.75C9.3375 4.4925 9 4.155 9 3.7425V0.1125ZM15.06 9.5025C15.735 8.8275 16.8225 8.8275 17.4975 9.5025C18.1725 10.1775 18.1725 11.265 17.4975 11.94L12.39 17.0475C11.7825 17.655 10.95 18 10.095 18H9.0075V16.9125C9.0075 16.05 9.3525 15.225 9.96 14.6175L15.0675 9.51L15.06 9.5025ZM4.5 7.5C4.0875 7.5 3.75 7.8375 3.75 8.25C3.75 8.76 4.0875 9.4575 4.5975 10.05C4.98 9.4725 5.25 8.79 5.25 8.25C5.25 7.8375 4.9125 7.5 4.5 7.5ZM13.5 6V8.94L8.895 13.545C8.0925 14.3475 7.62 15.3825 7.5225 16.4925H3.75C1.68 16.4925 0 14.8125 0 12.7425V3.75C0 1.68 1.68 0 3.75 0H7.5V3.75C7.5 4.9875 8.5125 6 9.75 6H13.5ZM9.75 10.125C9.75 9.5025 9.2475 9 8.625 9C8.0025 9 7.5 9.5025 7.5 10.125C7.5 10.365 7.575 10.6275 7.7175 10.8675C7.4775 11.0775 7.1625 11.25 6.75 11.25C6.42 11.25 6.09 11.1525 5.775 10.995C6.3825 10.125 6.75 9.0825 6.75 8.25C6.75 7.0125 5.7375 6 4.5 6C3.2625 6 2.25 7.0125 2.25 8.25C2.25 9.165 2.76 10.2375 3.5325 11.1C3.3525 11.1975 3.1725 11.25 3 11.25C2.5875 11.25 2.25 11.5875 2.25 12C2.25 12.4125 2.5875 12.75 3 12.75C3.6225 12.75 4.2075 12.5025 4.725 12.1125C5.355 12.51 6.045 12.75 6.75 12.75C8.7 12.75 9.75 10.89 9.75 10.125Z" fill="#2B3C4E"/>
</g>
<defs>
<clipPath id="clip0_2040_3585">
<rect width="18" height="18" fill="white"/>
</clipPath>
</defs>
</svg>
