<svg width="19" height="18" viewBox="0 0 19 18" fill="none" xmlns="http://www.w3.org/2000/svg">
<path d="M9.49813 0.11443C9.84305 0.226906 10.158 0.406869 10.4204 0.661816L13.3448 3.6162C13.5923 3.86365 13.7647 4.16359 13.8697 4.49352H10.248C9.83556 4.49352 9.49813 4.15609 9.49813 3.74367V0.11443ZM15.5569 9.50247C16.2317 8.82761 17.319 8.82761 17.9939 9.50247C18.6687 10.1773 18.6687 11.2646 17.9939 11.9395L12.8874 17.0459C12.28 17.6533 11.4477 17.9982 10.5929 17.9982H9.50562V16.9109C9.50562 16.0486 9.85055 15.2238 10.4579 14.6164L15.5644 9.50997L15.5569 9.50247ZM4.99906 7.50039C4.58665 7.50039 4.24922 7.83782 4.24922 8.25023C4.24922 8.76013 4.58665 9.45748 5.09654 10.0499C5.47896 9.47248 5.74891 8.79012 5.74891 8.25023C5.74891 7.83782 5.41148 7.50039 4.99906 7.50039ZM13.9972 6.0007V8.94009L9.39315 13.5441C8.59081 14.3465 8.11841 15.3812 8.02093 16.491H4.24922C2.17965 16.491 0.5 14.8114 0.5 12.7418V3.75117C0.5 1.6816 2.17965 0.00195312 4.24922 0.00195312H7.99844V3.75117C7.99844 4.98841 9.01073 6.0007 10.248 6.0007H13.9972ZM10.248 10.1248C10.248 9.50247 9.74557 9.00008 9.1232 9.00008C8.50083 9.00008 7.99844 9.50247 7.99844 10.1248C7.99844 10.3648 8.07342 10.6272 8.21589 10.8672C7.97594 11.0771 7.66101 11.2496 7.24859 11.2496C6.91866 11.2496 6.58873 11.1521 6.2738 10.9947C6.88117 10.1248 7.24859 9.08256 7.24859 8.25023C7.24859 7.01299 6.23631 6.0007 4.99906 6.0007C3.76182 6.0007 2.74953 7.01299 2.74953 8.25023C2.74953 9.16504 3.25943 10.2373 4.03176 11.0996C3.8518 11.1971 3.67184 11.2496 3.49938 11.2496C3.08696 11.2496 2.74953 11.587 2.74953 11.9995C2.74953 12.4119 3.08696 12.7493 3.49938 12.7493C4.12175 12.7493 4.70662 12.5018 5.22402 12.1119C5.85389 12.5093 6.54374 12.7493 7.24859 12.7493C9.19819 12.7493 10.248 10.8897 10.248 10.1248Z" fill="white" fill-opacity="0.5"/>
</svg>
