<svg width="16" height="13" viewBox="0 0 16 13" fill="none" xmlns="http://www.w3.org/2000/svg">
<path d="M15.125 5.76271e-05H13.125V1.50006C13.125 1.64451 13.0966 1.78755 13.0413 1.92101C12.986 2.05447 12.905 2.17573 12.8028 2.27788C12.7007 2.38002 12.5794 2.46104 12.446 2.51632C12.3125 2.57161 12.1695 2.60006 12.025 2.60006C11.8806 2.60006 11.7375 2.57161 11.6041 2.51632C11.4706 2.46104 11.3493 2.38002 11.2472 2.27788C11.145 2.17573 11.064 2.05447 11.0087 1.92101C10.9535 1.78755 10.925 1.64451 10.925 1.50006V5.76271e-05H5.10001V1.50006C5.10001 1.7918 4.98411 2.07158 4.77782 2.27787C4.57153 2.48416 4.29174 2.60006 4.00001 2.60006C3.70827 2.60006 3.42848 2.48416 3.22219 2.27787C3.0159 2.07158 2.90001 1.7918 2.90001 1.50006V5.76271e-05H0.900006C0.781018 -0.00129644 0.662966 0.0212245 0.552833 0.0662886C0.4427 0.111353 0.342723 0.178045 0.258813 0.262421C0.174904 0.346796 0.108766 0.447142 0.0643132 0.557523C0.0198599 0.667904 -0.0020068 0.786079 6.45524e-06 0.905058V12.0951C-0.00198005 12.2119 0.0190785 12.3281 0.0619793 12.4368C0.10488 12.5455 0.168783 12.6448 0.250037 12.7288C0.331292 12.8129 0.428306 12.8801 0.53554 12.9266C0.642773 12.9731 0.758125 12.9981 0.875006 13.0001H15.125C15.2419 12.9981 15.3572 12.9731 15.4645 12.9266C15.5717 12.8801 15.6687 12.8129 15.75 12.7288C15.8312 12.6448 15.8951 12.5455 15.938 12.4368C15.9809 12.3281 16.002 12.2119 16 12.0951V0.905058C16.002 0.788177 15.9809 0.672049 15.938 0.563308C15.8951 0.454567 15.8312 0.355343 15.75 0.271303C15.6687 0.187263 15.5717 0.120052 15.4645 0.0735115C15.3572 0.0269707 15.2419 0.00201093 15.125 5.76271e-05ZM4.00001 10.0001H3.00001V9.00006H4.00001V10.0001ZM4.00001 7.50006H3.00001V6.50006H4.00001V7.50006ZM4.00001 5.00006H3.00001V4.00006H4.00001V5.00006ZM7.00001 10.0001H6.00001V9.00006H7.00001V10.0001ZM7.00001 7.50006H6.00001V6.50006H7.00001V7.50006ZM7.00001 5.00006H6.00001V4.00006H7.00001V5.00006ZM10 10.0001H9.00001V9.00006H10V10.0001ZM10 7.50006H9.00001V6.50006H10V7.50006ZM10 5.00006H9.00001V4.00006H10V5.00006ZM13 10.0001H12V9.00006H13V10.0001ZM13 7.50006H12V6.50006H13V7.50006ZM13 5.00006H12V4.00006H13V5.00006Z" fill="#2B3C4E"/>
</svg>
