<svg width="18" height="18" viewBox="0 0 18 18" fill="none" xmlns="http://www.w3.org/2000/svg">
<g clip-path="url(#clip0_69_631)">
<path d="M1.5 1.5C1.5 0.67125 2.17125 0 3 0C3.82875 0 4.5 0.67125 4.5 1.5C4.5 2.32875 3.82875 3 3 3C2.17125 3 1.5 2.32875 1.5 1.5ZM9 6.75V5.625C9 5.004 8.496 4.5 7.875 4.5H5.625C5.004 4.5 4.5 5.004 4.5 5.625V6.75H9ZM6.75 3.75C7.57875 3.75 8.25 3.07875 8.25 2.25C8.25 1.42125 7.57875 0.75 6.75 0.75C5.92125 0.75 5.25 1.42125 5.25 2.25C5.25 3.07875 5.92125 3.75 6.75 3.75ZM10.5 3C11.3287 3 12 2.32875 12 1.5C12 0.67125 11.3287 0 10.5 0C9.67125 0 9 0.67125 9 1.5C9 2.32875 9.67125 3 10.5 3ZM3 5.625C3 4.89 3.30525 4.227 3.7935 3.75H1.875C1.254 3.75 0.75 4.254 0.75 4.875V6H3V5.625ZM11.625 3.75H9.7065C10.1947 4.227 10.5 4.89 10.5 5.625V6H12.75V4.875C12.75 4.254 12.246 3.75 11.625 3.75ZM17.361 6.51075C16.9748 6.159 16.4715 5.97675 15.9525 6.00225C15.4298 6.02625 14.9482 6.25275 14.607 6.6285L11.9513 9.43125C11.9753 9.58875 12 9.74625 12 9.90975C12 11.472 10.8338 12.8167 9.28725 13.0372L6.1065 13.4918L5.89425 12.0075L9.075 11.553C9.888 11.4368 10.5 10.7303 10.5 9.90975C10.5 8.99475 9.75525 8.25 8.84025 8.25H2.25C1.0095 8.25 0 9.2595 0 10.5V15.75C0 16.9905 1.0095 18 2.25 18H9.498L17.5035 9.25875C18.2145 8.46225 18.15 7.2285 17.3617 6.51L17.361 6.51075Z" fill="white" fill-opacity="0.5"/>
</g>
<defs>
<clipPath id="clip0_69_631">
<rect width="18" height="18" fill="white"/>
</clipPath>
</defs>
</svg>
