<svg width="16" height="17" viewBox="0 0 16 17" fill="none" xmlns="http://www.w3.org/2000/svg">
<path d="M8 0.5C12.1423 0.5 15.5 3.85775 15.5 8C15.5 12.1423 12.1423 15.5 8 15.5C3.85775 15.5 0.5 12.1423 0.5 8C0.5 3.85775 3.85775 0.5 8 0.5ZM8 3.5C7.80109 3.5 7.61032 3.57902 7.46967 3.71967C7.32902 3.86032 7.25 4.05109 7.25 4.25V8C7.25004 8.1989 7.32909 8.38963 7.46975 8.53025L9.71975 10.7802C9.8612 10.9169 10.0507 10.9925 10.2473 10.9908C10.4439 10.989 10.6321 10.9102 10.7711 10.7711C10.9102 10.6321 10.989 10.4439 10.9908 10.2473C10.9925 10.0507 10.9169 9.8612 10.7802 9.71975L8.75 7.6895V4.25C8.75 4.05109 8.67098 3.86032 8.53033 3.71967C8.38968 3.57902 8.19891 3.5 8 3.5Z" fill="#2B3C4E"/>
</svg>
