<svg width="32" height="21" viewBox="0 0 32 21" fill="none" xmlns="http://www.w3.org/2000/svg">
<path d="M2.58633 20.3775C1.56005 20.3775 0.739258 19.6534 0.739258 18.7876V1.6175C0.739258 1.16347 1.17558 0.795416 1.71378 0.795416H13.5101C14.0483 0.795416 14.4846 1.16348 14.4846 1.6175V1.88071H26.0137C26.552 1.88071 26.9883 2.24877 26.9883 2.70279V4.56759C26.9883 4.56759 10.8578 20.3775 2.58633 20.3775Z" fill="#F4AB2A"/>
<path d="M4.46193 18.8074H2.79549C2.68784 18.8074 2.60059 18.7338 2.60059 18.643V3.52279C2.60059 3.43198 2.68784 3.35838 2.79549 3.35838H24.9453C25.053 3.35838 25.1402 3.43198 25.1402 3.52279V4.56767L4.46193 18.8074Z" fill="white"/>
<path d="M31.265 5.38975V18.8074C31.265 19.6745 30.4317 20.3776 29.4036 20.3776H2.60059C3.62852 20.3776 4.46193 19.6745 4.46193 18.8074V5.38975C4.46193 4.93563 4.89832 4.56766 5.43645 4.56766H30.2904C30.8286 4.56766 31.265 4.93563 31.265 5.38975Z" fill="#F9C32D"/>
<path d="M31.2649 5.38975V18.8074C31.2649 19.6745 30.4317 20.3776 29.4036 20.3776H17.9385C19.5116 20.2419 21.078 20.0523 22.6328 19.8092C24.2214 19.5607 25.8934 19.2135 27.0217 18.238C27.7752 17.5864 28.2084 16.7099 28.4217 15.8176C28.6351 14.9253 28.6442 14.0085 28.6526 13.0983C28.6787 10.2547 28.7049 7.41125 28.7312 4.56765H30.2904C30.8285 4.56766 31.2649 4.93562 31.2649 5.38975Z" fill="#F4AB2A"/>
<path d="M5.95312 8.79836V6.40516C5.95312 6.14664 6.20154 5.93708 6.50799 5.93708H13.2736C13.4032 5.93708 13.4219 6.09477 13.2949 6.11643L11.6035 6.40491C9.59546 6.7474 7.79379 7.65327 6.4841 8.96351C6.30341 9.14429 5.95312 9.03484 5.95312 8.79836Z" fill="#FFE45F"/>
</svg>
