<svg width="30" height="22" viewBox="0 0 30 22" fill="none" xmlns="http://www.w3.org/2000/svg">
<path d="M24.7983 10.3137L14.6641 16.9437C14.2428 17.2193 13.6658 17.2525 13.2041 17.0276L9.70897 15.3253C9.08839 15.0231 8.87011 14.3568 9.21851 13.8286L9.58208 13.2774L24.7983 10.3137Z" fill="#56B3CC"/>
<path d="M9.5791 12.1374L20.1144 7.00645L24.7968 9.28705L14.2615 14.4179L9.5791 12.1374Z" fill="#00D66B"/>
<path d="M14.2615 14.4179L14.2614 15.5581L9.5791 13.2776V12.1374L14.2615 14.4179Z" fill="#008437"/>
<path d="M14.2617 15.5581L24.7971 10.4272V9.28704L14.2618 14.4179L14.2617 15.5581Z" fill="#00A948"/>
<path d="M14.2615 14.4476L14.2614 14.4616L9.5791 12.1811V12.1671L14.2615 14.4476Z" fill="#00591D"/>
<path d="M14.2617 14.4616L24.7971 9.33081V9.31669L14.2618 14.4476L14.2617 14.4616Z" fill="#006B20"/>
<path d="M14.2615 14.5459L14.2614 14.5599L9.5791 12.2794V12.2654L14.2615 14.5459Z" fill="#00591D"/>
<path d="M14.2617 14.5599L24.7971 9.42912V9.41509L14.2618 14.5459L14.2617 14.5599Z" fill="#006B20"/>
<path d="M14.2615 14.6441L14.2614 14.6582L9.5791 12.3777V12.3636L14.2615 14.6441Z" fill="#00591D"/>
<path d="M14.2617 14.6582L24.7971 9.52736V9.51333L14.2618 14.6441L14.2617 14.6582Z" fill="#006B20"/>
<path d="M14.2615 14.7424L14.2614 14.7564L9.5791 12.4759V12.4619L14.2615 14.7424Z" fill="#00591D"/>
<path d="M14.2617 14.7564L24.7971 9.62563V9.6116L14.2618 14.7424L14.2617 14.7564Z" fill="#006B20"/>
<path d="M14.2615 14.8408L14.2614 14.8548L9.5791 12.5742V12.5603L14.2615 14.8408Z" fill="#00591D"/>
<path d="M14.2617 14.8548L24.7971 9.72393V9.7099L14.2618 14.8408L14.2617 14.8548Z" fill="#006B20"/>
<path d="M14.2615 14.9391L14.2614 14.9531L9.5791 12.6726V12.6586L14.2615 14.9391Z" fill="#00591D"/>
<path d="M14.2617 14.9531L24.7971 9.82231V9.80819L14.2618 14.9391L14.2617 14.9531Z" fill="#006B20"/>
<path d="M14.2615 15.0374L14.2614 15.0514L9.5791 12.7709V12.7569L14.2615 15.0374Z" fill="#00591D"/>
<path d="M14.2617 15.0514L24.7971 9.92058V9.90646L14.2618 15.0374L14.2617 15.0514Z" fill="#006B20"/>
<path d="M14.2615 15.1356L14.2614 15.1497L9.5791 12.8692V12.8551L14.2615 15.1356Z" fill="#00591D"/>
<path d="M14.2617 15.1497L24.7971 10.0188V10.0048L14.2618 15.1356L14.2617 15.1497Z" fill="#006B20"/>
<path d="M14.2615 15.2339L14.2614 15.2479L9.5791 12.9674V12.9534L14.2615 15.2339Z" fill="#00591D"/>
<path d="M14.2617 15.2479L24.7971 10.1171V10.1031L14.2618 15.2339L14.2617 15.2479Z" fill="#006B20"/>
<path d="M14.2615 15.3322L14.2614 15.3462L9.5791 13.0657V13.0517L14.2615 15.3322Z" fill="#00591D"/>
<path d="M14.2617 15.3462L24.7971 10.2154V10.2014L14.2618 15.3322L14.2617 15.3462Z" fill="#006B20"/>
<path d="M14.2615 15.4305L14.2614 15.4446L9.5791 13.164V13.15L14.2615 15.4305Z" fill="#00591D"/>
<path d="M14.2617 15.4446L24.7971 10.3137V10.2997L14.2618 15.4305L14.2617 15.4446Z" fill="#006B20"/>
<path d="M14.2615 15.5289L14.2614 15.5429L9.5791 13.2624V13.2484L14.2615 15.5289Z" fill="#00591D"/>
<path d="M14.2617 15.5429L24.7971 10.412V10.398L14.2618 15.5289L14.2617 15.5429Z" fill="#006B20"/>
<path d="M22.9808 9.29579C22.9789 9.19647 23.0516 9.10563 23.1706 9.0386L20.6144 7.79494C20.493 7.87901 20.3076 7.9353 20.0962 7.93813C19.888 7.94095 19.7035 7.89125 19.5788 7.81283L11.1987 11.8941C11.3026 11.9562 11.3685 12.0375 11.3703 12.1283C11.372 12.224 11.3036 12.3112 11.1924 12.3774L13.7486 13.6212C13.8702 13.5416 14.0502 13.4888 14.2549 13.486C14.4699 13.4831 14.6602 13.5361 14.7847 13.6192L23.1648 9.53801C23.0531 9.47494 22.9825 9.3904 22.9808 9.29579Z" fill="#72FFB8"/>
<path d="M17.4191 9.41827C16.2475 9.43409 15.3074 9.95891 15.3195 10.5905C15.3315 11.2221 16.291 11.7212 17.4626 11.7053C18.6342 11.6895 19.5743 11.1646 19.5624 10.5331C19.5503 9.90158 18.5908 9.40246 17.4191 9.41827Z" fill="#00D66B"/>
<path d="M18.6494 13.4216V12.2812L20.991 11.141V12.2814L18.6494 13.4216Z" fill="#C9AE68"/>
<path d="M18.6492 12.2812L13.9668 10.0008L16.3082 8.86058L20.9908 11.141L18.6492 12.2812Z" fill="#F9DE9B"/>
<path d="M18.6494 13.4215L18.9449 13.2777V12.1373L18.6494 12.2811V13.4215Z" fill="#9B803F"/>
<path d="M18.9447 12.1373L14.2623 9.85693L13.9668 10.0008L18.6492 12.2812L18.9447 12.1373Z" fill="#E0C17D"/>
<path d="M20.6943 12.4252L20.9899 12.2813V11.1409L20.6943 11.2848V12.4252Z" fill="#9B803F"/>
<path d="M20.9896 11.1409L16.3072 8.86054L16.0117 9.00448L20.694 11.2848L20.9896 11.1409Z" fill="#E0C17D"/>
<path d="M9.16309 10.9681L19.6984 5.83717L24.3807 8.11767L13.8454 13.2486L9.16309 10.9681Z" fill="#00D66B"/>
<path d="M13.8454 13.2486V14.3888L9.16309 12.1083V10.9681L13.8454 13.2486Z" fill="#008437"/>
<path d="M13.8457 14.3888L24.3811 9.25796V8.11767L13.8457 13.2486V14.3888Z" fill="#00A948"/>
<path d="M13.8454 13.2782V13.2924L9.16309 11.0119V10.9978L13.8454 13.2782Z" fill="#00591D"/>
<path d="M13.8457 13.2924L24.3811 8.16145V8.14742L13.8457 13.2782V13.2924Z" fill="#006B20"/>
<path d="M13.8454 13.3766V13.3906L9.16309 11.1101V11.0961L13.8454 13.3766Z" fill="#00591D"/>
<path d="M13.8457 13.3906L24.3811 8.25974V8.24571L13.8457 13.3766V13.3906Z" fill="#006B20"/>
<path d="M13.8454 13.4749V13.4889L9.16309 11.2084V11.1944L13.8454 13.4749Z" fill="#00591D"/>
<path d="M13.8457 13.4889L24.3811 8.35808V8.34406L13.8457 13.4749V13.4889Z" fill="#006B20"/>
<path d="M13.8454 13.5731V13.5872L9.16309 11.3067V11.2926L13.8454 13.5731Z" fill="#00591D"/>
<path d="M13.8457 13.5872L24.3811 8.45636V8.44233L13.8457 13.5731V13.5872Z" fill="#006B20"/>
<path d="M13.8454 13.6714V13.6855L9.16309 11.405V11.3909L13.8454 13.6714Z" fill="#00591D"/>
<path d="M13.8457 13.6855L24.3811 8.55465V8.54063L13.8457 13.6714V13.6855Z" fill="#006B20"/>
<path d="M13.8454 13.7697V13.7838L9.16309 11.5033V11.4892L13.8454 13.7697Z" fill="#00591D"/>
<path d="M13.8457 13.7838L24.3811 8.65294V8.63892L13.8457 13.7697V13.7838Z" fill="#006B20"/>
<path d="M13.8454 13.868V13.882L9.16309 11.6016V11.5876L13.8454 13.868Z" fill="#00591D"/>
<path d="M13.8457 13.882L24.3811 8.75122V8.7372L13.8457 13.868V13.882Z" fill="#006B20"/>
<path d="M13.8454 13.9664V13.9804L9.16309 11.6999V11.6859L13.8454 13.9664Z" fill="#00591D"/>
<path d="M13.8457 13.9804L24.3811 8.84951V8.83549L13.8457 13.9664V13.9804Z" fill="#006B20"/>
<path d="M13.8454 14.0647V14.0787L9.16309 11.7982V11.7842L13.8454 14.0647Z" fill="#00591D"/>
<path d="M13.8457 14.0787L24.3811 8.94791V8.93378L13.8457 14.0647V14.0787Z" fill="#006B20"/>
<path d="M13.8454 14.1629V14.177L9.16309 11.8965V11.8824L13.8454 14.1629Z" fill="#00591D"/>
<path d="M13.8457 14.177L24.3811 9.04615V9.03212L13.8457 14.1629V14.177Z" fill="#006B20"/>
<path d="M13.8454 14.2612V14.2753L9.16309 11.9948V11.9807L13.8454 14.2612Z" fill="#00591D"/>
<path d="M13.8457 14.2753L24.3811 9.14444V9.13042L13.8457 14.2612V14.2753Z" fill="#006B20"/>
<path d="M13.8454 14.3595V14.3735L9.16309 12.093V12.079L13.8454 14.3595Z" fill="#00591D"/>
<path d="M13.8457 14.3735L24.3811 9.24272V9.22869L13.8457 14.3595V14.3735Z" fill="#006B20"/>
<path d="M22.5647 8.12652C22.5628 8.0272 22.6356 7.93636 22.7546 7.86933L20.1984 6.62558C20.077 6.70965 19.8916 6.76594 19.6801 6.76876C19.472 6.77159 19.2874 6.72188 19.1628 6.64347L10.7827 10.7246C10.8866 10.7868 10.9525 10.868 10.9542 10.9589C10.956 11.0546 10.8876 11.1419 10.7764 11.208L13.3325 12.4518C13.4542 12.3723 13.6342 12.3194 13.8388 12.3166C14.0539 12.3137 14.2442 12.3667 14.3687 12.4498L22.7488 8.36855C22.6371 8.30566 22.5665 8.22113 22.5647 8.12652Z" fill="#72FFB8"/>
<path d="M17.005 8.24899C15.8334 8.26481 14.8933 8.78963 14.9054 9.4212C14.9174 10.0528 15.8769 10.5519 17.0486 10.536C18.2202 10.5202 19.1603 9.99535 19.1482 9.36378C19.1363 8.7323 18.1768 8.23318 17.005 8.24899Z" fill="#00D66B"/>
<path d="M18.2314 12.2522V11.112L20.573 9.97166V11.1121L18.2314 12.2522Z" fill="#C9AE68"/>
<path d="M18.2322 11.1119L13.5498 8.83153L15.8912 7.69123L20.5738 9.97164L18.2322 11.1119Z" fill="#F9DE9B"/>
<path d="M18.2314 12.2522L18.5269 12.1084V10.9681L18.2314 11.112V12.2522Z" fill="#9B803F"/>
<path d="M18.5277 10.9681L13.8453 8.68771L13.5498 8.83155L18.2322 11.112L18.5277 10.9681Z" fill="#E0C17D"/>
<path d="M20.2773 11.256L20.573 11.112V9.97173L20.2773 10.1156V11.256Z" fill="#9B803F"/>
<path d="M20.5726 9.97173L15.8902 7.69132L15.5947 7.83517L20.277 10.1156L20.5726 9.97173Z" fill="#E0C17D"/>
<path d="M9.16309 9.69054L19.6984 4.55973L24.3807 6.84023L13.8454 11.971L9.16309 9.69054Z" fill="#00D66B"/>
<path d="M13.8454 11.971V13.1113L9.16309 10.8308V9.69054L13.8454 11.971Z" fill="#008437"/>
<path d="M13.8457 13.1113L24.3811 7.98043V6.84023L13.8457 11.971V13.1113Z" fill="#00A948"/>
<path d="M13.8454 12.0008V12.0148L9.16309 9.73435V9.72032L13.8454 12.0008Z" fill="#00591D"/>
<path d="M13.8457 12.0148L24.3811 6.88403V6.87L13.8457 12.0008V12.0148Z" fill="#006B20"/>
<path d="M13.8454 12.099V12.1131L9.16309 9.83257V9.81854L13.8454 12.099Z" fill="#00591D"/>
<path d="M13.8457 12.1131L24.3811 6.98225V6.96822L13.8457 12.099V12.1131Z" fill="#006B20"/>
<path d="M13.8454 12.1974V12.2115L9.16309 9.93086V9.91693L13.8454 12.1974Z" fill="#00591D"/>
<path d="M13.8457 12.2115L24.3811 7.08055V7.06652L13.8457 12.1974V12.2115Z" fill="#006B20"/>
<path d="M13.8454 12.2957V12.3097L9.16309 10.0292V10.0152L13.8454 12.2957Z" fill="#00591D"/>
<path d="M13.8457 12.3097L24.3811 7.17892V7.16479L13.8457 12.2957V12.3097Z" fill="#006B20"/>
<path d="M13.8454 12.394V12.408L9.16309 10.1275V10.1135L13.8454 12.394Z" fill="#00591D"/>
<path d="M13.8457 12.408L24.3811 7.27721V7.26309L13.8457 12.394V12.408Z" fill="#006B20"/>
<path d="M13.8454 12.4923V12.5063L9.16309 10.2258V10.2118L13.8454 12.4923Z" fill="#00591D"/>
<path d="M13.8457 12.5063L24.3811 7.37552V7.3615L13.8457 12.4923V12.5063Z" fill="#006B20"/>
<path d="M13.8454 12.5905V12.6046L9.16309 10.3241V10.31L13.8454 12.5905Z" fill="#00591D"/>
<path d="M13.8457 12.6046L24.3811 7.47375V7.45972L13.8457 12.5905V12.6046Z" fill="#006B20"/>
<path d="M13.8454 12.6888V12.7029L9.16309 10.4224V10.4083L13.8454 12.6888Z" fill="#00591D"/>
<path d="M13.8457 12.7029L24.3811 7.57204V7.55801L13.8457 12.6888V12.7029Z" fill="#006B20"/>
<path d="M13.8454 12.7871V12.8012L9.16309 10.5206V10.5066L13.8454 12.7871Z" fill="#00591D"/>
<path d="M13.8457 12.8012L24.3811 7.67033V7.6563L13.8457 12.7871V12.8012Z" fill="#006B20"/>
<path d="M13.8454 12.8855V12.8995L9.16309 10.619V10.605L13.8454 12.8855Z" fill="#00591D"/>
<path d="M13.8457 12.8995L24.3811 7.76862V7.75459L13.8457 12.8855V12.8995Z" fill="#006B20"/>
<path d="M13.8454 12.9838V12.9978L9.16309 10.7173V10.7033L13.8454 12.9838Z" fill="#00591D"/>
<path d="M13.8457 12.9978L24.3811 7.86691V7.85288L13.8457 12.9838V12.9978Z" fill="#006B20"/>
<path d="M13.8454 13.0821V13.0961L9.16309 10.8156V10.8016L13.8454 13.0821Z" fill="#00591D"/>
<path d="M13.8457 13.0961L24.3811 7.96528V7.95116L13.8457 13.0821V13.0961Z" fill="#006B20"/>
<path d="M22.5647 6.84908C22.5628 6.74976 22.6356 6.65892 22.7546 6.59189L20.1984 5.34814C20.077 5.4322 19.8916 5.4885 19.6801 5.49132C19.472 5.49415 19.2874 5.44444 19.1628 5.36602L10.7827 9.44729C10.8866 9.50942 10.9525 9.59066 10.9542 9.68151C10.956 9.77715 10.8876 9.86442 10.7764 9.9306L13.3325 11.1743C13.4542 11.0948 13.6342 11.042 13.8388 11.0392C14.0539 11.0362 14.2442 11.0892 14.3687 11.1724L22.7488 7.0912C22.6371 7.02813 22.5665 6.94368 22.5647 6.84908Z" fill="#72FFB8"/>
<path d="M17.005 6.97156C15.8334 6.98737 14.8933 7.51219 14.9054 8.14377C14.9174 8.77534 15.8769 9.27446 17.0486 9.25855C18.2202 9.24273 19.1603 8.71791 19.1482 8.08634C19.1363 7.45477 18.1768 6.95574 17.005 6.97156Z" fill="#00D66B"/>
<path d="M18.2314 10.9748V9.83446L20.573 8.69417V9.83456L18.2314 10.9748Z" fill="#C9AE68"/>
<path d="M18.2322 9.83449L13.5498 7.55408L15.8912 6.41379L20.5738 8.69419L18.2322 9.83449Z" fill="#F9DE9B"/>
<path d="M18.2314 10.9748L18.5269 10.8309V9.69054L18.2314 9.83448V10.9748Z" fill="#9B803F"/>
<path d="M18.5277 9.69053L13.8453 7.41022L13.5498 7.55406L18.2322 9.83446L18.5277 9.69053Z" fill="#E0C17D"/>
<path d="M20.2773 9.9784L20.573 9.83455V8.69426L20.2773 8.8381V9.9784Z" fill="#9B803F"/>
<path d="M20.5726 8.69425L15.8902 6.41385L15.5947 6.55769L20.277 8.8381L20.5726 8.69425Z" fill="#E0C17D"/>
<path d="M9.72461 8.54631L20.26 3.4155L24.9423 5.69599L14.407 10.8268L9.72461 8.54631Z" fill="#00D66B"/>
<path d="M14.407 10.8268V11.9671L9.72461 9.68661V8.54631L14.407 10.8268Z" fill="#008437"/>
<path d="M14.4072 11.9671L24.9425 6.83629V5.69599L14.4072 10.8268V11.9671Z" fill="#00A948"/>
<path d="M14.407 10.8566V10.8706L9.72461 8.59011V8.57609L14.407 10.8566Z" fill="#00591D"/>
<path d="M14.4072 10.8706L24.9425 5.7398V5.72577L14.4072 10.8566V10.8706Z" fill="#006B20"/>
<path d="M14.407 10.9548V10.9688L9.72461 8.68843V8.67441L14.407 10.9548Z" fill="#00591D"/>
<path d="M14.4072 10.9688L24.9425 5.83802V5.824L14.4072 10.9548V10.9688Z" fill="#006B20"/>
<path d="M14.407 11.0532V11.0672L9.72461 8.78672V8.7727L14.407 11.0532Z" fill="#00591D"/>
<path d="M14.4072 11.0672L24.9425 5.93631V5.92229L14.4072 11.0532V11.0672Z" fill="#006B20"/>
<path d="M14.407 11.1515V11.1655L9.72461 8.88501V8.87098L14.407 11.1515Z" fill="#00591D"/>
<path d="M14.4072 11.1655L24.9425 6.03469V6.02057L14.4072 11.1515V11.1655Z" fill="#006B20"/>
<path d="M14.407 11.2498V11.2638L9.72461 8.98332V8.96929L14.407 11.2498Z" fill="#00591D"/>
<path d="M14.4072 11.2638L24.9425 6.133V6.11897L14.4072 11.2498V11.2638Z" fill="#006B20"/>
<path d="M14.407 11.3481V11.3621L9.72461 9.08162V9.0676L14.407 11.3481Z" fill="#00591D"/>
<path d="M14.4072 11.3621L24.9425 6.2313V6.21728L14.4072 11.3481V11.3621Z" fill="#006B20"/>
<path d="M14.407 11.4463V11.4603L9.72461 9.17984V9.16582L14.407 11.4463Z" fill="#00591D"/>
<path d="M14.4072 11.4603L24.9425 6.32953V6.3155L14.4072 11.4463V11.4603Z" fill="#006B20"/>
<path d="M14.407 11.5446V11.5586L9.72461 9.27811V9.26418L14.407 11.5446Z" fill="#00591D"/>
<path d="M14.4072 11.5586L24.9425 6.42779V6.41376L14.4072 11.5446V11.5586Z" fill="#006B20"/>
<path d="M14.407 11.643V11.657L9.72461 9.3765V9.36247L14.407 11.643Z" fill="#00591D"/>
<path d="M14.4072 11.657L24.9425 6.52609V6.51206L14.4072 11.643V11.657Z" fill="#006B20"/>
<path d="M14.407 11.7413V11.7553L9.72461 9.4748V9.46077L14.407 11.7413Z" fill="#00591D"/>
<path d="M14.4072 11.7553L24.9425 6.62448V6.61036L14.4072 11.7413V11.7553Z" fill="#006B20"/>
<path d="M14.407 11.8395V11.8536L9.72461 9.57307V9.55904L14.407 11.8395Z" fill="#00591D"/>
<path d="M14.4072 11.8536L24.9425 6.72275V6.70863L14.4072 11.8395V11.8536Z" fill="#006B20"/>
<path d="M14.407 11.9378V11.9518L9.72461 9.67131V9.65729L14.407 11.9378Z" fill="#00591D"/>
<path d="M14.4072 11.9518L24.9425 6.821V6.80697L14.4072 11.9378V11.9518Z" fill="#006B20"/>
<path d="M23.1263 5.70484C23.1244 5.60553 23.1971 5.51468 23.3161 5.44766L20.7599 4.2039C20.6385 4.28797 20.4531 4.34426 20.2417 4.34709C20.0335 4.34991 19.849 4.30021 19.7243 4.22179L11.3443 8.30296C11.4481 8.36509 11.514 8.44633 11.5158 8.53718C11.5176 8.63282 11.4492 8.72009 11.3379 8.78627L13.8941 10.03C14.0157 9.95057 14.1957 9.89766 14.4003 9.89484C14.6153 9.89192 14.8057 9.94492 14.9301 10.028L23.3102 5.94678C23.1986 5.88389 23.128 5.79945 23.1263 5.70484Z" fill="#72FFB8"/>
<path d="M17.5666 5.82732C16.3949 5.84313 15.4549 6.36795 15.4669 6.99952C15.479 7.6311 16.4385 8.13022 17.6101 8.11431C18.7817 8.09849 19.7218 7.57367 19.7097 6.9421C19.6978 6.31053 18.7382 5.8115 17.5666 5.82732Z" fill="#00D66B"/>
<path d="M18.793 9.83051V8.69022L21.1344 7.54992V8.6904L18.793 9.83051Z" fill="#C9AE68"/>
<path d="M18.7937 8.69025L14.1113 6.40984L16.4527 5.26955L21.1352 7.54995L18.7937 8.69025Z" fill="#F9DE9B"/>
<path d="M18.793 9.83053L19.0885 9.68668V8.5463L18.793 8.69023V9.83053Z" fill="#9B803F"/>
<path d="M19.0892 8.54628L14.4068 6.26597L14.1113 6.40981L18.7937 8.69022L19.0892 8.54628Z" fill="#E0C17D"/>
<path d="M20.8398 8.83424L21.1353 8.6903V7.55L20.8398 7.69385V8.83424Z" fill="#9B803F"/>
<path d="M21.1351 7.55L16.4527 5.2696L16.1572 5.41344L20.8396 7.69385L21.1351 7.55Z" fill="#E0C17D"/>
<path d="M8.99219 7.57628L19.5276 2.44537L24.2099 4.72587L13.6746 9.85678L8.99219 7.57628Z" fill="#00D66B"/>
<path d="M13.6746 9.8568V10.997L8.99219 8.7165V7.5763L13.6746 9.8568Z" fill="#008437"/>
<path d="M13.6748 10.997L24.2101 5.8662V4.7259L13.6748 9.85681V10.997Z" fill="#00A948"/>
<path d="M13.6746 9.88652V9.90054L8.99219 7.62004V7.60602L13.6746 9.88652Z" fill="#00591D"/>
<path d="M13.6748 9.90055L24.2101 4.76974V4.75562L13.6748 9.88652V9.90055Z" fill="#006B20"/>
<path d="M13.6746 9.98481V9.99883L8.99219 7.71833V7.70431L13.6746 9.98481Z" fill="#00591D"/>
<path d="M13.6748 9.99884L24.2101 4.86803V4.8539L13.6748 9.98481V9.99884Z" fill="#006B20"/>
<path d="M13.6746 10.0831V10.0972L8.99219 7.81667V7.80264L13.6746 10.0831Z" fill="#00591D"/>
<path d="M13.6748 10.0972L24.2101 4.96635V4.95232L13.6748 10.0831V10.0972Z" fill="#006B20"/>
<path d="M13.6746 10.1814V10.1954L8.99219 7.91494V7.90091L13.6746 10.1814Z" fill="#00591D"/>
<path d="M13.6748 10.1954L24.2101 5.06462V5.0506L13.6748 10.1814V10.1954Z" fill="#006B20"/>
<path d="M13.6746 10.2797V10.2937L8.99219 8.01323V7.9992L13.6746 10.2797Z" fill="#00591D"/>
<path d="M13.6748 10.2937L24.2101 5.16291V5.14889L13.6748 10.2797V10.2937Z" fill="#006B20"/>
<path d="M13.6746 10.3779V10.392L8.99219 8.11145V8.09743L13.6746 10.3779Z" fill="#00591D"/>
<path d="M13.6748 10.3919L24.2101 5.26114V5.24711L13.6748 10.3779V10.3919Z" fill="#006B20"/>
<path d="M13.6746 10.4762V10.4903L8.99219 8.20982V8.19579L13.6746 10.4762Z" fill="#00591D"/>
<path d="M13.6748 10.4903L24.2101 5.35941V5.34538L13.6748 10.4762V10.4903Z" fill="#006B20"/>
<path d="M13.6746 10.5746V10.5886L8.99219 8.30812V8.2941L13.6746 10.5746Z" fill="#00591D"/>
<path d="M13.6748 10.5886L24.2101 5.45771V5.44369L13.6748 10.5746V10.5886Z" fill="#006B20"/>
<path d="M13.6746 10.6729V10.6869L8.99219 8.40644V8.39241L13.6746 10.6729Z" fill="#00591D"/>
<path d="M13.6748 10.6869L24.2101 5.55612V5.54209L13.6748 10.6729V10.6869Z" fill="#006B20"/>
<path d="M13.6746 10.7712V10.7852L8.99219 8.50473V8.4907L13.6746 10.7712Z" fill="#00591D"/>
<path d="M13.6748 10.7852L24.2101 5.65441V5.64038L13.6748 10.7712V10.7852Z" fill="#006B20"/>
<path d="M13.6746 10.8695V10.8835L8.99219 8.60301V8.58898L13.6746 10.8695Z" fill="#00591D"/>
<path d="M13.6748 10.8835L24.2101 5.75268V5.73866L13.6748 10.8695V10.8835Z" fill="#006B20"/>
<path d="M13.6746 10.9677V10.9817L8.99219 8.70124V8.68721L13.6746 10.9677Z" fill="#00591D"/>
<path d="M13.6748 10.9817L24.2101 5.85092V5.83689L13.6748 10.9677V10.9817Z" fill="#006B20"/>
<path d="M22.3938 4.73475C22.3919 4.63543 22.4647 4.54459 22.5837 4.47756L20.0275 3.23381C19.9061 3.31788 19.7207 3.37417 19.5092 3.37699C19.3011 3.37982 19.1165 3.33011 18.9919 3.2517L10.6118 7.33287C10.7157 7.395 10.7816 7.47624 10.7833 7.56709C10.7851 7.66273 10.7167 7.75 10.6055 7.81617L13.1616 9.05983C13.2833 8.98038 13.4633 8.92748 13.6678 8.92465C13.8829 8.92173 14.0733 8.97473 14.1977 9.05786L22.5777 4.97659C22.4662 4.91389 22.3956 4.82936 22.3938 4.73475Z" fill="#72FFB8"/>
<path d="M16.8332 4.85722C15.6615 4.87303 14.7215 5.39785 14.7335 6.02942C14.7456 6.661 15.7051 7.16012 16.8767 7.14421C18.0483 7.12839 18.9884 6.60357 18.9763 5.972C18.9644 5.34052 18.0048 4.8414 16.8332 4.85722Z" fill="#00D66B"/>
<path d="M18.0625 8.86051V7.72012L20.404 6.57983V7.72031L18.0625 8.86051Z" fill="#C9AE68"/>
<path d="M18.0613 7.72012L13.3789 5.43972L15.7203 4.29942L20.4028 6.57983L18.0613 7.72012Z" fill="#F9DE9B"/>
<path d="M18.0615 8.86053L18.357 8.7166V7.5763L18.0615 7.72014V8.86053Z" fill="#9B803F"/>
<path d="M18.3568 7.5763L13.6744 5.2959L13.3789 5.43974L18.0613 7.72014L18.3568 7.5763Z" fill="#E0C17D"/>
<path d="M20.1074 7.86415L20.4029 7.72031V6.57992L20.1074 6.72376V7.86415Z" fill="#9B803F"/>
<path d="M20.4027 6.57992L15.7203 4.29951L15.4248 4.44336L20.1072 6.72376L20.4027 6.57992Z" fill="#E0C17D"/>
<path d="M8.84668 6.28585L19.382 1.15495L24.0643 3.43544L13.5291 8.56626L8.84668 6.28585Z" fill="#00D66B"/>
<path d="M13.5291 8.56626L13.529 9.70656L8.84668 7.42606V6.28586L13.5291 8.56626Z" fill="#008437"/>
<path d="M13.5293 9.70655L24.0647 4.57574V3.43544L13.5294 8.56625L13.5293 9.70655Z" fill="#00A948"/>
<path d="M13.5291 8.59603L13.529 8.61015L8.84668 6.32956V6.31553L13.5291 8.59603Z" fill="#00591D"/>
<path d="M13.5293 8.61014L24.0647 3.47924V3.46521L13.5294 8.59602L13.5293 8.61014Z" fill="#006B20"/>
<path d="M13.5291 8.69441L13.529 8.70844L8.84668 6.42794V6.41392L13.5291 8.69441Z" fill="#00591D"/>
<path d="M13.5293 8.70844L24.0647 3.57753V3.56351L13.5294 8.69441L13.5293 8.70844Z" fill="#006B20"/>
<path d="M13.5291 8.79264L13.529 8.80666L8.84668 6.52617V6.51214L13.5291 8.79264Z" fill="#00591D"/>
<path d="M13.5293 8.80666L24.0647 3.67585V3.66173L13.5294 8.79264L13.5293 8.80666Z" fill="#006B20"/>
<path d="M13.5291 8.89095L13.529 8.90498L8.84668 6.62449V6.61046L13.5291 8.89095Z" fill="#00591D"/>
<path d="M13.5293 8.90498L24.0647 3.77417V3.76014L13.5294 8.89095L13.5293 8.90498Z" fill="#006B20"/>
<path d="M13.5291 8.98923L13.529 9.00326L8.84668 6.72276V6.70873L13.5291 8.98923Z" fill="#00591D"/>
<path d="M13.5293 9.00325L24.0647 3.87244V3.85841L13.5294 8.98923L13.5293 9.00325Z" fill="#006B20"/>
<path d="M13.5291 9.08753L13.529 9.10155L8.84668 6.82106V6.80703L13.5291 9.08753Z" fill="#00591D"/>
<path d="M13.5293 9.10155L24.0647 3.97074V3.95671L13.5294 9.08752L13.5293 9.10155Z" fill="#006B20"/>
<path d="M13.5291 9.18575L13.529 9.19977L8.84668 6.91928V6.90525L13.5291 9.18575Z" fill="#00591D"/>
<path d="M13.5293 9.19977L24.0647 4.06896V4.05493L13.5294 9.18575L13.5293 9.19977Z" fill="#006B20"/>
<path d="M13.5291 9.28403L13.529 9.29805L8.84668 7.01765V7.00362L13.5291 9.28403Z" fill="#00591D"/>
<path d="M13.5293 9.29805L24.0647 4.16724V4.15321L13.5294 9.28403L13.5293 9.29805Z" fill="#006B20"/>
<path d="M13.5291 9.38241L13.529 9.39644L8.84668 7.11594V7.10191L13.5291 9.38241Z" fill="#00591D"/>
<path d="M13.5293 9.39644L24.0647 4.26553V4.2515L13.5294 9.38241L13.5293 9.39644Z" fill="#006B20"/>
<path d="M13.5291 9.48071L13.529 9.49473L8.84668 7.21424V7.20021L13.5291 9.48071Z" fill="#00591D"/>
<path d="M13.5293 9.49473L24.0647 4.36392V4.3498L13.5294 9.48071L13.5293 9.49473Z" fill="#006B20"/>
<path d="M13.5291 9.57902L13.529 9.59305L8.84668 7.31255V7.29852L13.5291 9.57902Z" fill="#00591D"/>
<path d="M13.5293 9.59305L24.0647 4.46224V4.44821L13.5294 9.57903L13.5293 9.59305Z" fill="#006B20"/>
<path d="M13.5291 9.6773L13.529 9.69133L8.84668 7.41083V7.3968L13.5291 9.6773Z" fill="#00591D"/>
<path d="M13.5293 9.69133L24.0647 4.56051V4.54649L13.5294 9.6773L13.5293 9.69133Z" fill="#006B20"/>
<path d="M22.2483 3.44429C22.2464 3.34498 22.3192 3.25413 22.4382 3.18711L19.882 1.94335C19.7606 2.02742 19.5752 2.08371 19.3637 2.08654C19.1556 2.08936 18.971 2.03965 18.8464 1.96124L10.4663 6.04241C10.5702 6.10454 10.6361 6.18578 10.6378 6.27672C10.6396 6.37227 10.5712 6.45963 10.46 6.52581L13.0161 7.76956C13.1378 7.69011 13.3178 7.63721 13.5224 7.63438C13.7375 7.63146 13.9278 7.68446 14.0523 7.76759L22.4324 3.68632C22.3206 3.62334 22.2501 3.5389 22.2483 3.44429Z" fill="#72FFB8"/>
<path d="M16.6877 3.56676C15.516 3.58258 14.576 4.1074 14.588 4.73897C14.6001 5.37055 15.5595 5.86967 16.7312 5.85376C17.9028 5.83794 18.8429 5.31312 18.8309 4.68155C18.8189 4.05007 17.8594 3.55095 16.6877 3.56676Z" fill="#00D66B"/>
<path d="M17.917 7.56998V6.42969L20.2586 5.28939V6.42988L17.917 7.56998Z" fill="#C9AE68"/>
<path d="M17.9158 6.42968L13.2334 4.14927L15.5748 3.00898L20.2574 5.28938L17.9158 6.42968Z" fill="#F9DE9B"/>
<path d="M17.916 7.57L18.2115 7.42616V6.28587L17.916 6.42971V7.57Z" fill="#9B803F"/>
<path d="M18.2113 6.28586L13.5289 4.00546L13.2334 4.1493L17.9158 6.4297L18.2113 6.28586Z" fill="#E0C17D"/>
<path d="M19.9639 6.5737L20.2595 6.42976V5.28947L19.9639 5.43331V6.5737Z" fill="#9B803F"/>
<path d="M20.2591 5.28948L15.5768 3.00907L15.2812 3.15291L19.9635 5.43332L20.2591 5.28948Z" fill="#E0C17D"/>
<path d="M9.57324 5.1546L20.1086 0.0236969L24.7909 2.30419L14.2556 7.43501L9.57324 5.1546Z" fill="#00D66B"/>
<path d="M14.2556 7.43497V8.57526L9.57324 6.29477V5.15456L14.2556 7.43497Z" fill="#008437"/>
<path d="M14.2559 8.57526L24.7911 3.44445V2.30415L14.2559 7.43497V8.57526Z" fill="#00A948"/>
<path d="M14.2556 7.4647V7.47882L9.57324 5.19833V5.1842L14.2556 7.4647Z" fill="#00591D"/>
<path d="M14.2559 7.47883L24.7911 2.34792V2.33389L14.2559 7.4647V7.47883Z" fill="#006B20"/>
<path d="M14.2556 7.5631V7.57712L9.57324 5.29663V5.2826L14.2556 7.5631Z" fill="#00591D"/>
<path d="M14.2559 7.57712L24.7911 2.44621V2.43218L14.2559 7.56309V7.57712Z" fill="#006B20"/>
<path d="M14.2556 7.6614V7.67542L9.57324 5.39492V5.3809L14.2556 7.6614Z" fill="#00591D"/>
<path d="M14.2559 7.67542L24.7911 2.54461V2.53049L14.2559 7.66139V7.67542Z" fill="#006B20"/>
<path d="M14.2556 7.75964V7.77366L9.57324 5.49317V5.47914L14.2556 7.75964Z" fill="#00591D"/>
<path d="M14.2559 7.77366L24.7911 2.64285V2.62882L14.2559 7.75963V7.77366Z" fill="#006B20"/>
<path d="M14.2556 7.85791V7.87194L9.57324 5.59144V5.57742L14.2556 7.85791Z" fill="#00591D"/>
<path d="M14.2559 7.87194L24.7911 2.74112V2.7271L14.2559 7.85791V7.87194Z" fill="#006B20"/>
<path d="M14.2556 7.95622V7.97024L9.57324 5.68975V5.67572L14.2556 7.95622Z" fill="#00591D"/>
<path d="M14.2559 7.97023L24.7911 2.83942V2.82539L14.2559 7.95621V7.97023Z" fill="#006B20"/>
<path d="M14.2556 8.05452V8.06854L9.57324 5.78804V5.77402L14.2556 8.05452Z" fill="#00591D"/>
<path d="M14.2559 8.06854L24.7911 2.93772V2.9237L14.2559 8.05451V8.06854Z" fill="#006B20"/>
<path d="M14.2556 8.15279V8.16691L9.57324 5.88641V5.87238L14.2556 8.15279Z" fill="#00591D"/>
<path d="M14.2559 8.16691L24.7911 3.036V3.02197L14.2559 8.15279V8.16691Z" fill="#006B20"/>
<path d="M14.2556 8.25116V8.26519L9.57324 5.98469V5.97066L14.2556 8.25116Z" fill="#00591D"/>
<path d="M14.2559 8.26519L24.7911 3.13428V3.12025L14.2559 8.25116V8.26519Z" fill="#006B20"/>
<path d="M14.2556 8.34946V8.36349L9.57324 6.08299V6.06896L14.2556 8.34946Z" fill="#00591D"/>
<path d="M14.2559 8.36348L24.7911 3.23266V3.21854L14.2559 8.34945V8.36348Z" fill="#006B20"/>
<path d="M14.2556 8.44772V8.46175L9.57324 6.18125V6.16722L14.2556 8.44772Z" fill="#00591D"/>
<path d="M14.2559 8.46174L24.7911 3.33093V3.3169L14.2559 8.44772V8.46174Z" fill="#006B20"/>
<path d="M14.2556 8.54599V8.56002L9.57324 6.27952V6.2655L14.2556 8.54599Z" fill="#00591D"/>
<path d="M14.2559 8.56002L24.7911 3.4292V3.41518L14.2559 8.54599V8.56002Z" fill="#006B20"/>
<path d="M22.9759 2.313C22.974 2.21369 23.0467 2.12284 23.1657 2.05582L20.6095 0.812065C20.4881 0.896131 20.3027 0.952425 20.0913 0.955249C19.8831 0.958073 19.6986 0.908368 19.5739 0.829951L11.1939 4.91112C11.2978 4.97325 11.3636 5.0545 11.3654 5.14543C11.3672 5.24098 11.2988 5.32834 11.1875 5.39452L13.7437 6.63828C13.8653 6.55882 14.0453 6.50592 14.2499 6.5031C14.4649 6.50018 14.6552 6.55318 14.7797 6.6363L23.1598 2.55503C23.0483 2.49206 22.9778 2.40761 22.9759 2.313Z" fill="#72FFB8"/>
<path d="M17.4142 2.43548C16.2426 2.45129 15.3025 2.97611 15.3146 3.60769C15.3266 4.23926 16.2861 4.73838 17.4577 4.72247C18.6294 4.70666 19.5694 4.18184 19.5575 3.55026C19.5453 2.91869 18.5858 2.41966 17.4142 2.43548Z" fill="#00D66B"/>
<path d="M18.6426 6.43873V5.29843L20.984 4.15813V5.29862L18.6426 6.43873Z" fill="#C9AE68"/>
<path d="M18.6423 5.29843L13.96 3.01803L16.3013 1.87773L20.9838 4.15813L18.6423 5.29843Z" fill="#F9DE9B"/>
<path d="M18.6426 6.43872L18.9381 6.29488V5.15458L18.6426 5.29842V6.43872Z" fill="#9B803F"/>
<path d="M18.9378 5.15457L14.2555 2.87417L13.96 3.01801L18.6423 5.29841L18.9378 5.15457Z" fill="#E0C17D"/>
<path d="M20.6885 5.44243L20.984 5.29849V4.1582L20.6885 4.30204V5.44243Z" fill="#9B803F"/>
<path d="M20.9837 4.15819L16.3014 1.87778L16.0059 2.02163L20.6882 4.30203L20.9837 4.15819Z" fill="#E0C17D"/>
<path d="M13.8887 17.1487L24.424 12.0178L29.1063 14.2983L18.5711 19.4292L13.8887 17.1487Z" fill="#00D66B"/>
<path d="M18.5711 19.4292L18.5709 20.5694L13.8887 18.2889V17.1487L18.5711 19.4292Z" fill="#008437"/>
<path d="M18.5713 20.5694L29.1067 15.4386V14.2983L18.5714 19.4292L18.5713 20.5694Z" fill="#00A948"/>
<path d="M18.5711 19.4589L18.5709 19.473L13.8887 17.1925V17.1784L18.5711 19.4589Z" fill="#00591D"/>
<path d="M18.5713 19.473L29.1067 14.3421V14.328L18.5714 19.4589L18.5713 19.473Z" fill="#006B20"/>
<path d="M18.5711 19.5572L18.5709 19.5713L13.8887 17.2908V17.2767L18.5711 19.5572Z" fill="#00591D"/>
<path d="M18.5713 19.5712L29.1067 14.4404V14.4263L18.5714 19.5572L18.5713 19.5712Z" fill="#006B20"/>
<path d="M18.5711 19.6555L18.5709 19.6695L13.8887 17.389V17.375L18.5711 19.6555Z" fill="#00591D"/>
<path d="M18.5713 19.6695L29.1067 14.5387V14.5247L18.5714 19.6555L18.5713 19.6695Z" fill="#006B20"/>
<path d="M18.5711 19.7538L18.5709 19.7678L13.8887 17.4873V17.4733L18.5711 19.7538Z" fill="#00591D"/>
<path d="M18.5713 19.7678L29.1067 14.637V14.6229L18.5714 19.7538L18.5713 19.7678Z" fill="#006B20"/>
<path d="M18.5711 19.852L18.5709 19.8661L13.8887 17.5856V17.5715L18.5711 19.852Z" fill="#00591D"/>
<path d="M18.5713 19.8661L29.1067 14.7352V14.7212L18.5714 19.852L18.5713 19.8661Z" fill="#006B20"/>
<path d="M18.5711 19.9503L18.5709 19.9643L13.8887 17.6838V17.6698L18.5711 19.9503Z" fill="#00591D"/>
<path d="M18.5713 19.9643L29.1067 14.8335V14.8195L18.5714 19.9503L18.5713 19.9643Z" fill="#006B20"/>
<path d="M18.5711 20.0486L18.5709 20.0627L13.8887 17.7823V17.7682L18.5711 20.0486Z" fill="#00591D"/>
<path d="M18.5713 20.0628L29.1067 14.9318V14.9178L18.5714 20.0486L18.5713 20.0628Z" fill="#006B20"/>
<path d="M18.5711 20.147L18.5709 20.161L13.8887 17.8805V17.8665L18.5711 20.147Z" fill="#00591D"/>
<path d="M18.5713 20.161L29.1067 15.0301V15.0161L18.5714 20.147L18.5713 20.161Z" fill="#006B20"/>
<path d="M18.5711 20.2453L18.5709 20.2593L13.8887 17.9788V17.9648L18.5711 20.2453Z" fill="#00591D"/>
<path d="M18.5713 20.2593L29.1067 15.1285V15.1145L18.5714 20.2453L18.5713 20.2593Z" fill="#006B20"/>
<path d="M18.5711 20.3435L18.5709 20.3576L13.8887 18.0771V18.063L18.5711 20.3435Z" fill="#00591D"/>
<path d="M18.5713 20.3576L29.1067 15.2267V15.2127L18.5714 20.3435L18.5713 20.3576Z" fill="#006B20"/>
<path d="M18.5711 20.4418L18.5709 20.4558L13.8887 18.1753V18.1613L18.5711 20.4418Z" fill="#00591D"/>
<path d="M18.5713 20.4558L29.1067 15.325V15.311L18.5714 20.4418L18.5713 20.4558Z" fill="#006B20"/>
<path d="M18.5711 20.5401L18.5709 20.5542L13.8887 18.2737V18.2596L18.5711 20.5401Z" fill="#00591D"/>
<path d="M18.5713 20.5541L29.1067 15.4233V15.4093L18.5714 20.5401L18.5713 20.5541Z" fill="#006B20"/>
<path d="M27.2893 14.3071C27.2874 14.2078 27.3602 14.117 27.4792 14.0499L24.923 12.8062C24.8016 12.8902 24.6162 12.9465 24.4047 12.9494C24.1966 12.9522 24.012 12.9025 23.8874 12.8241L15.5073 16.9052C15.6112 16.9674 15.6771 17.0486 15.6789 17.1395C15.6806 17.2351 15.6121 17.3224 15.501 17.3885L18.0572 18.6322C18.1788 18.5528 18.3588 18.4998 18.5633 18.4971C18.7784 18.4942 18.9688 18.5472 19.0932 18.6303L27.4733 14.5491C27.3617 14.4863 27.2911 14.4017 27.2893 14.3071Z" fill="#72FFB8"/>
<path d="M21.7287 14.4296C20.557 14.4454 19.617 14.9702 19.629 15.6018C19.6411 16.2334 20.6006 16.7325 21.7722 16.7166C22.9438 16.7008 23.8839 16.176 23.8718 15.5444C23.8599 14.9129 22.9004 14.4138 21.7287 14.4296Z" fill="#00D66B"/>
<path d="M22.957 18.4329V17.2925L25.2986 16.1522V17.2927L22.957 18.4329Z" fill="#C9AE68"/>
<path d="M22.9578 17.2925L18.2754 15.0121L20.6168 13.8718L25.2994 16.1522L22.9578 17.2925Z" fill="#F9DE9B"/>
<path d="M22.957 18.4329L23.2525 18.289V17.1487L22.957 17.2925V18.4329Z" fill="#9B803F"/>
<path d="M23.2533 17.1487L18.5709 14.8683L18.2754 15.0121L22.9578 17.2925L23.2533 17.1487Z" fill="#E0C17D"/>
<path d="M25.0049 17.4366L25.3005 17.2927V16.1524L25.0049 16.2962V17.4366Z" fill="#9B803F"/>
<path d="M25.3002 16.1524L20.6178 13.8719L20.3223 14.0158L25.0045 16.2962L25.3002 16.1524Z" fill="#E0C17D"/>
<path d="M13.7578 15.8078L24.2931 10.677L28.9755 12.9575L18.4402 18.0883L13.7578 15.8078Z" fill="#00D66B"/>
<path d="M18.4402 18.0883V19.2286L13.7578 16.9481V15.8078L18.4402 18.0883Z" fill="#008437"/>
<path d="M18.4404 19.2286L28.9757 14.0977V12.9574L18.4404 18.0883V19.2286Z" fill="#00A948"/>
<path d="M18.4402 18.118V18.1321L13.7578 15.8515V15.8376L18.4402 18.118Z" fill="#00591D"/>
<path d="M18.4404 18.1321L28.9757 13.0012V12.9872L18.4404 18.118V18.1321Z" fill="#006B20"/>
<path d="M18.4402 18.2163V18.2304L13.7578 15.9499V15.9358L18.4402 18.2163Z" fill="#00591D"/>
<path d="M18.4404 18.2304L28.9757 13.0995V13.0854L18.4404 18.2163V18.2304Z" fill="#006B20"/>
<path d="M18.4402 18.3146V18.3287L13.7578 16.0482V16.0341L18.4402 18.3146Z" fill="#00591D"/>
<path d="M18.4404 18.3287L28.9757 13.1979V13.1837L18.4404 18.3147V18.3287Z" fill="#006B20"/>
<path d="M18.4402 18.4129V18.427L13.7578 16.1465V16.1324L18.4402 18.4129Z" fill="#00591D"/>
<path d="M18.4404 18.427L28.9757 13.2962V13.282L18.4404 18.4129V18.427Z" fill="#006B20"/>
<path d="M18.4402 18.5112V18.5252L13.7578 16.2447V16.2307L18.4402 18.5112Z" fill="#00591D"/>
<path d="M18.4404 18.5252L28.9757 13.3944V13.3804L18.4404 18.5112V18.5252Z" fill="#006B20"/>
<path d="M18.4402 18.6095V18.6235L13.7578 16.343V16.329L18.4402 18.6095Z" fill="#00591D"/>
<path d="M18.4404 18.6235L28.9757 13.4927V13.4787L18.4404 18.6095V18.6235Z" fill="#006B20"/>
<path d="M18.4402 18.7078V18.7218L13.7578 16.4413V16.4273L18.4402 18.7078Z" fill="#00591D"/>
<path d="M18.4404 18.7218L28.9757 13.591V13.5769L18.4404 18.7077V18.7218Z" fill="#006B20"/>
<path d="M18.4402 18.8062V18.8202L13.7578 16.5397V16.5257L18.4402 18.8062Z" fill="#00591D"/>
<path d="M18.4404 18.8202L28.9757 13.6893V13.6753L18.4404 18.8062V18.8202Z" fill="#006B20"/>
<path d="M18.4402 18.9044V18.9185L13.7578 16.638V16.6239L18.4402 18.9044Z" fill="#00591D"/>
<path d="M18.4404 18.9185L28.9757 13.7876V13.7735L18.4404 18.9044V18.9185Z" fill="#006B20"/>
<path d="M18.4402 19.0027V19.0167L13.7578 16.7362V16.7222L18.4402 19.0027Z" fill="#00591D"/>
<path d="M18.4404 19.0167L28.9757 13.8859V13.8718L18.4404 19.0027V19.0167Z" fill="#006B20"/>
<path d="M18.4402 19.101V19.115L13.7578 16.8345V16.8205L18.4402 19.101Z" fill="#00591D"/>
<path d="M18.4404 19.115L28.9757 13.9842V13.9702L18.4404 19.101V19.115Z" fill="#006B20"/>
<path d="M18.4402 19.1993V19.2133L13.7578 16.9328V16.9188L18.4402 19.1993Z" fill="#00591D"/>
<path d="M18.4404 19.2133L28.9757 14.0825V14.0684L18.4404 19.1992V19.2133Z" fill="#006B20"/>
<path d="M27.1604 12.9663C27.1585 12.867 27.2313 12.7761 27.3503 12.7091L24.7941 11.4654C24.6727 11.5494 24.4873 11.6057 24.2758 11.6085C24.0677 11.6114 23.8831 11.5617 23.7585 11.4832L15.3784 15.5645C15.4823 15.6266 15.5482 15.7079 15.55 15.7987C15.5517 15.8944 15.4833 15.9816 15.3721 16.0478L17.9282 17.2916C18.0499 17.212 18.2299 17.1592 18.4346 17.1564C18.6496 17.1535 18.8399 17.2065 18.9644 17.2896L27.3445 13.2083C27.2329 13.1454 27.1622 13.0609 27.1604 12.9663Z" fill="#72FFB8"/>
<path d="M21.5988 13.0888C20.4272 13.1046 19.4871 13.6294 19.4991 14.261C19.5111 14.8925 20.4707 15.3917 21.6423 15.3758C22.8139 15.3599 23.754 14.8351 23.742 14.2036C23.7299 13.572 22.7704 13.073 21.5988 13.0888Z" fill="#00D66B"/>
<path d="M22.8271 17.092V15.9517L25.1687 14.8114V15.9519L22.8271 17.092Z" fill="#C9AE68"/>
<path d="M22.8268 15.9517L18.1445 13.6713L20.4859 12.531L25.1684 14.8114L22.8268 15.9517Z" fill="#F9DE9B"/>
<path d="M22.8271 17.0919L23.1228 16.9481V15.8077L22.8271 15.9517V17.0919Z" fill="#9B803F"/>
<path d="M23.1224 15.8078L18.44 13.5274L18.1445 13.6713L22.8268 15.9517L23.1224 15.8078Z" fill="#E0C17D"/>
<path d="M24.8711 16.0957L25.1666 15.9518V14.8115L24.8711 14.9553V16.0957Z" fill="#9B803F"/>
<path d="M25.1673 14.8115L20.485 12.5311L20.1895 12.6749L24.8718 14.9553L25.1673 14.8115Z" fill="#E0C17D"/>
<path d="M15.996 18.2969L5.46059 13.166L0.77832 15.4465L11.3136 20.5774L15.996 18.2969Z" fill="#00D66B"/>
<path d="M11.3135 20.5774V21.7176L15.9959 19.4371V18.2969L11.3135 20.5774Z" fill="#008437"/>
<path d="M11.3136 21.7176L0.77832 16.5868V15.4465L11.3136 20.5774V21.7176Z" fill="#00A948"/>
<path d="M11.3135 20.6072V20.6212L15.9959 18.3407V18.3267L11.3135 20.6072Z" fill="#00591D"/>
<path d="M11.3136 20.6212L0.77832 15.4903V15.4763L11.3136 20.6072V20.6212Z" fill="#006B20"/>
<path d="M11.3135 20.7055V20.7195L15.9959 18.439V18.425L11.3135 20.7055Z" fill="#00591D"/>
<path d="M11.3136 20.7195L0.77832 15.5887V15.5746L11.3136 20.7055V20.7195Z" fill="#006B20"/>
<path d="M11.3135 20.8037V20.8178L15.9959 18.5373V18.5232L11.3135 20.8037Z" fill="#00591D"/>
<path d="M11.3136 20.8178L0.77832 15.687V15.6729L11.3136 20.8037V20.8178Z" fill="#006B20"/>
<path d="M11.3135 20.902V20.916L15.9959 18.6355V18.6215L11.3135 20.902Z" fill="#00591D"/>
<path d="M11.3136 20.916L0.77832 15.7852V15.7712L11.3136 20.902V20.916Z" fill="#006B20"/>
<path d="M11.3135 21.0003V21.0143L15.9959 18.7338V18.7198L11.3135 21.0003Z" fill="#00591D"/>
<path d="M11.3136 21.0143L0.77832 15.8835V15.8695L11.3136 21.0003V21.0143Z" fill="#006B20"/>
<path d="M11.3135 21.0986V21.1126L15.9959 18.8321V18.8181L11.3135 21.0986Z" fill="#00591D"/>
<path d="M11.3136 21.1126L0.77832 15.9818V15.9678L11.3136 21.0986V21.1126Z" fill="#006B20"/>
<path d="M11.3135 21.197V21.211L15.9959 18.9305V18.9165L11.3135 21.197Z" fill="#00591D"/>
<path d="M11.3136 21.211L0.77832 16.0801V16.066L11.3136 21.197V21.211Z" fill="#006B20"/>
<path d="M11.3135 21.2952V21.3093L15.9959 19.0288V19.0147L11.3135 21.2952Z" fill="#00591D"/>
<path d="M11.3136 21.3093L0.77832 16.1784V16.1643L11.3136 21.2952V21.3093Z" fill="#006B20"/>
<path d="M11.3135 21.3935V21.4075L15.9959 19.127V19.113L11.3135 21.3935Z" fill="#00591D"/>
<path d="M11.3136 21.4076L0.77832 16.2767V16.2626L11.3136 21.3935V21.4076Z" fill="#006B20"/>
<path d="M11.3135 21.4918V21.5058L15.9959 19.2253V19.2113L11.3135 21.4918Z" fill="#00591D"/>
<path d="M11.3136 21.5058L0.77832 16.375V16.361L11.3136 21.4918V21.5058Z" fill="#006B20"/>
<path d="M11.3135 21.5901V21.6041L15.9959 19.3236V19.3096L11.3135 21.5901Z" fill="#00591D"/>
<path d="M11.3136 21.6041L0.77832 16.4733V16.4593L11.3136 21.5901V21.6041Z" fill="#006B20"/>
<path d="M11.3135 21.6884V21.7024L15.9959 19.4219V19.4079L11.3135 21.6884Z" fill="#00591D"/>
<path d="M11.3136 21.7024L0.77832 16.5716V16.5575L11.3136 21.6884V21.7024Z" fill="#006B20"/>
<path d="M2.59412 15.4554C2.59602 15.3561 2.52326 15.2652 2.4043 15.1982L4.96047 13.9544C5.08189 14.0385 5.26725 14.0948 5.47872 14.0976C5.68684 14.1004 5.87142 14.0507 5.99607 13.9723L14.3761 18.0536C14.2722 18.1157 14.2064 18.197 14.2046 18.2878C14.2028 18.3835 14.2712 18.4707 14.3825 18.5369L11.8263 19.7806C11.7047 19.701 11.5247 19.6482 11.3201 19.6455C11.1051 19.6425 10.9147 19.6955 10.7903 19.7787L2.41021 15.6975C2.52181 15.6345 2.59233 15.55 2.59412 15.4554Z" fill="#72FFB8"/>
<path d="M8.15511 15.5778C9.32674 15.5937 10.2668 16.1185 10.2548 16.7501C10.2427 17.3816 9.28322 17.8807 8.11159 17.8648C6.93996 17.849 5.99989 17.3242 6.01183 16.6926C6.02388 16.0611 6.98348 15.562 8.15511 15.5778Z" fill="#00D66B"/>
<path d="M6.92741 19.5812V18.4408L4.58594 17.3005V18.441L6.92741 19.5812Z" fill="#C9AE68"/>
<path d="M6.92741 18.4408L11.6098 16.1604L9.26843 15.0201L4.58594 17.3005L6.92741 18.4408Z" fill="#F9DE9B"/>
<path d="M6.92831 19.5812L6.63281 19.4372V18.2969L6.92831 18.4408V19.5812Z" fill="#9B803F"/>
<path d="M6.63281 18.2969L11.3152 16.0165L11.6107 16.1604L6.92831 18.4408L6.63281 18.2969Z" fill="#E0C17D"/>
<path d="M4.88144 18.5848L4.58594 18.441V17.3006L4.88144 17.4444V18.5848Z" fill="#9B803F"/>
<path d="M4.58594 17.3006L9.26832 15.0202L9.56382 15.164L4.88144 17.4444L4.58594 17.3006Z" fill="#E0C17D"/>
<path d="M16.1679 16.8228L5.63258 11.692L0.950195 13.9725L11.4855 19.1033L16.1679 16.8228Z" fill="#00D66B"/>
<path d="M11.4854 19.1033V20.2435L16.1677 17.963V16.8228L11.4854 19.1033Z" fill="#008437"/>
<path d="M11.4855 20.2435L0.950195 15.1127V13.9725L11.4855 19.1033V20.2435Z" fill="#00A948"/>
<path d="M11.4854 19.1331V19.1471L16.1677 16.8666V16.8526L11.4854 19.1331Z" fill="#00591D"/>
<path d="M11.4855 19.1471L0.950195 14.0163V14.0023L11.4855 19.1331V19.1471Z" fill="#006B20"/>
<path d="M11.4854 19.2313V19.2454L16.1677 16.9649V16.9508L11.4854 19.2313Z" fill="#00591D"/>
<path d="M11.4855 19.2454L0.950195 14.1146V14.1005L11.4855 19.2314V19.2454Z" fill="#006B20"/>
<path d="M11.4854 19.3296V19.3436L16.1677 17.0631V17.0491L11.4854 19.3296Z" fill="#00591D"/>
<path d="M11.4855 19.3437L0.950195 14.2129V14.1988L11.4855 19.3296V19.3437Z" fill="#006B20"/>
<path d="M11.4854 19.4279V19.442L16.1677 17.1615V17.1474L11.4854 19.4279Z" fill="#00591D"/>
<path d="M11.4855 19.442L0.950195 14.3111V14.2971L11.4855 19.4279V19.442Z" fill="#006B20"/>
<path d="M11.4854 19.5263V19.5403L16.1677 17.2598V17.2458L11.4854 19.5263Z" fill="#00591D"/>
<path d="M11.4855 19.5403L0.950195 14.4094V14.3954L11.4855 19.5263V19.5403Z" fill="#006B20"/>
<path d="M11.4854 19.6246V19.6386L16.1677 17.3581V17.3441L11.4854 19.6246Z" fill="#00591D"/>
<path d="M11.4855 19.6386L0.950195 14.5078V14.4937L11.4855 19.6246V19.6386Z" fill="#006B20"/>
<path d="M11.4854 19.7228V19.7369L16.1677 17.4564V17.4423L11.4854 19.7228Z" fill="#00591D"/>
<path d="M11.4855 19.7369L0.950195 14.6061V14.5919L11.4855 19.7228V19.7369Z" fill="#006B20"/>
<path d="M11.4854 19.8211V19.8351L16.1677 17.5546V17.5406L11.4854 19.8211Z" fill="#00591D"/>
<path d="M11.4855 19.8352L0.950195 14.7044V14.6903L11.4855 19.8211V19.8352Z" fill="#006B20"/>
<path d="M11.4854 19.9194V19.9334L16.1677 17.6529V17.6389L11.4854 19.9194Z" fill="#00591D"/>
<path d="M11.4855 19.9334L0.950195 14.8026V14.7886L11.4855 19.9194V19.9334Z" fill="#006B20"/>
<path d="M11.4854 20.0177V20.0317L16.1677 17.7512V17.7372L11.4854 20.0177Z" fill="#00591D"/>
<path d="M11.4855 20.0317L0.950195 14.9009V14.8869L11.4855 20.0177V20.0317Z" fill="#006B20"/>
<path d="M11.4854 20.1161V20.13L16.1677 17.8495V17.8356L11.4854 20.1161Z" fill="#00591D"/>
<path d="M11.4855 20.13L0.950195 14.9992V14.9852L11.4855 20.1161V20.13Z" fill="#006B20"/>
<path d="M11.4854 20.2143V20.2284L16.1677 17.9479V17.9338L11.4854 20.2143Z" fill="#00591D"/>
<path d="M11.4855 20.2284L0.950195 15.0976V15.0834L11.4855 20.2143V20.2284Z" fill="#006B20"/>
<path d="M2.76599 13.9813C2.76789 13.882 2.69513 13.7911 2.57617 13.7241L5.13235 12.4803C5.25376 12.5644 5.43912 12.6207 5.65059 12.6235C5.85872 12.6263 6.04329 12.5766 6.16794 12.4982L14.548 16.5795C14.4441 16.6416 14.3783 16.7229 14.3765 16.8137C14.3747 16.9094 14.4432 16.9966 14.5544 17.0628L11.9982 18.3065C11.8765 18.227 11.6965 18.1742 11.492 18.1714C11.277 18.1685 11.0866 18.2214 10.9621 18.3046L2.58209 14.2234C2.69357 14.1604 2.7641 14.076 2.76599 13.9813Z" fill="#72FFB8"/>
<path d="M8.32785 14.1038C9.49948 14.1197 10.4395 14.6445 10.4275 15.2761C10.4154 15.9076 9.45596 16.4068 8.28433 16.3908C7.1127 16.375 6.17263 15.8502 6.18468 15.2186C6.19674 14.5871 7.15622 14.0879 8.32785 14.1038Z" fill="#00D66B"/>
<path d="M7.09831 18.1071V16.9667L4.75684 15.8265V16.9669L7.09831 18.1071Z" fill="#C9AE68"/>
<path d="M7.09831 16.9667L11.7807 14.6864L9.43933 13.5461L4.75684 15.8265L7.09831 16.9667Z" fill="#F9DE9B"/>
<path d="M7.09824 18.1071L6.80273 17.9632V16.8228L7.09824 16.9667V18.1071Z" fill="#9B803F"/>
<path d="M6.80273 16.8229L11.4851 14.5425L11.7806 14.6864L7.09824 16.9667L6.80273 16.8229Z" fill="#E0C17D"/>
<path d="M5.05234 17.1107L4.75684 16.9669V15.8265L5.05234 15.9703V17.1107Z" fill="#9B803F"/>
<path d="M4.75684 15.8265L9.43922 13.5462L9.73472 13.69L5.05234 15.9703L4.75684 15.8265Z" fill="#E0C17D"/>
<path d="M16.1679 15.3406L5.63258 10.2098L0.950195 12.4903L11.4855 17.6211L16.1679 15.3406Z" fill="#00D66B"/>
<path d="M11.4854 17.6211V18.7614L16.1677 16.4809V15.3406L11.4854 17.6211Z" fill="#008437"/>
<path d="M11.4855 18.7614L0.950195 13.6306V12.4903L11.4855 17.6211V18.7614Z" fill="#00A948"/>
<path d="M11.4854 17.6509V17.6649L16.1677 15.3844V15.3704L11.4854 17.6509Z" fill="#00591D"/>
<path d="M11.4855 17.6649L0.950195 12.5341V12.5201L11.4855 17.6509V17.6649Z" fill="#006B20"/>
<path d="M11.4854 17.7493V17.7633L16.1677 15.4827V15.4688L11.4854 17.7493Z" fill="#00591D"/>
<path d="M11.4855 17.7633L0.950195 12.6324V12.6183L11.4855 17.7493V17.7633Z" fill="#006B20"/>
<path d="M11.4854 17.8475V17.8615L16.1677 15.581V15.567L11.4854 17.8475Z" fill="#00591D"/>
<path d="M11.4855 17.8616L0.950195 12.7307V12.7166L11.4855 17.8475V17.8616Z" fill="#006B20"/>
<path d="M11.4854 17.9458V17.9598L16.1677 15.6793V15.6653L11.4854 17.9458Z" fill="#00591D"/>
<path d="M11.4855 17.9598L0.950195 12.829V12.8149L11.4855 17.9458V17.9598Z" fill="#006B20"/>
<path d="M11.4854 18.0441V18.0581L16.1677 15.7776V15.7636L11.4854 18.0441Z" fill="#00591D"/>
<path d="M11.4855 18.0581L0.950195 12.9273V12.9132L11.4855 18.0441V18.0581Z" fill="#006B20"/>
<path d="M11.4854 18.1424V18.1564L16.1677 15.876V15.8619L11.4854 18.1424Z" fill="#00591D"/>
<path d="M11.4855 18.1564L0.950195 13.0256V13.0116L11.4855 18.1424V18.1564Z" fill="#006B20"/>
<path d="M11.4854 18.2407V18.2547L16.1677 15.9742V15.9602L11.4854 18.2407Z" fill="#00591D"/>
<path d="M11.4855 18.2547L0.950195 13.1239V13.1098L11.4855 18.2407V18.2547Z" fill="#006B20"/>
<path d="M11.4854 18.3389V18.353L16.1677 16.0725V16.0584L11.4854 18.3389Z" fill="#00591D"/>
<path d="M11.4855 18.353L0.950195 13.2222V13.2081L11.4855 18.339V18.353Z" fill="#006B20"/>
<path d="M11.4854 18.4373V18.4513L16.1677 16.1708V16.1568L11.4854 18.4373Z" fill="#00591D"/>
<path d="M11.4855 18.4513L0.950195 13.3204V13.3064L11.4855 18.4373V18.4513Z" fill="#006B20"/>
<path d="M11.4854 18.5356V18.5496L16.1677 16.2691V16.2551L11.4854 18.5356Z" fill="#00591D"/>
<path d="M11.4855 18.5496L0.950195 13.4188V13.4047L11.4855 18.5356V18.5496Z" fill="#006B20"/>
<path d="M11.4854 18.6339V18.6479L16.1677 16.3674V16.3534L11.4854 18.6339Z" fill="#00591D"/>
<path d="M11.4855 18.6479L0.950195 13.5171V13.503L11.4855 18.6339V18.6479Z" fill="#006B20"/>
<path d="M11.4854 18.7321V18.7461L16.1677 16.4656V16.4516L11.4854 18.7321Z" fill="#00591D"/>
<path d="M11.4855 18.7462L0.950195 13.6154V13.6013L11.4855 18.7322V18.7462Z" fill="#006B20"/>
<path d="M2.76599 12.4992C2.76789 12.3999 2.69513 12.309 2.57617 12.242L5.13235 10.9982C5.25376 11.0823 5.43912 11.1386 5.65059 11.1414C5.85872 11.1442 6.04329 11.0945 6.16794 11.0161L14.548 15.0973C14.4441 15.1594 14.3783 15.2407 14.3765 15.3315C14.3747 15.4272 14.4432 15.5144 14.5544 15.5806L11.9982 16.8243C11.8765 16.7447 11.6965 16.6919 11.492 16.6892C11.277 16.6863 11.0866 16.7393 10.9621 16.8224L2.58209 12.7412C2.69357 12.6782 2.7641 12.5938 2.76599 12.4992Z" fill="#72FFB8"/>
<path d="M8.32785 12.6217C9.49948 12.6375 10.4395 13.1623 10.4275 13.7939C10.4154 14.4254 9.45596 14.9246 8.28433 14.9087C7.1127 14.8928 6.17263 14.368 6.18468 13.7364C6.19674 13.1049 7.15622 12.6058 8.32785 12.6217Z" fill="#00D66B"/>
<path d="M7.09831 16.6249V15.4846L4.75684 14.3443V15.4847L7.09831 16.6249Z" fill="#C9AE68"/>
<path d="M7.09831 15.4846L11.7807 13.2042L9.43933 12.0639L4.75684 14.3443L7.09831 15.4846Z" fill="#F9DE9B"/>
<path d="M7.09824 16.6249L6.80273 16.481V15.3407L7.09824 15.4846V16.6249Z" fill="#9B803F"/>
<path d="M6.80273 15.3406L11.4851 13.0603L11.7806 13.2042L7.09824 15.4846L6.80273 15.3406Z" fill="#E0C17D"/>
<path d="M5.05234 15.6286L4.75684 15.4846V14.3444L5.05234 14.4882V15.6286Z" fill="#9B803F"/>
<path d="M4.75684 14.3444L9.43922 12.064L9.73472 12.2078L5.05234 14.4883L4.75684 14.3444Z" fill="#E0C17D"/>
<path d="M16.7245 14.2155L6.18922 9.08457L1.50684 11.3651L12.0421 16.496L16.7245 14.2155Z" fill="#00D66B"/>
<path d="M12.042 16.496V17.6362L16.7244 15.3557V14.2155L12.042 16.496Z" fill="#008437"/>
<path d="M12.0421 17.6362L1.50684 12.5054V11.3651L12.0421 16.496V17.6362Z" fill="#00A948"/>
<path d="M12.042 16.5257V16.5398L16.7244 14.2593V14.2452L12.042 16.5257Z" fill="#00591D"/>
<path d="M12.0421 16.5398L1.50684 11.409V11.3948L12.0421 16.5257V16.5398Z" fill="#006B20"/>
<path d="M12.042 16.624V16.638L16.7244 14.3575V14.3435L12.042 16.624Z" fill="#00591D"/>
<path d="M12.0421 16.638L1.50684 11.5072V11.4932L12.0421 16.624V16.638Z" fill="#006B20"/>
<path d="M12.042 16.7223V16.7363L16.7244 14.4558V14.4418L12.042 16.7223Z" fill="#00591D"/>
<path d="M12.0421 16.7363L1.50684 11.6055V11.5915L12.0421 16.7223V16.7363Z" fill="#006B20"/>
<path d="M12.042 16.8206V16.8346L16.7244 14.5541V14.5401L12.042 16.8206Z" fill="#00591D"/>
<path d="M12.0421 16.8346L1.50684 11.7038V11.6898L12.0421 16.8206V16.8346Z" fill="#006B20"/>
<path d="M12.042 16.9188V16.9329L16.7244 14.6524V14.6383L12.042 16.9188Z" fill="#00591D"/>
<path d="M12.0421 16.9329L1.50684 11.8021V11.788L12.0421 16.9188V16.9329Z" fill="#006B20"/>
<path d="M12.042 17.0171V17.0313L16.7244 14.7507V14.7367L12.042 17.0171Z" fill="#00591D"/>
<path d="M12.0421 17.0313L1.50684 11.9003V11.8863L12.0421 17.0171V17.0313Z" fill="#006B20"/>
<path d="M12.042 17.1155V17.1296L16.7244 14.8491V14.835L12.042 17.1155Z" fill="#00591D"/>
<path d="M12.0421 17.1296L1.50684 11.9986V11.9846L12.0421 17.1155V17.1296Z" fill="#006B20"/>
<path d="M12.042 17.2138V17.2278L16.7244 14.9473V14.9333L12.042 17.2138Z" fill="#00591D"/>
<path d="M12.0421 17.2278L1.50684 12.097V12.0829L12.0421 17.2138V17.2278Z" fill="#006B20"/>
<path d="M12.042 17.312V17.3261L16.7244 15.0456V15.0315L12.042 17.312Z" fill="#00591D"/>
<path d="M12.0421 17.3261L1.50684 12.1952V12.1811L12.0421 17.312V17.3261Z" fill="#006B20"/>
<path d="M12.042 17.4104V17.4244L16.7244 15.1439V15.1299L12.042 17.4104Z" fill="#00591D"/>
<path d="M12.0421 17.4244L1.50684 12.2936V12.2795L12.0421 17.4104V17.4244Z" fill="#006B20"/>
<path d="M12.042 17.5086V17.5227L16.7244 15.2422V15.2281L12.042 17.5086Z" fill="#00591D"/>
<path d="M12.0421 17.5227L1.50684 12.3919V12.3778L12.0421 17.5086V17.5227Z" fill="#006B20"/>
<path d="M12.042 17.6069V17.6209L16.7244 15.3404V15.3264L12.042 17.6069Z" fill="#00591D"/>
<path d="M12.0421 17.6209L1.50684 12.4901V12.4761L12.0421 17.6069V17.6209Z" fill="#006B20"/>
<path d="M3.32263 11.3739C3.32453 11.2746 3.25177 11.1838 3.13281 11.1167L5.68899 9.87298C5.81041 9.95704 5.99576 10.0133 6.20723 10.0162C6.41536 10.019 6.59993 9.96928 6.72459 9.89086L15.1046 13.9721C15.0008 14.0343 14.9349 14.1155 14.9331 14.2063C14.9313 14.302 14.9999 14.3893 15.111 14.4554L12.5548 15.6992C12.4332 15.6196 12.2532 15.5668 12.0486 15.5641C11.8336 15.5612 11.6432 15.6142 11.5188 15.6973L3.13873 11.6161C3.25021 11.5531 3.32085 11.4685 3.32263 11.3739Z" fill="#72FFB8"/>
<path d="M8.88352 11.4964C10.0551 11.5122 10.9952 12.037 10.9832 12.6686C10.9711 13.3002 10.0116 13.7993 8.83999 13.7834C7.66837 13.7676 6.7283 13.2427 6.74035 12.6112C6.7524 11.9797 7.71189 11.4806 8.88352 11.4964Z" fill="#00D66B"/>
<path d="M7.65495 15.4997V14.3593L5.31348 13.2191V14.3595L7.65495 15.4997Z" fill="#C9AE68"/>
<path d="M7.65495 14.3593L12.3373 12.0789L9.99597 10.9387L5.31348 13.2191L7.65495 14.3593Z" fill="#F9DE9B"/>
<path d="M7.6539 15.4997L7.3584 15.3558V14.2155L7.6539 14.3593V15.4997Z" fill="#9B803F"/>
<path d="M7.3584 14.2155L12.0408 11.9351L12.3363 12.0789L7.6539 14.3593L7.3584 14.2155Z" fill="#E0C17D"/>
<path d="M5.60898 14.5033L5.31348 14.3595V13.2191L5.60898 13.3629V14.5033Z" fill="#9B803F"/>
<path d="M5.31348 13.2191L9.99586 10.9387L10.2914 11.0826L5.60898 13.363L5.31348 13.2191Z" fill="#E0C17D"/>
</svg>
