<svg width="24" height="24" viewBox="0 0 24 24" fill="none" xmlns="http://www.w3.org/2000/svg">
<path d="M9.99999 16H14C14.2549 16.0003 14.5 16.0979 14.6854 16.2728C14.8707 16.4478 14.9822 16.687 14.9972 16.9414C15.0121 17.1958 14.9293 17.4464 14.7657 17.6418C14.6021 17.8373 14.3701 17.9629 14.117 17.993L14 18H9.99999C9.74511 17.9997 9.49996 17.9021 9.31462 17.7272C9.12929 17.5522 9.01776 17.313 9.00282 17.0586C8.98788 16.8042 9.07066 16.5536 9.23425 16.3582C9.39785 16.1627 9.6299 16.0371 9.88299 16.007L9.99999 16ZM7.99999 11H16C16.2549 11.0003 16.5 11.0979 16.6854 11.2728C16.8707 11.4478 16.9822 11.687 16.9972 11.9414C17.0121 12.1958 16.9293 12.4464 16.7657 12.6418C16.6021 12.8373 16.3701 12.9629 16.117 12.993L16 13H7.99999C7.74511 12.9997 7.49996 12.9021 7.31462 12.7272C7.12929 12.5522 7.01776 12.313 7.00282 12.0586C6.98788 11.8042 7.07067 11.5536 7.23426 11.3582C7.39785 11.1627 7.62989 11.0371 7.88299 11.007L7.99999 11ZM4.99999 6H19C19.2549 6.00028 19.5 6.09788 19.6854 6.27285C19.8707 6.44782 19.9822 6.68695 19.9972 6.94139C20.0121 7.19584 19.9293 7.44638 19.7657 7.64183C19.6021 7.83729 19.3701 7.9629 19.117 7.993L19 8H4.99999C4.74511 7.99972 4.49996 7.90212 4.31462 7.72715C4.12929 7.55218 4.01776 7.31305 4.00282 7.05861C3.98788 6.80416 4.07067 6.55362 4.23426 6.35817C4.39785 6.16271 4.62989 6.0371 4.88299 6.007L4.99999 6Z" fill="#2B3C4E"/>
</svg>
