<svg width="23" height="27" viewBox="0 0 23 27" fill="none" xmlns="http://www.w3.org/2000/svg">
<g opacity="0.43">
<path opacity="0.0196" d="M11.748 25.4617C16.5921 25.4377 20.5132 24.5936 20.5061 23.5765C20.499 22.5594 16.5663 21.7544 11.7222 21.7785C6.87809 21.8026 2.95694 22.6467 2.96406 23.6637C2.97118 24.6808 6.90387 25.4858 11.748 25.4617Z" fill="#0F0A26"/>
<path opacity="0.0392" d="M11.7551 25.4326C16.5349 25.4088 20.4039 24.576 20.3969 23.5724C20.3899 22.5688 16.5094 21.7745 11.7297 21.7983C6.94994 21.822 3.08089 22.6549 3.08792 23.6584C3.09494 24.662 6.97538 25.4563 11.7551 25.4326Z" fill="#0F0A26"/>
<path opacity="0.0588" d="M11.7603 25.4034C16.4757 25.3799 20.2927 24.5583 20.2858 23.5682C20.2789 22.5781 16.4507 21.7945 11.7353 21.818C7.01985 21.8414 3.20288 22.663 3.20981 23.6531C3.21674 24.6432 7.04495 25.4268 11.7603 25.4034Z" fill="#0F0A26"/>
<path opacity="0.0784" d="M11.7665 25.3741C16.4176 25.351 20.1825 24.5406 20.1756 23.564C20.1688 22.5875 16.3928 21.8146 11.7418 21.8377C7.09073 21.8608 3.32585 22.6712 3.33269 23.6478C3.33953 24.6244 7.11549 25.3973 11.7665 25.3741Z" fill="#0F0A26"/>
<path opacity="0.098" d="M11.7727 25.3449C16.3594 25.3221 20.0722 24.5229 20.0655 23.5599C20.0587 22.5968 16.335 21.8346 11.7483 21.8574C7.16161 21.8803 3.44882 22.6794 3.45557 23.6425C3.46231 24.6055 7.18603 25.3678 11.7727 25.3449Z" fill="#0F0A26"/>
<path opacity="0.1176" d="M11.7799 25.3157C16.3022 25.2933 19.9629 24.5053 19.9563 23.5557C19.9496 22.6062 16.2782 21.8547 11.7558 21.8772C7.23347 21.8996 3.57277 22.6876 3.57942 23.6372C3.58606 24.5867 7.25754 25.3382 11.7799 25.3157Z" fill="#0F0A26"/>
<path opacity="0.1373" d="M11.7851 25.2865C16.2431 25.2644 19.8517 24.4876 19.8451 23.5516C19.8386 22.6155 16.2193 21.8747 11.7614 21.8969C7.30337 21.919 3.69476 22.6958 3.70132 23.6318C3.70787 24.5679 7.32709 25.3087 11.7851 25.2865Z" fill="#0F0A26"/>
<path opacity="0.1569" d="M11.7913 25.2573C16.1849 25.2355 19.7414 24.4699 19.735 23.5474C19.7285 22.6249 16.1615 21.8947 11.7679 21.9166C7.37425 21.9384 3.81773 22.704 3.82419 23.6265C3.83065 24.549 7.39764 25.2792 11.7913 25.2573Z" fill="#0F0A26"/>
<path opacity="0.1765" d="M11.7975 25.2281C16.1267 25.2066 19.6312 24.4522 19.6248 23.5432C19.6184 22.6342 16.1037 21.9148 11.7744 21.9363C7.44513 21.9579 3.94071 22.7122 3.94707 23.6212C3.95343 24.5302 7.46817 25.2496 11.7975 25.2281Z" fill="#0F0A26"/>
<path opacity="0.1961" d="M11.8017 25.1989C16.0666 25.1777 19.519 24.4346 19.5127 23.5391C19.5064 22.6436 16.0439 21.9348 11.779 21.9561C7.51405 21.9773 4.06172 22.7204 4.06799 23.6159C4.07426 24.5114 7.53675 25.2201 11.8017 25.1989Z" fill="#0F0A26"/>
<path opacity="0.2157" d="M11.8089 25.1697C16.0094 25.1488 19.4097 24.4169 19.4035 23.5349C19.3973 22.6529 15.9871 21.9549 11.7865 21.9758C7.58591 21.9967 4.18567 22.7286 4.19184 23.6106C4.19802 24.4926 7.60827 25.1906 11.8089 25.1697Z" fill="#0F0A26"/>
<path opacity="0.2353" d="M11.815 25.1405C15.9513 25.12 19.2994 24.3993 19.2933 23.5308C19.2873 22.6623 15.9293 21.975 11.793 21.9955C7.65679 22.0161 4.30864 22.7368 4.31472 23.6053C4.3208 24.4738 7.6788 25.1611 11.815 25.1405Z" fill="#0F0A26"/>
<path opacity="0.2549" d="M11.8232 25.1113C15.8951 25.0911 19.1911 24.3816 19.1852 23.5266C19.1792 22.6717 15.8734 21.995 11.8015 22.0152C7.72963 22.0355 4.43356 22.745 4.43955 23.5999C4.44553 24.4549 7.7513 25.1316 11.8232 25.1113Z" fill="#0F0A26"/>
<path opacity="0.2745" d="M11.8274 25.0821C15.8349 25.0622 19.0789 24.3639 19.073 23.5225C19.0671 22.681 15.8136 22.015 11.8061 22.035C7.79855 22.0549 4.55458 22.7532 4.56047 23.5946C4.56636 24.4361 7.81988 25.1021 11.8274 25.0821Z" fill="#0F0A26"/>
<path opacity="0.2941" d="M11.8326 25.0529C15.7758 25.0333 18.9677 24.3462 18.9619 23.5183C18.9561 22.6904 15.7548 22.0351 11.8116 22.0547C7.86845 22.0743 4.67657 22.7614 4.68237 23.5893C4.68816 24.4172 7.88944 25.0725 11.8326 25.0529Z" fill="#0F0A26"/>
<path opacity="0.3137" d="M11.8398 25.0237C15.7186 25.0044 18.8584 24.3286 18.8527 23.5141C18.847 22.6997 15.698 22.0551 11.8191 22.0744C7.94031 22.0937 4.80052 22.7696 4.80622 23.584C4.81192 24.3984 7.96096 25.043 11.8398 25.0237Z" fill="#0F0A26"/>
<path opacity="0.3333" d="M11.845 24.9945C15.6595 24.9755 18.7472 24.3109 18.7416 23.51C18.736 22.7091 15.6392 22.0752 11.8247 22.0941C8.01021 22.1131 4.92251 22.7777 4.92812 23.5787C4.93373 24.3796 8.03052 25.0135 11.845 24.9945Z" fill="#0F0A26"/>
<path opacity="0.3529" d="M11.8521 24.9653C15.6023 24.9467 18.6379 24.2932 18.6324 23.5058C18.6269 22.7184 15.5823 22.0952 11.8322 22.1139C8.08207 22.1325 5.04646 22.7859 5.05197 23.5733C5.05748 24.3608 8.10203 24.984 11.8521 24.9653Z" fill="#0F0A26"/>
<path opacity="0.3725" d="M11.8583 24.9361C15.5441 24.9178 18.5276 24.2755 18.5222 23.5017C18.5168 22.7278 15.5245 22.1153 11.8387 22.1336C8.15295 22.1519 5.16943 22.7941 5.17485 23.568C5.18027 24.3419 8.17257 24.9544 11.8583 24.9361Z" fill="#0F0A26"/>
<path opacity="0.3922" d="M11.8626 24.9069C15.484 24.8889 18.4154 24.2579 18.4101 23.4975C18.4048 22.7371 15.4647 22.1353 11.8433 22.1533C8.22188 22.1713 5.29045 22.8023 5.29577 23.5627C5.30109 24.3231 8.24115 24.9249 11.8626 24.9069Z" fill="#0F0A26"/>
<path opacity="0.4118" d="M11.8697 24.8777C15.4268 24.86 18.3062 24.2402 18.3009 23.4933C18.2957 22.7465 15.4079 22.1553 11.8508 22.173C8.29374 22.1907 5.41439 22.8105 5.41962 23.5574C5.42485 24.3043 8.31267 24.8954 11.8697 24.8777Z" fill="#0F0A26"/>
<path opacity="0.4314" d="M11.8759 24.8485C15.3686 24.8311 18.1959 24.2226 18.1908 23.4892C18.1856 22.7558 15.3501 22.1754 11.8573 22.1928C8.36461 22.2101 5.53736 22.8187 5.5425 23.5521C5.54763 24.2855 8.3832 24.8659 11.8759 24.8485Z" fill="#0F0A26"/>
<path opacity="0.451" d="M11.8821 24.8193C15.3105 24.8022 18.0856 24.2049 18.0806 23.485C18.0755 22.7652 15.2922 22.1955 11.8639 22.2125C8.43549 22.2295 5.66033 22.8269 5.66537 23.5468C5.67041 24.2666 8.45374 24.8363 11.8821 24.8193Z" fill="#0F0A26"/>
<path opacity="0.4706" d="M11.8883 24.7901C15.2523 24.7734 17.9754 24.1872 17.9704 23.4809C17.9655 22.7745 15.2344 22.2155 11.8704 22.2322C8.50638 22.249 5.78331 22.8351 5.78825 23.5415C5.79319 24.2478 8.52428 24.8068 11.8883 24.7901Z" fill="#0F0A26"/>
<path opacity="0.4902" d="M11.8955 24.7609C15.1951 24.7445 17.8661 24.1695 17.8613 23.4767C17.8564 22.7839 15.1776 22.2355 11.8779 22.252C8.57823 22.2684 5.90725 22.8433 5.9121 23.5361C5.91695 24.229 8.59579 24.7773 11.8955 24.7609Z" fill="#0F0A26"/>
<path opacity="0.5098" d="M11.8997 24.7317C15.135 24.7156 17.7539 24.1519 17.7491 23.4726C17.7444 22.7932 15.1178 22.2556 11.8825 22.2717C8.64715 22.2878 6.02827 22.8515 6.03302 23.5308C6.03778 24.2101 8.66437 24.7478 11.8997 24.7317Z" fill="#0F0A26"/>
<path opacity="0.5294" d="M11.9059 24.7025C15.0768 24.6867 17.6436 24.1342 17.639 23.4684C17.6343 22.8026 15.06 22.2756 11.889 22.2914C8.71804 22.3072 6.15124 22.8597 6.1559 23.5255C6.16056 24.1913 8.73492 24.7183 11.9059 24.7025Z" fill="#0F0A26"/>
<path opacity="0.549" d="M11.913 24.6733C15.0196 24.6578 17.5344 24.1165 17.5298 23.4642C17.5252 22.8119 15.0031 22.2957 11.8965 22.3111C8.78989 22.3266 6.27519 22.8679 6.27975 23.5202C6.28432 24.1725 8.80643 24.6887 11.913 24.6733Z" fill="#0F0A26"/>
<path opacity="0.5686" d="M11.9173 24.6441C14.9595 24.6289 17.4222 24.0988 17.4177 23.4601C17.4132 22.8213 14.9434 22.3157 11.9011 22.3308C8.85882 22.346 6.3962 22.8761 6.40067 23.5149C6.40515 24.1536 8.87502 24.6592 11.9173 24.6441Z" fill="#0F0A26"/>
<path opacity="0.5882" d="M11.9254 24.6149C14.9033 24.6001 17.3138 24.0812 17.3095 23.4559C17.3051 22.8306 14.8875 22.3358 11.9096 22.3506C8.93165 22.3654 6.52113 22.8843 6.5255 23.5095C6.52988 24.1348 8.9475 24.6297 11.9254 24.6149Z" fill="#0F0A26"/>
<path opacity="0.6078" d="M11.9316 24.5857C14.8451 24.5712 17.2036 24.0635 17.1993 23.4518C17.195 22.84 14.8296 22.3558 11.9161 22.3703C9.00253 22.3848 6.6441 22.8925 6.64838 23.5042C6.65266 24.116 9.01804 24.6002 11.9316 24.5857Z" fill="#0F0A26"/>
<path opacity="0.6275" d="M11.9349 24.5565C14.7841 24.5423 17.0904 24.0459 17.0862 23.4476C17.082 22.8494 14.7689 22.3759 11.9197 22.39C9.07048 22.4042 6.76414 22.9007 6.76832 23.4989C6.77251 24.0972 9.08565 24.5707 11.9349 24.5565Z" fill="#0F0A26"/>
<path opacity="0.6471" d="M11.942 24.5273C14.7269 24.5134 16.9811 24.0282 16.977 23.4434C16.9729 22.8587 14.712 22.3959 11.9272 22.4098C9.14234 22.4236 6.88808 22.9088 6.89218 23.4936C6.89627 24.0783 9.15716 24.5411 11.942 24.5273Z" fill="#0F0A26"/>
<path opacity="0.6667" d="M11.9482 24.4981C14.6687 24.4845 16.8709 24.0105 16.8669 23.4393C16.8629 22.8681 14.6542 22.416 11.9337 22.4295C9.21322 22.443 7.01105 22.9171 7.01505 23.4883C7.01905 24.0595 9.2277 24.5116 11.9482 24.4981Z" fill="#0F0A26"/>
<path opacity="0.6863" d="M11.9563 24.4689C14.6125 24.4557 16.7626 23.9928 16.7587 23.4351C16.7548 22.8774 14.5984 22.436 11.9422 22.4492C9.28605 22.4624 7.13598 22.9252 7.13988 23.483C7.14379 24.0407 9.30019 24.4821 11.9563 24.4689Z" fill="#0F0A26"/>
<path opacity="0.7059" d="M11.9606 24.4397C14.5524 24.4268 16.6503 23.9752 16.6465 23.431C16.6427 22.8868 14.5386 22.456 11.9468 22.4689C9.35498 22.4818 7.25699 22.9334 7.2608 23.4776C7.26461 24.0218 9.36877 24.4526 11.9606 24.4397Z" fill="#0F0A26"/>
<path opacity="0.7255" d="M11.9668 24.4105C14.4942 24.3979 16.5401 23.9575 16.5364 23.4268C16.5327 22.8961 14.4808 22.4761 11.9533 22.4886C9.42586 22.5012 7.37996 22.9416 7.38368 23.4723C7.38739 24.003 9.43931 24.423 11.9668 24.4105Z" fill="#0F0A26"/>
<path opacity="0.7451" d="M11.972 24.3813C14.4351 24.369 16.4289 23.9398 16.4252 23.4226C16.4216 22.9055 14.422 22.4961 11.9589 22.5084C9.49576 22.5206 7.50196 22.9498 7.50558 23.467C7.5092 23.9842 9.50887 24.3935 11.972 24.3813Z" fill="#0F0A26"/>
<path opacity="0.7647" d="M11.9781 24.3521C14.3769 24.3401 16.3186 23.9222 16.3151 23.4185C16.3115 22.9148 14.3641 22.5162 11.9654 22.5281C9.56664 22.5401 7.62493 22.958 7.62845 23.4617C7.63198 23.9654 9.5794 24.364 11.9781 24.3521Z" fill="#0F0A26"/>
<path opacity="0.7843" d="M11.9853 24.3229C14.3197 24.3112 16.2093 23.9045 16.2059 23.4143C16.2025 22.9242 14.3073 22.5362 11.9729 22.5478C9.6385 22.5594 7.74888 22.9662 7.75231 23.4564C7.75574 23.9465 9.65092 24.3345 11.9853 24.3229Z" fill="#0F0A26"/>
<path opacity="0.8039" d="M11.9915 24.2937C14.2615 24.2824 16.0991 23.8868 16.0957 23.4102C16.0924 22.9335 14.2495 22.5563 11.9794 22.5676C9.70937 22.5789 7.87185 22.9744 7.87518 23.4511C7.87852 23.9277 9.72146 24.305 11.9915 24.2937Z" fill="#0F0A26"/>
<path opacity="0.8235" d="M11.9977 24.2645C14.2034 24.2535 15.9888 23.8692 15.9856 23.406C15.9824 22.9429 14.1917 22.5763 11.986 22.5873C9.78026 22.5983 7.99482 22.9826 7.99806 23.4458C8.0013 23.9089 9.792 24.2754 11.9977 24.2645Z" fill="#0F0A26"/>
<path opacity="0.8431" d="M12.0029 24.2352C14.1442 24.2246 15.8776 23.8515 15.8745 23.4019C15.8713 22.9522 14.1328 22.5964 11.9915 22.607C9.85016 22.6177 8.11681 22.9908 8.11996 23.4404C8.1231 23.89 9.86156 24.2459 12.0029 24.2352Z" fill="#0F0A26"/>
<path opacity="0.8627" d="M12.0081 24.206C14.0851 24.1957 15.7664 23.8338 15.7633 23.3977C15.7602 22.9616 14.074 22.6164 11.997 22.6267C9.92006 22.6371 8.2388 22.999 8.24186 23.4351C8.24491 23.8712 9.93112 24.2164 12.0081 24.206Z" fill="#0F0A26"/>
<path opacity="0.8824" d="M12.0153 24.1768C14.0279 24.1668 15.6571 23.8161 15.6541 23.3935C15.6512 22.9709 14.0172 22.6365 12.0046 22.6465C9.99192 22.6565 8.36275 23.0072 8.36571 23.4298C8.36867 23.8524 10.0026 24.1869 12.0153 24.1768Z" fill="#0F0A26"/>
<path opacity="0.902" d="M12.0215 24.1476C13.9697 24.138 15.5468 23.7985 15.544 23.3894C15.5411 22.9803 13.9594 22.6565 12.0111 22.6662C10.0628 22.6759 8.48572 23.0154 8.48858 23.4245C8.49145 23.8336 10.0732 24.1573 12.0215 24.1476Z" fill="#0F0A26"/>
<path opacity="0.9216" d="M12.0286 24.1184C13.9125 24.1091 15.4375 23.7808 15.4348 23.3852C15.432 22.9896 13.9025 22.6766 12.0186 22.6859C10.1347 22.6953 8.60967 23.0236 8.61244 23.4191C8.6152 23.8147 10.1447 24.1278 12.0286 24.1184Z" fill="#0F0A26"/>
<path opacity="0.9412" d="M12.0338 24.0892C13.8534 24.0802 15.3263 23.7631 15.3236 23.3811C15.321 22.999 13.8437 22.6966 12.0241 22.7057C10.2046 22.7147 8.73166 23.0318 8.73433 23.4138C8.73701 23.7959 10.2142 24.0983 12.0338 24.0892Z" fill="#0F0A26"/>
<path opacity="0.9608" d="M12.04 24.06C13.7952 24.0513 15.2161 23.7454 15.2135 23.3769C15.2109 23.0083 13.7859 22.7166 12.0307 22.7254C10.2754 22.7341 8.85463 23.0399 8.85721 23.4085C8.85979 23.7771 10.2848 24.0688 12.04 24.06Z" fill="#0F0A26"/>
<path opacity="0.9804" d="M12.0462 24.0308C13.7371 24.0224 15.1058 23.7278 15.1033 23.3727C15.1008 23.0177 13.7281 22.7367 12.0372 22.7451C10.3463 22.7535 8.9776 23.0482 8.98009 23.4032C8.98257 23.7582 10.3553 24.0393 12.0462 24.0308Z" fill="#0F0A26"/>
<path d="M12.0504 24.0016C13.677 23.9936 14.9936 23.7101 14.9912 23.3686C14.9888 23.0271 13.6683 22.7567 12.0418 22.7648C10.4152 22.7729 9.09862 23.0563 9.10101 23.3979C9.1034 23.7394 10.4239 24.0097 12.0504 24.0016Z" fill="#0F0A26"/>
</g>
<path d="M22.1232 8.73295C22.0817 8.88793 21.9749 9.02286 21.7971 9.11782L19.425 10.4024C18.749 10.7672 17.8892 10.7922 17.1894 10.4623L11.7812 7.94327L16.3296 5.48415L21.7496 8.01327C22.0757 8.16319 22.2003 8.46807 22.1232 8.73295Z" fill="url(#paint0_linear_5937_26047)"/>
<path d="M17.9476 10.6722V24.0424C17.2656 24.1923 16.5244 24.1223 15.8958 23.8225L6.03418 19.1692V9.04288L11.7804 7.94328L17.1885 10.4623C17.4258 10.5773 17.6867 10.6473 17.9476 10.6722Z" fill="url(#paint1_linear_5937_26047)"/>
<path d="M6.03418 9.04286L11.7804 7.94326L16.3368 5.50502L10.5906 6.60462L6.03418 9.04286Z" fill="url(#paint2_linear_5937_26047)"/>
<path d="M22.122 8.73294V21.4883C22.122 21.9082 21.8492 22.293 21.4163 22.4979L18.5877 23.8274C18.3861 23.9224 18.1667 23.9924 17.9473 24.0423V10.6722C18.4513 10.7372 18.9791 10.6423 19.4238 10.4023L21.7958 9.11781C21.9737 9.02285 22.0805 8.88792 22.122 8.73294Z" fill="url(#paint3_linear_5937_26047)"/>
<path d="M21.7487 8.01327L16.3287 5.48415L16.2645 5.51884L10.5906 6.60463L6.03418 9.04288L11.7804 7.94329L17.1885 10.4624C17.8883 10.7922 18.7481 10.7672 19.4242 10.4024L21.7962 9.11783C21.974 9.02286 22.0808 8.88793 22.1223 8.73297C22.1994 8.46808 22.0749 8.1632 21.7487 8.01327Z" fill="url(#paint4_linear_5937_26047)"/>
<path d="M18.2441 10.4814C17.9178 10.4814 17.5952 10.4106 17.3114 10.2769L11.8181 7.71802L7.40039 8.56365L10.6888 6.8038L16.3247 5.72533L21.6264 8.19928C21.8641 8.30861 21.9229 8.52607 21.8771 8.68226C21.8476 8.79256 21.7755 8.87725 21.6611 8.93826L19.2877 10.2234C18.9752 10.3921 18.6142 10.4814 18.2441 10.4814Z" fill="#D87216"/>
<path d="M19.2154 17.4154L21.4444 16.2299C21.6116 16.141 21.713 15.9861 21.713 15.8195V10.4984C21.713 10.3549 21.5253 10.2676 21.3812 10.3442L19.0439 11.5873C18.8755 11.6768 18.7734 11.8329 18.7734 12.0007V17.2099C18.7734 17.4012 19.0235 17.5174 19.2154 17.4154Z" fill="url(#paint5_linear_5937_26047)"/>
<path d="M21.6475 19.694C21.6475 20.3088 21.0545 21.0935 20.3251 21.4483C19.7736 21.7132 19.3051 21.6633 19.1035 21.3534C19.3289 21.3984 19.6194 21.3534 19.9337 21.1984C20.6631 20.8486 21.2561 20.0589 21.2561 19.4441C21.2561 19.2892 21.2205 19.1642 21.1553 19.0642C21.4577 19.1242 21.6475 19.3441 21.6475 19.694Z" fill="#D87216"/>
<path d="M21.2554 19.4441C21.2554 20.0588 20.6624 20.8486 19.933 21.1984C19.6187 21.3533 19.3281 21.3983 19.1028 21.3533C19.0375 21.2534 19.002 21.1284 19.002 20.9735C19.002 20.3587 19.595 19.569 20.3244 19.2191C20.6386 19.0642 20.9292 19.0192 21.1545 19.0642C21.2198 19.1642 21.2554 19.2891 21.2554 19.4441Z" fill="url(#paint6_linear_5937_26047)"/>
<path d="M21.3078 11.3916L19.1771 12.5379C19.1372 12.5594 19.1045 12.5495 19.1045 12.5158C19.1045 12.4821 19.1372 12.437 19.1771 12.4155L21.3078 11.2692C21.3478 11.2477 21.3804 11.2577 21.3804 11.2913C21.3804 11.325 21.3477 11.3701 21.3078 11.3916Z" fill="#7C83BC"/>
<path d="M21.3078 11.6909L19.1771 12.8372C19.1372 12.8587 19.1045 12.8488 19.1045 12.8151C19.1045 12.7814 19.1372 12.7363 19.1771 12.7148L21.3078 11.5685C21.3478 11.547 21.3804 11.557 21.3804 11.5906C21.3804 11.6243 21.3477 11.6695 21.3078 11.6909Z" fill="#7C83BC"/>
<path d="M21.3078 11.9903L19.1771 13.1366C19.1372 13.158 19.1045 13.1481 19.1045 13.1144C19.1045 13.0807 19.1372 13.0356 19.1771 13.0141L21.3078 11.8678C21.3478 11.8463 21.3804 11.8563 21.3804 11.8899C21.3804 11.9236 21.3477 11.9688 21.3078 11.9903Z" fill="#7C83BC"/>
<path d="M21.3078 12.2896L19.1771 13.4359C19.1372 13.4573 19.1045 13.4474 19.1045 13.4137C19.1045 13.3801 19.1372 13.3349 19.1771 13.3134L21.3078 12.1671C21.3478 12.1456 21.3804 12.1556 21.3804 12.1893C21.3804 12.2229 21.3477 12.2681 21.3078 12.2896Z" fill="#7C83BC"/>
<path d="M21.3078 12.5889L19.1771 13.7352C19.1372 13.7567 19.1045 13.7467 19.1045 13.7131C19.1045 13.6794 19.1372 13.6342 19.1771 13.6127L21.3078 12.4665C21.3478 12.445 21.3804 12.4549 21.3804 12.4886C21.3804 12.5223 21.3477 12.5674 21.3078 12.5889Z" fill="#7C83BC"/>
<path d="M21.3078 13.2817L19.1771 14.428C19.1372 14.4495 19.1045 14.4396 19.1045 14.4059C19.1045 14.3722 19.1372 14.3271 19.1771 14.3056L21.3078 13.1593C21.3478 13.1378 21.3804 13.1478 21.3804 13.1815C21.3804 13.2151 21.3477 13.2602 21.3078 13.2817Z" fill="#7C83BC"/>
<path d="M21.3078 13.5811L19.1771 14.7274C19.1372 14.7488 19.1045 14.7389 19.1045 14.7052C19.1045 14.6715 19.1372 14.6264 19.1771 14.6049L21.3078 13.4586C21.3478 13.4371 21.3804 13.4471 21.3804 13.4808C21.3804 13.5144 21.3477 13.5596 21.3078 13.5811Z" fill="#7C83BC"/>
<path d="M21.3078 13.8804L19.1771 15.0267C19.1372 15.0481 19.1045 15.0382 19.1045 15.0045C19.1045 14.9708 19.1372 14.9257 19.1771 14.9042L21.3078 13.7579C21.3478 13.7364 21.3804 13.7464 21.3804 13.7801C21.3804 13.8137 21.3477 13.8589 21.3078 13.8804Z" fill="#7C83BC"/>
<path d="M21.3078 14.1797L19.1771 15.3259C19.1372 15.3474 19.1045 15.3375 19.1045 15.3038C19.1045 15.2701 19.1372 15.225 19.1771 15.2035L21.3078 14.0572C21.3478 14.0357 21.3804 14.0457 21.3804 14.0794C21.3804 14.113 21.3477 14.1582 21.3078 14.1797Z" fill="#7C83BC"/>
<path d="M21.3078 14.479L19.1771 15.6253C19.1372 15.6468 19.1045 15.6368 19.1045 15.6031C19.1045 15.5695 19.1372 15.5243 19.1771 15.5028L21.3078 14.3565C21.3478 14.3351 21.3804 14.345 21.3804 14.3787C21.3804 14.4124 21.3477 14.4575 21.3078 14.479Z" fill="#7C83BC"/>
<path d="M21.3078 15.5191L19.1771 16.6654C19.1372 16.6869 19.1045 16.6769 19.1045 16.6432C19.1045 16.6096 19.1372 16.5644 19.1771 16.5429L21.3078 15.3966C21.3478 15.3752 21.3804 15.3851 21.3804 15.4188C21.3804 15.4525 21.3477 15.4976 21.3078 15.5191Z" fill="#7C83BC"/>
<mask id="mask0_5937_26047" style="mask-type:luminance" maskUnits="userSpaceOnUse" x="7" y="0" width="15" height="11">
<path d="M18.2441 10.4813C17.9178 10.4813 17.5952 10.4105 17.3114 10.2768L11.8181 7.71789L7.40039 8.56353L8.43825 0.259697L19.7484 5.63186L21.6264 8.19915C21.8641 8.30848 21.9229 8.52594 21.8771 8.68213C21.8476 8.79244 21.7755 8.87713 21.6611 8.93814L19.2877 10.2233C18.9752 10.392 18.6142 10.4813 18.2441 10.4813Z" fill="white"/>
</mask>
<g mask="url(#mask0_5937_26047)">
<path d="M9.76278 13.9932L17.9356 17.8317C18.4596 18.0778 19.1045 17.7585 19.1045 17.2529V6.2698C19.1045 5.85632 18.8388 5.47525 18.4103 5.274L10.0653 1.35469C9.54086 1.10838 8.89551 1.42797 8.89551 1.934V12.7491C8.89554 13.2657 9.2274 13.7418 9.76278 13.9932Z" fill="#D87216"/>
<path d="M9.30087 14.1992L17.4737 18.0376C17.9977 18.2837 18.6425 17.9644 18.6425 17.4588V6.47574C18.6425 6.06225 18.3769 5.68119 17.9484 5.47993L9.60341 1.56062C9.07895 1.31431 8.43359 1.6339 8.43359 2.13993V12.9551C8.43361 13.4716 8.76549 13.9477 9.30087 14.1992Z" fill="url(#paint7_linear_5937_26047)"/>
<path d="M17.8558 17.6973C17.8092 17.6973 17.7634 17.687 17.7194 17.6663L9.54682 13.8281C9.17156 13.6516 8.93848 13.317 8.93848 12.9551V2.13996C8.93848 1.99231 9.08557 1.90079 9.22195 1.90079C9.26856 1.90079 9.31462 1.91129 9.35833 1.9318L17.7032 5.85126C17.9719 5.97743 18.1387 6.21661 18.1387 6.47579V17.4588C18.1387 17.543 18.0929 17.5977 18.0544 17.6287C18.0006 17.6724 17.9282 17.6973 17.8558 17.6973Z" fill="url(#paint8_linear_5937_26047)"/>
<path d="M17.4344 7.22568L12.2859 4.88795C12.2093 4.85313 12.1465 4.77174 12.1465 4.7071V4.64942C12.1465 4.58478 12.2092 4.56038 12.2859 4.5952L17.4344 6.93293C17.5111 6.96775 17.5739 7.04914 17.5739 7.11377V7.17146C17.5739 7.23611 17.5111 7.26051 17.4344 7.22568Z" fill="#C1C4E0"/>
<path d="M17.4344 7.98639L12.2859 5.64866C12.2093 5.61384 12.1465 5.53245 12.1465 5.46781V5.41013C12.1465 5.34549 12.2092 5.32109 12.2859 5.35591L17.4344 7.69364C17.5111 7.72846 17.5739 7.80985 17.5739 7.87449V7.93217C17.5739 7.99681 17.5111 8.02121 17.4344 7.98639Z" fill="#C1C4E0"/>
<path d="M17.4344 8.74708L12.2859 6.40935C12.2093 6.37453 12.1465 6.29314 12.1465 6.2285V6.17082C12.1465 6.10617 12.2092 6.08178 12.2859 6.1166L17.4344 8.45433C17.5111 8.48915 17.5739 8.57054 17.5739 8.63518V8.69286C17.5739 8.75751 17.5111 8.78192 17.4344 8.74708Z" fill="#C1C4E0"/>
<path d="M17.4044 9.49386L9.67203 5.98288C9.57848 5.94041 9.50195 5.84116 9.50195 5.76232V5.75625C9.50195 5.67741 9.57848 5.64767 9.67203 5.69014L17.4044 9.20111C17.4979 9.24358 17.5745 9.34283 17.5745 9.42168V9.42774C17.5745 9.50659 17.498 9.53633 17.4044 9.49386Z" fill="#C1C4E0"/>
<path d="M17.4044 10.2546L9.67203 6.7436C9.57848 6.70113 9.50195 6.60188 9.50195 6.52303V6.51696C9.50195 6.43812 9.57848 6.40838 9.67203 6.45085L17.4044 9.96182C17.4979 10.0043 17.5745 10.1035 17.5745 10.1824V10.1885C17.5745 10.2673 17.498 10.297 17.4044 10.2546Z" fill="#C1C4E0"/>
<path d="M17.4044 11.0153L9.67203 7.50429C9.57848 7.46182 9.50195 7.36257 9.50195 7.28373V7.27766C9.50195 7.19882 9.57848 7.16907 9.67203 7.21154L17.4044 10.7225C17.4979 10.765 17.5745 10.8642 17.5745 10.9431V10.9492C17.5745 11.028 17.498 11.0577 17.4044 11.0153Z" fill="#C1C4E0"/>
<path d="M15.9705 11.1249L9.656 8.25773C9.57127 8.21925 9.50195 8.12935 9.50195 8.05795V8.02487C9.50195 7.95345 9.57127 7.9265 9.656 7.96498L15.9705 10.8322C16.0552 10.8706 16.1246 10.9605 16.1246 11.0319V11.065C16.1246 11.1364 16.0552 11.1634 15.9705 11.1249Z" fill="#C1C4E0"/>
<path d="M17.4044 13.092L9.67203 9.58101C9.57848 9.53854 9.50195 9.43929 9.50195 9.36045V9.35438C9.50195 9.27554 9.57848 9.24579 9.67203 9.28826L17.4044 12.7992C17.4979 12.8417 17.5745 12.941 17.5745 13.0198V13.0259C17.5745 13.1047 17.498 13.1345 17.4044 13.092Z" fill="#C1C4E0"/>
<path d="M17.4044 13.8527L9.67203 10.3417C9.57848 10.2992 9.50195 10.2 9.50195 10.1211V10.1151C9.50195 10.0362 9.57848 10.0065 9.67203 10.0489L17.4044 13.5599C17.4979 13.6024 17.5745 13.7016 17.5745 13.7805V13.7866C17.5745 13.8654 17.498 13.8951 17.4044 13.8527Z" fill="#C1C4E0"/>
<path d="M9.75374 3.37383L11.5461 4.18768C11.6852 4.25082 11.7979 4.39702 11.7979 4.51422V5.97528C11.7979 6.09249 11.6852 6.13631 11.5461 6.07317L9.75374 5.25932C9.61467 5.19618 9.50195 5.04997 9.50195 4.93277V3.47172C9.50195 3.35452 9.61469 3.31069 9.75374 3.37383Z" fill="#C1C4E0"/>
<path d="M10.3748 4.84616L10.2172 5.1939L10.0146 5.10195L10.5301 4.00265L10.7663 4.1099L11.284 5.67833L11.0747 5.5833L10.9127 5.0904L10.3748 4.84616ZM10.8722 4.93741L10.7235 4.48614C10.6898 4.38371 10.6673 4.29438 10.6449 4.2071L10.6402 4.20498C10.6178 4.27391 10.593 4.34385 10.5638 4.41156L10.4152 4.72993L10.8722 4.93741Z" fill="url(#paint9_linear_5937_26047)"/>
</g>
<path d="M16.6622 11.5275C16.6207 11.6825 16.514 11.8174 16.3361 11.9124L13.9641 13.1969C13.2881 13.5618 12.4282 13.5868 11.7285 13.2569L6.32031 10.7378L10.8687 8.27869L16.2887 10.8078C16.6148 10.9577 16.7393 11.2626 16.6622 11.5275Z" fill="url(#paint10_linear_5937_26047)"/>
<path d="M12.4867 13.4668V26.8369C11.8047 26.9869 11.0635 26.9169 10.4349 26.617L0.573242 21.9637V11.8374L6.31942 10.7378L11.7276 13.2569C11.9648 13.3718 12.2257 13.4418 12.4867 13.4668Z" fill="url(#paint11_linear_5937_26047)"/>
<path d="M0.573242 11.8374L6.31944 10.7378L10.8759 8.29954L5.12969 9.39915L0.573242 11.8374Z" fill="url(#paint12_linear_5937_26047)"/>
<path d="M16.661 11.5275V24.2828C16.661 24.7027 16.3883 25.0875 15.9554 25.2925L13.1268 26.622C12.9251 26.7169 12.7057 26.7869 12.4863 26.8369V13.4668C12.9904 13.5317 13.5181 13.4368 13.9629 13.1969L16.3349 11.9123C16.5128 11.8174 16.6195 11.6825 16.661 11.5275Z" fill="url(#paint13_linear_5937_26047)"/>
<path d="M16.2878 10.8078L10.8678 8.27869L10.8036 8.31338L5.12969 9.39917L0.573242 11.8374L6.31942 10.7378L11.7276 13.2569C12.4273 13.5868 13.2872 13.5618 13.9632 13.1969L16.3352 11.9124C16.5131 11.8174 16.6199 11.6825 16.6614 11.5275C16.7384 11.2626 16.6139 10.9577 16.2878 10.8078Z" fill="url(#paint14_linear_5937_26047)"/>
<path d="M12.7831 13.2759C12.4568 13.2759 12.1343 13.2051 11.8505 13.0714L6.35714 10.5125L1.93945 11.3582L5.22789 9.59832L10.8637 8.51985L16.1654 10.9938C16.4031 11.1031 16.4619 11.3206 16.4162 11.4768C16.3866 11.5871 16.3145 11.6718 16.2002 11.7328L13.8267 13.018C13.5143 13.1866 13.1532 13.2759 12.7831 13.2759Z" fill="#19296D"/>
<path d="M13.7545 20.2099L15.9835 19.0244C16.1506 18.9355 16.252 18.7806 16.252 18.614V13.293C16.252 13.1494 16.0643 13.0622 15.9203 13.1388L13.583 14.3818C13.4146 14.4714 13.3125 14.6274 13.3125 14.7953V20.0045C13.3125 20.1957 13.5626 20.312 13.7545 20.2099Z" fill="url(#paint15_linear_5937_26047)"/>
<path d="M16.1865 22.4885C16.1865 23.1033 15.5935 23.888 14.8642 24.2428C14.3127 24.5077 13.8442 24.4578 13.6426 24.1479C13.8679 24.1929 14.1585 24.1479 14.4728 23.9929C15.2022 23.6431 15.7952 22.8534 15.7952 22.2386C15.7952 22.0836 15.7596 21.9587 15.6943 21.8587C15.9968 21.9187 16.1865 22.1386 16.1865 22.4885Z" fill="#19296D"/>
<path d="M15.7944 22.2386C15.7944 22.8534 15.2014 23.6431 14.472 23.9929C14.1578 24.1479 13.8672 24.1929 13.6418 24.1479C13.5766 24.0479 13.541 23.923 13.541 23.768C13.541 23.1532 14.134 22.3636 14.8634 22.0137C15.1777 21.8587 15.4683 21.8137 15.6936 21.8587C15.7589 21.9587 15.7944 22.0837 15.7944 22.2386Z" fill="url(#paint16_linear_5937_26047)"/>
<path d="M15.8488 14.1862L13.7181 15.3325C13.6782 15.354 13.6455 15.344 13.6455 15.3104C13.6455 15.2767 13.6782 15.2315 13.7181 15.2101L15.8488 14.0638C15.8888 14.0423 15.9214 14.0522 15.9214 14.0859C15.9214 14.1196 15.8888 14.1647 15.8488 14.1862Z" fill="#7C83BC"/>
<path d="M15.8488 14.4855L13.7181 15.6318C13.6782 15.6533 13.6455 15.6434 13.6455 15.6097C13.6455 15.576 13.6782 15.5309 13.7181 15.5094L15.8488 14.3631C15.8888 14.3416 15.9214 14.3516 15.9214 14.3852C15.9214 14.4189 15.8888 14.464 15.8488 14.4855Z" fill="#7C83BC"/>
<path d="M15.8488 14.7848L13.7181 15.9311C13.6782 15.9526 13.6455 15.9426 13.6455 15.909C13.6455 15.8753 13.6782 15.8302 13.7181 15.8087L15.8488 14.6624C15.8888 14.6409 15.9214 14.6509 15.9214 14.6845C15.9214 14.7182 15.8888 14.7633 15.8488 14.7848Z" fill="#7C83BC"/>
<path d="M15.8488 15.0841L13.7181 16.2304C13.6782 16.2519 13.6455 16.2419 13.6455 16.2083C13.6455 16.1746 13.6782 16.1295 13.7181 16.108L15.8488 14.9617C15.8888 14.9402 15.9214 14.9502 15.9214 14.9838C15.9214 15.0175 15.8888 15.0626 15.8488 15.0841Z" fill="#7C83BC"/>
<path d="M15.8488 15.3834L13.7181 16.5297C13.6782 16.5512 13.6455 16.5413 13.6455 16.5076C13.6455 16.4739 13.6782 16.4288 13.7181 16.4073L15.8488 15.261C15.8888 15.2395 15.9214 15.2495 15.9214 15.2831C15.9214 15.3168 15.8888 15.3619 15.8488 15.3834Z" fill="#7C83BC"/>
<path d="M15.8488 16.0763L13.7181 17.2225C13.6782 17.244 13.6455 17.2341 13.6455 17.2004C13.6455 17.1667 13.6782 17.1216 13.7181 17.1001L15.8488 15.9538C15.8888 15.9323 15.9214 15.9423 15.9214 15.976C15.9214 16.0096 15.8888 16.0548 15.8488 16.0763Z" fill="#7C83BC"/>
<path d="M15.8488 16.3756L13.7181 17.5219C13.6782 17.5433 13.6455 17.5334 13.6455 17.4997C13.6455 17.4661 13.6782 17.4209 13.7181 17.3994L15.8488 16.2531C15.8888 16.2316 15.9214 16.2416 15.9214 16.2753C15.9214 16.3089 15.8888 16.3541 15.8488 16.3756Z" fill="#7C83BC"/>
<path d="M15.8488 16.6749L13.7181 17.8212C13.6782 17.8427 13.6455 17.8327 13.6455 17.799C13.6455 17.7654 13.6782 17.7202 13.7181 17.6987L15.8488 16.5524C15.8888 16.531 15.9214 16.5409 15.9214 16.5746C15.9214 16.6082 15.8888 16.6534 15.8488 16.6749Z" fill="#7C83BC"/>
<path d="M15.8488 16.9742L13.7181 18.1205C13.6782 18.142 13.6455 18.132 13.6455 18.0983C13.6455 18.0647 13.6782 18.0195 13.7181 17.998L15.8488 16.8517C15.8888 16.8303 15.9214 16.8402 15.9214 16.8739C15.9214 16.9076 15.8888 16.9527 15.8488 16.9742Z" fill="#7C83BC"/>
<path d="M15.8488 17.2735L13.7181 18.4198C13.6782 18.4413 13.6455 18.4313 13.6455 18.3976C13.6455 18.364 13.6782 18.3188 13.7181 18.2973L15.8488 17.1511C15.8888 17.1296 15.9214 17.1395 15.9214 17.1732C15.9214 17.2069 15.8888 17.252 15.8488 17.2735Z" fill="#7C83BC"/>
<path d="M15.8488 18.3136L13.7181 19.4599C13.6782 19.4814 13.6455 19.4714 13.6455 19.4377C13.6455 19.4041 13.6782 19.3589 13.7181 19.3374L15.8488 18.1911C15.8888 18.1696 15.9214 18.1796 15.9214 18.2133C15.9214 18.247 15.8888 18.2921 15.8488 18.3136Z" fill="#7C83BC"/>
<mask id="mask1_5937_26047" style="mask-type:luminance" maskUnits="userSpaceOnUse" x="1" y="3" width="16" height="11">
<path d="M12.7861 13.2759C12.4598 13.2759 12.1372 13.2051 11.8534 13.0714L6.36006 10.5125L1.94238 11.3581L2.98024 3.05429L14.2904 8.42646L16.1683 10.9937C16.4061 11.1031 16.4648 11.3205 16.4191 11.4767C16.3896 11.587 16.3175 11.6717 16.2031 11.7327L13.8296 13.0179C13.5172 13.1865 13.1561 13.2759 12.7861 13.2759Z" fill="white"/>
</mask>
<g mask="url(#mask1_5937_26047)">
<path d="M4.30378 16.7878L12.4766 20.6262C13.0006 20.8724 13.6455 20.553 13.6455 20.0474V9.06437C13.6455 8.6509 13.3798 8.26982 12.9513 8.06856L4.60632 4.14925C4.08186 3.90294 3.43652 4.22253 3.43652 4.72856V15.5437C3.43654 16.0603 3.7684 16.5363 4.30378 16.7878Z" fill="url(#paint17_linear_5937_26047)"/>
<path d="M3.84188 16.9937L12.0147 20.8322C12.5387 21.0783 13.1836 20.7589 13.1836 20.2533V9.27029C13.1836 8.85681 12.9179 8.47574 12.4894 8.27449L4.14443 4.35518C3.61997 4.10886 2.97461 4.42846 2.97461 4.93449V15.7496C2.97463 16.2662 3.3065 16.7423 3.84188 16.9937Z" fill="#7C83BC"/>
<path d="M12.3968 20.4918C12.3502 20.4918 12.3044 20.4816 12.2604 20.4608L4.08784 16.6226C3.71258 16.4462 3.47949 16.1116 3.47949 15.7497V4.93452C3.47949 4.78686 3.62658 4.69535 3.76297 4.69535C3.80958 4.69535 3.85561 4.70584 3.89935 4.72635L12.2442 8.64581C12.5129 8.77198 12.6797 9.01116 12.6797 9.27033V20.2534C12.6797 20.3376 12.634 20.3923 12.5955 20.4233C12.5416 20.4669 12.4692 20.4918 12.3968 20.4918Z" fill="url(#paint18_linear_5937_26047)"/>
<path d="M11.9755 10.0202L6.82695 7.68251C6.75025 7.64769 6.6875 7.5663 6.6875 7.50166V7.44398C6.6875 7.37932 6.75025 7.35494 6.82695 7.38976L11.9755 9.72749C12.0521 9.76231 12.1149 9.8437 12.1149 9.90833V9.96602C12.1149 10.0307 12.0522 10.0551 11.9755 10.0202Z" fill="#C1C4E0"/>
<path d="M11.9755 10.7809L6.82695 8.44319C6.75025 8.40837 6.6875 8.32698 6.6875 8.26234V8.20466C6.6875 8.14002 6.75025 8.11562 6.82695 8.15044L11.9755 10.4882C12.0521 10.523 12.1149 10.6044 12.1149 10.669V10.7267C12.1149 10.7914 12.0522 10.8158 11.9755 10.7809Z" fill="#C1C4E0"/>
<path d="M11.9755 11.5416L6.82695 9.2039C6.75025 9.16908 6.6875 9.08769 6.6875 9.02305V8.96537C6.6875 8.90073 6.75025 8.87633 6.82695 8.91115L11.9755 11.2489C12.0521 11.2837 12.1149 11.3651 12.1149 11.4297V11.4874C12.1149 11.5521 12.0522 11.5764 11.9755 11.5416Z" fill="#C1C4E0"/>
<path d="M11.9454 12.2884L4.21304 8.77744C4.1195 8.73497 4.04297 8.63572 4.04297 8.55688V8.55081C4.04297 8.47196 4.1195 8.44222 4.21304 8.48469L11.9454 11.9957C12.039 12.0381 12.1155 12.1374 12.1155 12.2162V12.2223C12.1155 12.3011 12.039 12.3309 11.9454 12.2884Z" fill="#C1C4E0"/>
<path d="M11.9454 13.0491L4.21304 9.53814C4.1195 9.49567 4.04297 9.39642 4.04297 9.31758V9.31151C4.04297 9.23267 4.1195 9.20292 4.21304 9.2454L11.9454 12.7564C12.039 12.7988 12.1155 12.8981 12.1155 12.9769V12.983C12.1155 13.0618 12.039 13.0916 11.9454 13.0491Z" fill="#C1C4E0"/>
<path d="M11.9454 13.8098L4.21304 10.2988C4.1195 10.2564 4.04297 10.1571 4.04297 10.0783V10.0722C4.04297 9.99336 4.1195 9.96362 4.21304 10.0061L11.9454 13.5171C12.039 13.5595 12.1155 13.6588 12.1155 13.7376V13.7437C12.1155 13.8225 12.039 13.8523 11.9454 13.8098Z" fill="#C1C4E0"/>
<path d="M10.5115 13.9194L4.19701 11.0523C4.11228 11.0138 4.04297 10.9239 4.04297 10.8525V10.8194C4.04297 10.748 4.11228 10.721 4.19701 10.7595L10.5115 13.6267C10.5963 13.6652 10.6656 13.7551 10.6656 13.8265V13.8596C10.6656 13.931 10.5963 13.9579 10.5115 13.9194Z" fill="#C1C4E0"/>
<path d="M11.9454 15.8865L4.21304 12.3755C4.1195 12.3331 4.04297 12.2338 4.04297 12.155V12.1489C4.04297 12.0701 4.1195 12.0403 4.21304 12.0828L11.9454 15.5938C12.039 15.6362 12.1155 15.7355 12.1155 15.8143V15.8204C12.1155 15.8992 12.039 15.929 11.9454 15.8865Z" fill="#C1C4E0"/>
<path d="M11.9454 16.6472L4.21304 13.1362C4.1195 13.0938 4.04297 12.9945 4.04297 12.9157V12.9096C4.04297 12.8308 4.1195 12.801 4.21304 12.8435L11.9454 16.3545C12.039 16.3969 12.1155 16.4962 12.1155 16.575V16.5811C12.1155 16.6599 12.039 16.6897 11.9454 16.6472Z" fill="#C1C4E0"/>
<path d="M4.29475 6.16835L6.08714 6.98219C6.2262 7.04534 6.33892 7.19154 6.33892 7.30874V8.76979C6.33892 8.88699 6.22619 8.93083 6.08714 8.86768L4.29475 8.05384C4.15569 7.99069 4.04297 7.84449 4.04297 7.72729V6.26624C4.04297 6.14904 4.1557 6.10521 4.29475 6.16835Z" fill="#C1C4E0"/>
<path d="M4.9168 7.6407L4.75918 7.98843L4.55664 7.89648L5.07208 6.79718L5.30829 6.90444L5.82604 8.47286L5.61673 8.37783L5.45466 7.88494L4.9168 7.6407ZM5.41422 7.73194L5.2655 7.28068C5.23183 7.17824 5.20935 7.08891 5.1869 7.00163L5.18223 6.99951C5.15977 7.06844 5.13498 7.13838 5.10575 7.20609L4.95724 7.52446L5.41422 7.73194Z" fill="url(#paint19_linear_5937_26047)"/>
</g>
<defs>
<linearGradient id="paint0_linear_5937_26047" x1="22.0891" y1="12.4956" x2="16.0329" y2="5.23048" gradientUnits="userSpaceOnUse">
<stop stop-color="#9196C8"/>
<stop offset="1" stop-color="#2C3C91"/>
</linearGradient>
<linearGradient id="paint1_linear_5937_26047" x1="18.3791" y1="11.0273" x2="8.01644" y2="23.6208" gradientUnits="userSpaceOnUse">
<stop stop-color="#F58B21"/>
<stop offset="1" stop-color="#F5B419"/>
</linearGradient>
<linearGradient id="paint2_linear_5937_26047" x1="11.3315" y1="5.61295" x2="11.1005" y2="9.31265" gradientUnits="userSpaceOnUse">
<stop stop-color="#9196C8"/>
<stop offset="1" stop-color="#2C3C91"/>
</linearGradient>
<linearGradient id="paint3_linear_5937_26047" x1="20.0346" y1="8.73295" x2="20.0346" y2="21.32" gradientUnits="userSpaceOnUse">
<stop stop-color="#F58B21"/>
<stop offset="1" stop-color="#F5B419"/>
</linearGradient>
<linearGradient id="paint4_linear_5937_26047" x1="14.3485" y1="5.87288" x2="14.067" y2="10.3814" gradientUnits="userSpaceOnUse">
<stop stop-color="#F58B21"/>
<stop offset="1" stop-color="#F5B419"/>
</linearGradient>
<linearGradient id="paint5_linear_5937_26047" x1="18.7734" y1="13.8845" x2="21.713" y2="13.8845" gradientUnits="userSpaceOnUse">
<stop stop-color="#F9FCFF"/>
<stop offset="1" stop-color="#E5E5F2"/>
</linearGradient>
<linearGradient id="paint6_linear_5937_26047" x1="18.7708" y1="20.8662" x2="21.2371" y2="19.1853" gradientUnits="userSpaceOnUse">
<stop stop-color="#F9FCFF"/>
<stop offset="1" stop-color="#E5E5F2"/>
</linearGradient>
<linearGradient id="paint7_linear_5937_26047" x1="8.43362" y1="9.79909" x2="18.6425" y2="9.79909" gradientUnits="userSpaceOnUse">
<stop stop-color="#F58B21"/>
<stop offset="1" stop-color="#F5B419"/>
</linearGradient>
<linearGradient id="paint8_linear_5937_26047" x1="8.93849" y1="9.79902" x2="18.1387" y2="9.79902" gradientUnits="userSpaceOnUse">
<stop stop-color="#F9FCFF"/>
<stop offset="1" stop-color="#E5E5F2"/>
</linearGradient>
<linearGradient id="paint9_linear_5937_26047" x1="10.0146" y1="4.43529" x2="11.2841" y2="4.43529" gradientUnits="userSpaceOnUse">
<stop stop-color="#F9FCFF"/>
<stop offset="1" stop-color="#E5E5F2"/>
</linearGradient>
<linearGradient id="paint10_linear_5937_26047" x1="16.6281" y1="15.2901" x2="10.5719" y2="8.02501" gradientUnits="userSpaceOnUse">
<stop stop-color="#9196C8"/>
<stop offset="1" stop-color="#2C3C91"/>
</linearGradient>
<linearGradient id="paint11_linear_5937_26047" x1="12.9182" y1="13.8219" x2="2.55551" y2="26.4154" gradientUnits="userSpaceOnUse">
<stop stop-color="#9196C8"/>
<stop offset="1" stop-color="#2C3C91"/>
</linearGradient>
<linearGradient id="paint12_linear_5937_26047" x1="5.87054" y1="8.40747" x2="5.63955" y2="12.1072" gradientUnits="userSpaceOnUse">
<stop stop-color="#9196C8"/>
<stop offset="1" stop-color="#2C3C91"/>
</linearGradient>
<linearGradient id="paint13_linear_5937_26047" x1="14.5737" y1="11.5275" x2="14.5737" y2="24.1146" gradientUnits="userSpaceOnUse">
<stop stop-color="#9196C8"/>
<stop offset="1" stop-color="#2C3C91"/>
</linearGradient>
<linearGradient id="paint14_linear_5937_26047" x1="8.88758" y1="8.6674" x2="8.60609" y2="13.1759" gradientUnits="userSpaceOnUse">
<stop stop-color="#9196C8"/>
<stop offset="1" stop-color="#2C3C91"/>
</linearGradient>
<linearGradient id="paint15_linear_5937_26047" x1="13.3125" y1="16.6791" x2="16.252" y2="16.6791" gradientUnits="userSpaceOnUse">
<stop stop-color="#F9FCFF"/>
<stop offset="1" stop-color="#E5E5F2"/>
</linearGradient>
<linearGradient id="paint16_linear_5937_26047" x1="13.3099" y1="23.6607" x2="15.7762" y2="21.9799" gradientUnits="userSpaceOnUse">
<stop stop-color="#F9FCFF"/>
<stop offset="1" stop-color="#E5E5F2"/>
</linearGradient>
<linearGradient id="paint17_linear_5937_26047" x1="3.43654" y1="12.3877" x2="13.6455" y2="12.3877" gradientUnits="userSpaceOnUse">
<stop stop-color="#9196C8"/>
<stop offset="1" stop-color="#2C3C91"/>
</linearGradient>
<linearGradient id="paint18_linear_5937_26047" x1="3.4795" y1="12.5936" x2="12.6797" y2="12.5936" gradientUnits="userSpaceOnUse">
<stop stop-color="#F9FCFF"/>
<stop offset="1" stop-color="#E5E5F2"/>
</linearGradient>
<linearGradient id="paint19_linear_5937_26047" x1="4.55666" y1="7.22982" x2="5.82606" y2="7.22982" gradientUnits="userSpaceOnUse">
<stop stop-color="#F9FCFF"/>
<stop offset="1" stop-color="#E5E5F2"/>
</linearGradient>
</defs>
</svg>
