<svg width="403" height="388" viewBox="0 0 403 388" fill="none" xmlns="http://www.w3.org/2000/svg">
<g filter="url(#filter0_d_724_2606)">
<g clip-path="url(#clip0_724_2606)">
<rect width="391" height="380" fill="white"/>
<rect y="44" width="625" height="79" fill="#F4F4F4"/>
<circle cx="336" cy="80" r="20" fill="#D9D9D9"/>
<line x1="40" y1="261.5" x2="337" y2="261.5" stroke="#757575"/>
<line x1="40" y1="288.5" x2="337" y2="288.5" stroke="#757575"/>
<line x1="40" y1="316.5" x2="337" y2="316.5" stroke="#757575"/>
<line x1="122.016" y1="341.5" x2="259.755" y2="341.5" stroke="#757575"/>
<path d="M56.032 74.272V91H53.848V74.272H56.032ZM66.1623 77.608C67.7623 77.608 69.0583 78.096 70.0503 79.072C71.0423 80.032 71.5383 81.424 71.5383 83.248V91H69.3783V83.56C69.3783 82.248 69.0503 81.248 68.3943 80.56C67.7383 79.856 66.8423 79.504 65.7063 79.504C64.5543 79.504 63.6343 79.864 62.9463 80.584C62.2743 81.304 61.9383 82.352 61.9383 83.728V91H59.7543V77.848H61.9383V79.72C62.3703 79.048 62.9543 78.528 63.6903 78.16C64.4423 77.792 65.2663 77.608 66.1623 77.608ZM80.0018 88.984L84.0818 77.848H86.4098L81.2498 91H78.7058L73.5458 77.848H75.8978L80.0018 88.984ZM94.2949 91.216C93.0629 91.216 91.9429 90.936 90.9349 90.376C89.9429 89.816 89.1589 89.024 88.5829 88C88.0229 86.96 87.7429 85.76 87.7429 84.4C87.7429 83.056 88.0309 81.872 88.6069 80.848C89.1989 79.808 89.9989 79.016 91.0069 78.472C92.0149 77.912 93.1429 77.632 94.3909 77.632C95.6389 77.632 96.7669 77.912 97.7749 78.472C98.7829 79.016 99.5749 79.8 100.151 80.824C100.743 81.848 101.039 83.04 101.039 84.4C101.039 85.76 100.735 86.96 100.127 88C99.5349 89.024 98.7269 89.816 97.7029 90.376C96.6789 90.936 95.5429 91.216 94.2949 91.216ZM94.2949 89.296C95.0789 89.296 95.8149 89.112 96.5029 88.744C97.1909 88.376 97.7429 87.824 98.1589 87.088C98.5909 86.352 98.8069 85.456 98.8069 84.4C98.8069 83.344 98.5989 82.448 98.1829 81.712C97.7669 80.976 97.2229 80.432 96.5509 80.08C95.8789 79.712 95.1509 79.528 94.3669 79.528C93.5669 79.528 92.8309 79.712 92.1589 80.08C91.5029 80.432 90.9749 80.976 90.5749 81.712C90.1749 82.448 89.9749 83.344 89.9749 84.4C89.9749 85.472 90.1669 86.376 90.5509 87.112C90.9509 87.848 91.4789 88.4 92.1349 88.768C92.7909 89.12 93.5109 89.296 94.2949 89.296ZM105.039 75.712C104.623 75.712 104.271 75.568 103.983 75.28C103.695 74.992 103.551 74.64 103.551 74.224C103.551 73.808 103.695 73.456 103.983 73.168C104.271 72.88 104.623 72.736 105.039 72.736C105.439 72.736 105.775 72.88 106.047 73.168C106.335 73.456 106.479 73.808 106.479 74.224C106.479 74.64 106.335 74.992 106.047 75.28C105.775 75.568 105.439 75.712 105.039 75.712ZM106.095 77.848V91H103.911V77.848H106.095ZM109.001 84.4C109.001 83.04 109.273 81.856 109.817 80.848C110.361 79.824 111.113 79.032 112.073 78.472C113.049 77.912 114.161 77.632 115.409 77.632C117.025 77.632 118.353 78.024 119.393 78.808C120.449 79.592 121.145 80.68 121.481 82.072H119.129C118.905 81.272 118.465 80.64 117.809 80.176C117.169 79.712 116.369 79.48 115.409 79.48C114.161 79.48 113.153 79.912 112.385 80.776C111.617 81.624 111.233 82.832 111.233 84.4C111.233 85.984 111.617 87.208 112.385 88.072C113.153 88.936 114.161 89.368 115.409 89.368C116.369 89.368 117.169 89.144 117.809 88.696C118.449 88.248 118.889 87.608 119.129 86.776H121.481C121.129 88.12 120.425 89.2 119.369 90.016C118.313 90.816 116.993 91.216 115.409 91.216C114.161 91.216 113.049 90.936 112.073 90.376C111.113 89.816 110.361 89.024 109.817 88C109.273 86.976 109.001 85.776 109.001 84.4ZM136.395 83.92C136.395 84.336 136.371 84.776 136.323 85.24H125.811C125.891 86.536 126.331 87.552 127.131 88.288C127.947 89.008 128.931 89.368 130.083 89.368C131.027 89.368 131.811 89.152 132.435 88.72C133.075 88.272 133.523 87.68 133.779 86.944H136.131C135.779 88.208 135.075 89.24 134.019 90.04C132.963 90.824 131.651 91.216 130.083 91.216C128.835 91.216 127.715 90.936 126.723 90.376C125.747 89.816 124.979 89.024 124.419 88C123.859 86.96 123.579 85.76 123.579 84.4C123.579 83.04 123.851 81.848 124.395 80.824C124.939 79.8 125.699 79.016 126.675 78.472C127.667 77.912 128.803 77.632 130.083 77.632C131.331 77.632 132.435 77.904 133.395 78.448C134.355 78.992 135.091 79.744 135.603 80.704C136.131 81.648 136.395 82.72 136.395 83.92ZM134.139 83.464C134.139 82.632 133.955 81.92 133.587 81.328C133.219 80.72 132.715 80.264 132.075 79.96C131.451 79.64 130.755 79.48 129.987 79.48C128.883 79.48 127.939 79.832 127.155 80.536C126.387 81.24 125.947 82.216 125.835 83.464H134.139Z" fill="black"/>
</g>
<rect x="0.5" y="0.5" width="390" height="379" stroke="#BFBDBD"/>
</g>
<defs>
<filter id="filter0_d_724_2606" x="0" y="0" width="403" height="388" filterUnits="userSpaceOnUse" color-interpolation-filters="sRGB">
<feFlood flood-opacity="0" result="BackgroundImageFix"/>
<feColorMatrix in="SourceAlpha" type="matrix" values="0 0 0 0 0 0 0 0 0 0 0 0 0 0 0 0 0 0 127 0" result="hardAlpha"/>
<feOffset dx="8" dy="4"/>
<feGaussianBlur stdDeviation="2"/>
<feComposite in2="hardAlpha" operator="out"/>
<feColorMatrix type="matrix" values="0 0 0 0 0 0 0 0 0 0 0 0 0 0 0 0 0 0 0.25 0"/>
<feBlend mode="normal" in2="BackgroundImageFix" result="effect1_dropShadow_724_2606"/>
<feBlend mode="normal" in="SourceGraphic" in2="effect1_dropShadow_724_2606" result="shape"/>
</filter>
<clipPath id="clip0_724_2606">
<rect width="391" height="380" fill="white"/>
</clipPath>
</defs>
</svg>
