<svg width="24" height="24" viewBox="0 0 24 24" fill="none" xmlns="http://www.w3.org/2000/svg">
<path fill-rule="evenodd" clip-rule="evenodd" d="M13.4076 4.17836C13.7724 3.80725 14.207 3.51205 14.6864 3.30981C15.1659 3.10757 15.6806 3.00229 16.201 3.00004C16.7213 2.99779 17.2369 3.09861 17.7181 3.2967C18.1993 3.49479 18.6364 3.78621 19.0044 4.15415C19.3723 4.52208 19.6637 4.95925 19.8618 5.44041C20.0599 5.92158 20.1607 6.43721 20.1585 6.95754C20.1562 7.47788 20.0509 7.99262 19.8487 8.47205C19.6464 8.95149 19.3513 9.38611 18.9801 9.75086L16.1061 12.6264L15.0456 11.5659L17.9196 8.69186C18.3559 8.23009 18.595 7.6164 18.586 6.98119C18.577 6.34597 18.3206 5.73931 17.8714 5.2901C17.4222 4.84089 16.8155 4.58455 16.1803 4.57554C15.5451 4.56653 14.9314 4.80557 14.4696 5.24186L11.3136 8.39036L10.2531 7.32986L13.4076 4.17836ZM15.0531 9.17786L9.05914 15.1719L7.99714 14.1099L13.9941 8.11735L15.0531 9.17786ZM8.06614 11.6424L5.19214 14.5164C4.75586 14.9781 4.51682 15.5918 4.52583 16.227C4.53484 16.8622 4.79118 17.4689 5.24039 17.9181C5.6896 18.3673 6.29626 18.6237 6.93148 18.6327C7.56669 18.6417 8.18038 18.4026 8.64214 17.9664L11.5161 15.0939L12.5766 16.1544L9.70264 19.0284C8.9615 19.7568 7.96263 20.163 6.92345 20.1585C5.88428 20.154 4.88896 19.7392 4.15415 19.0044C3.41933 18.2695 3.00453 17.2742 3.00004 16.235C2.99554 15.1959 3.40172 14.197 4.13014 13.4559L7.00414 10.5819L8.06614 11.6424Z" fill="#2B3C4E"/>
</svg>
