<svg width="27" height="23" viewBox="0 0 27 23" fill="none" xmlns="http://www.w3.org/2000/svg">
<path d="M26.0673 11.5865C26.0673 12.482 24.0617 13.1432 23.8001 13.9691C23.5293 14.8237 24.8662 16.2408 24.353 16.989C23.8325 17.748 21.7045 17.4768 20.9744 18.0927C20.2442 18.7087 20.5657 20.5038 19.666 20.9429C18.7791 21.3758 17.0991 20.248 16.0861 20.4764C15.1071 20.6972 14.3232 22.389 13.2617 22.389C12.2001 22.389 11.4162 20.6972 10.4372 20.4764C9.42419 20.248 7.74424 21.3758 6.85732 20.9429C5.95763 20.5038 6.27911 18.7087 5.54896 18.0927C4.8188 17.4768 2.69081 17.748 2.17028 16.989C1.65713 16.2408 2.99401 14.8237 2.72326 13.9691C2.46158 13.1432 0.456055 12.482 0.456055 11.5865C0.456055 10.691 2.46158 10.0297 2.72326 9.20385C2.99401 8.3493 1.65714 6.93213 2.17028 6.18395C2.69082 5.42499 4.8188 5.69619 5.54896 5.08025C6.27911 4.46431 5.95763 2.66918 6.85732 2.23008C7.74424 1.79719 9.42419 2.92496 10.4372 2.69655C11.4162 2.47581 12.2001 0.783997 13.2616 0.783997C14.3232 0.783997 15.1071 2.47581 16.0861 2.69655C17.0991 2.92496 18.7791 1.79721 19.666 2.23008C20.5657 2.66919 20.2442 4.46431 20.9744 5.08025C21.7045 5.69619 23.8325 5.425 24.353 6.18395C24.8662 6.93213 23.5293 8.34929 23.8001 9.20383C24.0617 10.0297 26.0673 10.691 26.0673 11.5865Z" fill="#EA4949"/>
<path d="M23.8002 13.9691C23.5293 14.8237 24.8663 16.2408 24.3532 16.989C23.8326 17.748 21.7045 17.4768 20.9744 18.0927C20.2443 18.7086 20.5658 20.5038 19.666 20.943C18.7791 21.3758 17.0992 20.248 16.0862 20.4765C15.1072 20.6971 14.3233 22.389 13.2617 22.389V0.784011C14.3233 0.784011 15.1072 2.47586 16.0862 2.6965C17.0992 2.92501 18.7791 1.79715 19.666 2.23002C20.5658 2.66919 20.2443 4.46433 20.9744 5.0803C21.7045 5.69614 23.8326 5.42497 24.3532 6.18401C24.8663 6.93215 23.5293 8.34928 23.8002 9.20386C24.0617 10.0297 26.0673 10.691 26.0673 11.5865C26.0673 12.482 24.0618 13.1433 23.8002 13.9691Z" fill="#CE4545"/>
<path d="M11.6305 11.0194C12.005 10.6355 12.1924 10.116 12.1924 9.46068V9.45487C12.1924 8.79574 12.005 8.27519 11.6305 7.89323C11.2558 7.51136 10.7376 7.32033 10.0757 7.32033C9.41835 7.32033 8.90018 7.51136 8.52096 7.89323C8.14177 8.27519 7.95215 8.79574 7.95215 9.45487V9.46068C7.95215 10.116 8.14175 10.6355 8.52096 11.0194C8.90016 11.4033 9.41833 11.5952 10.0757 11.5952C10.7376 11.5952 11.2558 11.4033 11.6305 11.0194ZM9.34833 10.4465C9.17597 10.212 9.08978 9.88335 9.08978 9.46068V9.45487C9.08978 9.02839 9.17597 8.69877 9.34833 8.46612C9.52069 8.23347 9.76307 8.11715 10.0757 8.11715C10.3882 8.11715 10.6307 8.23347 10.8031 8.46612C10.9755 8.69877 11.0617 9.02838 11.0617 9.45487V9.46068C11.0617 9.88335 10.9755 10.212 10.8031 10.4465C10.6307 10.6812 10.3882 10.7984 10.0757 10.7984C9.76307 10.7984 9.52071 10.6812 9.34833 10.4465Z" fill="white"/>
<path d="M18.0084 12.1507C17.6337 11.7688 17.1155 11.5778 16.4536 11.5778C15.7963 11.5778 15.2781 11.7688 14.8989 12.1507C14.5197 12.5326 14.3301 13.0513 14.3301 13.7065V13.7123C14.3301 14.3715 14.5197 14.893 14.8989 15.2768C15.2781 15.6607 15.7963 15.8526 16.4536 15.8526C17.1155 15.8526 17.6337 15.6607 18.0084 15.2768C18.383 14.893 18.5703 14.3715 18.5703 13.7123V13.7065C18.5703 13.0513 18.383 12.5326 18.0084 12.1507ZM17.4396 13.7181C17.4396 14.1408 17.3534 14.4694 17.181 14.704C17.0087 14.9386 16.7662 15.0558 16.4537 15.0558C16.141 15.0558 15.8986 14.9386 15.7263 14.704C15.5539 14.4694 15.4677 14.1408 15.4677 13.7181V13.7123C15.4677 13.2858 15.5539 12.9562 15.7263 12.7235C15.8986 12.4909 16.141 12.3746 16.4537 12.3746C16.7662 12.3746 17.0087 12.4909 17.181 12.7235C17.3534 12.9562 17.4396 13.2858 17.4396 13.7123V13.7181Z" fill="white"/>
<path d="M15.9603 7.39015L9.61035 15.7829H10.5815L16.9177 7.39015H15.9603Z" fill="white"/>
</svg>
