<svg width="18" height="19" viewBox="0 0 18 19" fill="none" xmlns="http://www.w3.org/2000/svg">
<g clip-path="url(#clip0_69_633)">
<path d="M10.5 5.75V0.845C11.1847 1.1045 11.8147 1.50425 12.3488 2.0375L14.9618 4.652C15.4957 5.18525 15.8955 5.81525 16.155 6.5H11.25C10.836 6.5 10.5 6.16325 10.5 5.75ZM9.92025 12.1055C9.4845 12.2922 9 11.9727 9 11.4987V10.25C6.033 10.328 6.03375 14.6728 9 14.75C10.581 14.7852 11.7188 13.0445 11.067 11.6143L9.92025 12.1055ZM16.5 8.36375V14.75C16.5 16.8177 14.8177 18.5 12.75 18.5H5.25C3.18225 18.5 1.5 16.8177 1.5 14.75V4.25C1.5 2.18225 3.18225 0.5 5.25 0.5H8.63625C8.7585 0.5 8.87925 0.50975 9 0.518V5.75C9 6.9905 10.0095 8 11.25 8H16.482C16.4902 8.12075 16.5 8.2415 16.5 8.36375ZM12.75 12.5C12.5925 7.544 5.40675 7.5455 5.25 12.5C5.4075 17.456 12.5933 17.4545 12.75 12.5Z" fill="white" fill-opacity="0.5"/>
</g>
<defs>
<clipPath id="clip0_69_633">
<rect width="18" height="18" fill="white" transform="translate(0 0.5)"/>
</clipPath>
</defs>
</svg>
