<svg width="274" height="230" viewBox="0 0 274 230" fill="none" xmlns="http://www.w3.org/2000/svg">
<g opacity="0.4">
<path d="M22.1946 228.841C22.1946 228.841 -8.58111 210.317 2.67662 185.536C9.29592 170.966 38.027 176.391 35.0046 152.143C31.0416 120.348 -0.532402 98.9328 17.6887 71.7431C36.4498 43.7471 83.2889 77.1415 129.071 47.5167C158.622 28.3951 211.219 17.6992 230.281 48.0985C248.493 77.1415 222.827 104.129 249.257 125.828C275.687 147.527 295.221 185.584 228.403 224.167C225.076 226.088 222.152 229.434 218.527 229.434C162.871 229.434 111.569 229.267 111.569 229.267" fill="#969696"/>
<path d="M16.1948 202.136C9.27821 201.03 15.7504 221.334 25.6541 218.718C35.5572 216.102 22.0061 203.065 16.1948 202.136Z" fill="#969696"/>
<path d="M12.3238 190.638C8.36324 192.066 9.71421 200.674 15.5741 198.848C21.4346 197.023 16.2186 189.234 12.3238 190.638Z" fill="#969696"/>
<path d="M218.528 229.433C156.488 229.265 111.57 229.266 111.57 229.266L218.528 229.433Z" fill="#969696"/>
</g>
<path d="M168.347 122.82C167.269 122.582 166.24 122.099 165.372 121.424L165.652 121.08C166.468 121.715 167.434 122.168 168.447 122.391L168.347 122.82ZM171.648 122.817L171.548 122.389C172.56 122.163 173.525 121.708 174.34 121.073L174.62 121.415C173.754 122.092 172.726 122.577 171.648 122.817ZM163.309 118.909C162.82 117.925 162.572 116.869 162.569 115.769L163.019 115.768C163.022 116.802 163.255 117.795 163.714 118.718L163.309 118.909ZM176.679 118.896L176.274 118.705C176.73 117.781 176.962 116.788 176.962 115.753L177.284 115.732L177.412 115.743C177.412 116.855 177.166 117.912 176.679 118.896ZM163.701 112.814L163.295 112.624C163.773 111.651 164.483 110.778 165.348 110.101L165.629 110.444C164.817 111.08 164.15 111.9 163.701 112.814ZM176.262 112.777C175.807 111.866 175.135 111.05 174.318 110.418L174.597 110.074C175.467 110.746 176.182 111.615 176.666 112.585L176.262 112.777ZM168.419 109.122L168.319 108.694C168.863 108.571 169.425 108.509 169.988 108.509C169.989 108.509 169.99 108.509 169.99 108.509C170.54 108.509 171.088 108.568 171.619 108.684L171.521 109.113C171.022 109.004 170.507 108.948 169.991 108.948H169.988C169.459 108.948 168.931 109.006 168.419 109.122Z" fill="#2E363D"/>
<path d="M21.8455 102.481C21.8455 102.481 21.8437 102.482 21.8425 102.482L21.7148 102.51L21.6187 102.08L21.7421 102.054L21.744 102.053C22.7125 101.837 23.6543 101.52 24.545 101.111L24.7365 101.508C23.8172 101.931 22.8444 102.258 21.8455 102.481ZM18.541 102.832C17.4752 102.822 16.4094 102.693 15.3727 102.449L15.4785 102.022C16.4823 102.259 17.5141 102.383 18.5459 102.393L18.541 102.832ZM27.4513 99.8685L27.1728 99.5237C27.9814 98.9017 28.7195 98.188 29.3677 97.4018L29.7185 97.6772C29.0491 98.4895 28.286 99.2264 27.4513 99.8685ZM12.3735 101.381C11.4195 100.917 10.5185 100.347 9.69462 99.6873L9.97977 99.348C10.7775 99.9864 11.6506 100.538 12.5741 100.988L12.3735 101.381ZM31.4282 95.047L31.0239 94.8549C31.4768 93.9478 31.824 92.9914 32.0569 92.0107L32.4946 92.1098C32.2545 93.1221 31.8957 94.1101 31.4282 95.047ZM7.47056 97.4541C6.81817 96.6309 6.26246 95.7341 5.8174 94.7892L6.22598 94.6056C6.65705 95.5207 7.19574 96.3883 7.82684 97.1854L7.47056 97.4541ZM32.857 89.0132H32.4077C32.4077 88.0106 32.2909 87.0026 32.0599 86.0158L32.4983 85.9179C32.7366 86.9363 32.8576 87.9778 32.857 89.0132ZM5.25926 91.7401L4.81907 91.8301C4.59958 90.808 4.49805 89.7647 4.51811 88.7293L4.96803 88.7372C4.94857 89.7404 5.04707 90.7509 5.25926 91.7401ZM31.2507 83.616C30.8372 82.6931 30.3155 81.8157 29.699 81.0077L30.0596 80.7456C30.6962 81.5804 31.2355 82.4876 31.6623 83.4403L31.2507 83.616ZM5.37661 85.7464L4.94006 85.64C5.19968 84.632 5.57664 83.6507 6.06121 82.7222L6.46189 82.9217C5.99251 83.8203 5.6271 84.7712 5.37661 85.7464ZM27.5868 78.8073C26.8013 78.1543 25.9386 77.5871 25.0235 77.1214L25.2315 76.7322C26.1763 77.2132 27.067 77.7987 27.8781 78.4729L27.5868 78.8073ZM8.1655 80.4046L7.82016 80.1231C8.50416 79.3241 9.28057 78.6006 10.1281 77.9732L10.3999 78.3228C9.5791 78.9302 8.82761 79.6312 8.1655 80.4046ZM22.1398 76.0355C21.1402 75.7813 20.1109 75.6378 19.0803 75.6093L19.0931 75.1703C20.1577 75.1995 21.2211 75.3472 22.2535 75.6105L22.1398 76.0355ZM13.0575 76.7833L12.8732 76.3826C13.7208 76.0112 14.6139 75.7199 15.5278 75.5156C15.6591 75.4858 15.785 75.4603 15.9132 75.4348L16.0014 75.8652C15.8768 75.8895 15.743 75.9096 15.6275 75.9431C14.7428 76.1419 13.8783 76.424 13.0575 76.7833Z" fill="#2E363D"/>
<path d="M37.5404 92.6753C38.0663 94.9212 36.6272 97.1574 34.3265 97.6706C32.0258 98.1837 29.7349 96.7793 29.209 94.5333C28.683 92.2874 30.1222 90.0511 32.4228 89.538C34.7235 89.0248 37.0145 90.4293 37.5404 92.6753Z" fill="#2E363D"/>
<path d="M247.128 50.435C247.128 52.1326 245.719 53.5085 243.98 53.5085C242.241 53.5085 240.832 52.1326 240.832 50.435C240.832 48.7375 242.241 47.3616 243.98 47.3616C245.719 47.3616 247.128 48.7375 247.128 50.435Z" fill="#2E363D"/>
<path d="M167.067 110.47C167.067 111.682 166.06 112.666 164.818 112.666C163.576 112.666 162.569 111.682 162.569 110.47C162.569 109.258 163.576 108.275 164.818 108.275C166.06 108.275 167.067 109.258 167.067 110.47Z" fill="#2E363D"/>
<path d="M129.991 10.7934C129.991 12.6119 128.481 14.0863 126.618 14.0863C124.755 14.0863 123.245 12.6119 123.245 10.7934C123.245 8.97489 124.755 7.50049 126.618 7.50049C128.481 7.50049 129.991 8.97489 129.991 10.7934Z" fill="#2E363D"/>
<path d="M132.689 20.8917C132.422 20.8917 132.154 20.8747 131.892 20.8412L131.95 20.4059C132.95 20.5342 133.984 20.3974 134.912 20.0071L135.09 20.4102C134.331 20.73 133.523 20.8917 132.689 20.8917ZM128.918 19.6107C128.059 18.9443 127.399 18.0651 127.011 17.0674L127.431 16.9117C127.791 17.8353 128.402 18.6494 129.198 19.2665L128.918 19.6107ZM137.61 18.4384L137.246 18.1806C137.841 17.3781 138.203 16.4326 138.29 15.4465L138.738 15.4848C138.643 16.55 138.253 17.5714 137.61 18.4384ZM127.067 14.9643H126.617C126.617 13.8918 126.914 12.8406 127.475 11.9255L127.861 12.1511C127.342 12.9987 127.067 13.9715 127.067 14.9643ZM137.752 12.5755C137.31 11.6848 136.629 10.926 135.781 10.38L136.029 10.0134C136.944 10.6031 137.68 11.4227 138.158 12.384L137.752 12.5755ZM130.022 10.1319L129.808 9.74585C130.766 9.24121 131.875 8.99619 132.956 9.043L132.936 9.48137C131.937 9.43942 130.908 9.66499 130.022 10.1319Z" fill="#2E363D"/>
<path d="M250.883 62.1949C249.794 62.1159 248.754 61.8222 247.791 61.3237L248.002 60.9364C248.91 61.4064 249.89 61.6824 250.917 61.7572L250.883 62.1949ZM254.073 61.7888L253.925 61.3747C254.893 61.0446 255.767 60.5302 256.523 59.8462L256.829 60.1679C256.027 60.8938 255.1 61.4392 254.073 61.7888ZM245.317 59.3161C244.636 58.4813 244.149 57.537 243.87 56.5101L244.305 56.3976C244.568 57.3656 245.027 58.2551 245.669 59.0425L245.317 59.3161ZM258.693 57.6076L258.281 57.4319C258.691 56.5162 258.898 55.5416 258.898 54.5329H259.348C259.348 55.6024 259.128 56.636 258.693 57.6076ZM258.855 53.7431C258.744 52.7454 258.428 51.7987 257.916 50.9281L258.306 50.7098C258.85 51.6328 259.185 52.6378 259.302 53.6963L258.855 53.7431ZM244.14 53.441L243.695 53.3753C243.858 52.3228 244.236 51.333 244.82 50.432L245.2 50.6666C244.65 51.516 244.294 52.4493 244.14 53.441ZM255.9 48.715C255.073 48.1149 254.147 47.6966 253.147 47.4722L253.248 47.0442C254.309 47.2819 255.291 47.7257 256.168 48.3623L255.9 48.715ZM247.31 48.5374L247.057 48.1745C247.96 47.5744 248.962 47.1719 250.032 46.9785L250.114 47.4102C249.105 47.5932 248.161 47.9726 247.31 48.5374Z" fill="#2E363D"/>
<path d="M128.025 87.2817C140.488 90.7631 152.951 94.2451 165.414 97.7265C160.636 80.2003 182.779 70.1944 178.001 52.6688C165.538 49.1874 153.076 45.7054 140.613 42.224C145.39 59.7502 123.248 69.7561 128.025 87.2817Z" fill="#F5F5F5"/>
<path d="M154.229 77.6856L147.484 76.002L147.653 75.3278C147.939 74.1805 148.302 73.2806 148.741 72.63C149.18 71.9795 149.731 71.4226 150.393 70.9593C151.056 70.496 152.472 69.7439 154.643 68.7018C155.796 68.16 156.454 67.5642 156.616 66.913C156.779 66.2625 156.712 65.7086 156.418 65.2514C156.124 64.7948 155.586 64.4683 154.805 64.2737C153.965 64.0639 153.201 64.1685 152.512 64.5874C151.823 65.0063 151.228 65.8885 150.729 67.2347L144.056 64.6634C144.924 62.1907 146.353 60.3819 148.342 59.2382C150.331 58.0946 152.982 57.9359 156.295 58.7634C158.874 59.4073 160.822 60.4658 162.139 61.9384C163.929 63.9314 164.521 66.1409 163.915 68.5662C163.664 69.5718 163.144 70.4729 162.355 71.2687C161.565 72.0646 160.144 72.9231 158.092 73.8436C156.66 74.4917 155.716 75.0639 155.26 75.5594C154.803 76.0531 154.459 76.7626 154.229 77.6856ZM146.806 77.7366L154.03 79.54L152.439 85.9118L145.216 84.1085L146.806 77.7366Z" stroke="#121D30" stroke-width="0.75" stroke-miterlimit="10"/>
<path d="M194.978 56.0645C207.362 52.3107 219.746 48.5576 232.129 44.8038C218.69 32.5824 231.999 12.2533 218.559 0.0324707C206.175 3.78626 193.791 7.53945 181.408 11.2932C194.847 23.5146 181.538 43.8437 194.978 56.0645Z" fill="#F5F5F5"/>
<path d="M212.357 32.5209L205.665 34.4027L205.477 33.7333C205.156 32.5945 205.026 31.6338 205.084 30.8507C205.142 30.0676 205.345 29.3113 205.69 28.5805C206.035 27.8497 206.893 26.4938 208.261 24.513C208.995 23.4708 209.27 22.6269 209.089 21.9812C208.907 21.3355 208.575 20.8875 208.093 20.6363C207.611 20.3859 206.982 20.3694 206.207 20.5871C205.374 20.8218 204.762 21.2912 204.371 21.9964C203.98 22.7017 203.902 23.7627 204.135 25.1793L197.065 26.2555C196.593 23.6776 196.937 21.3982 198.097 19.4191C199.257 17.4395 201.481 15.9882 204.768 15.0634C207.327 14.3435 209.544 14.2967 211.417 14.923C213.959 15.7663 215.569 17.3908 216.246 19.7979C216.527 20.7956 216.522 21.8359 216.231 22.9188C215.94 24.0016 215.132 25.4511 213.806 27.2684C212.884 28.541 212.348 29.5059 212.197 30.1625C212.046 30.8191 212.099 31.6053 212.357 32.5209ZM205.936 36.2455L213.103 34.23L214.881 40.552L207.714 42.5675L205.936 36.2455Z" stroke="#121D30" stroke-width="0.75" stroke-miterlimit="10"/>
<path d="M243.692 116.939C230.896 118.867 218.101 120.796 205.305 122.724C212.194 105.916 191.444 93.273 198.332 76.4636C211.127 74.535 223.922 72.6064 236.718 70.6779C229.83 87.4872 250.58 100.13 243.692 116.939Z" fill="#F5F5F5"/>
<path d="M225.236 100.373L218.449 101.874L218.299 101.196C218.043 100.041 217.967 99.0745 218.07 98.2956C218.172 97.5174 218.417 96.7732 218.803 96.0631C219.189 95.3529 220.121 94.0475 221.599 92.1469C222.389 91.148 222.712 90.3205 222.568 89.6657C222.423 89.0109 222.116 88.5445 221.649 88.2673C221.182 87.99 220.556 87.9378 219.77 88.1116C218.924 88.2989 218.287 88.733 217.857 89.4152C217.427 90.0974 217.288 91.1523 217.442 92.5792L210.322 93.2553C209.997 90.6549 210.469 88.3986 211.738 86.4877C213.008 84.5767 215.31 83.2525 218.644 82.515C221.24 81.9404 223.455 82.0189 225.291 82.7491C227.782 83.734 229.298 85.4474 229.837 87.8885C230.061 88.9008 229.997 89.9393 229.646 91.0033C229.294 92.0679 228.406 93.47 226.979 95.2094C225.987 96.4285 225.397 97.3612 225.21 98.0087C225.022 98.6562 225.031 99.4436 225.236 100.373ZM218.616 103.729L225.885 102.121L227.304 108.533L220.035 110.141L218.616 103.729Z" stroke="#121D30" stroke-width="0.75" stroke-miterlimit="10"/>
<path d="M77.1184 60.3241C77.1184 60.3241 86.9345 46.0033 99.2119 53.143C114.581 62.0806 96.0193 83.3722 107.379 89.5337C118.739 95.6951 130.484 96.1742 133.757 113.216C138.036 135.497 97.735 166.821 63.6548 146.99C29.5752 127.158 41.6981 90.0419 57.7031 82.6541C76.9597 73.7646 77.1184 60.3241 77.1184 60.3241Z" fill="#121D30"/>
<path d="M83.8467 93.9351V113.604C83.8467 116.151 82.8106 118.456 81.1405 120.126C79.4794 121.797 77.1745 122.833 74.6269 122.833C69.5319 122.833 65.4072 118.699 65.4072 113.604V93.9351H83.8467Z" fill="#D28A7B"/>
<path d="M51.3496 87.8556C52.1151 91.5936 55.7655 94.0031 59.5035 93.2376C63.2415 92.4722 65.651 88.8217 64.8855 85.0844C64.1201 81.3464 60.4696 78.9363 56.7323 79.7017C52.9943 80.4672 50.5848 84.1176 51.3496 87.8556Z" fill="#D28A7B"/>
<path d="M53.2432 85.2369L58.7176 88.9409" stroke="#121D30" stroke-width="0.75" stroke-miterlimit="10"/>
<path d="M90.4553 86.4694C91.2208 90.2074 94.8712 92.6169 98.6092 91.852C102.347 91.0866 104.757 87.4361 103.991 83.6987C103.226 79.9608 99.5753 77.5506 95.8373 78.3161C92.0993 79.081 89.6898 82.732 90.4553 86.4694Z" fill="#D28A7B"/>
<path d="M96.5758 85.0838C96.5758 85.0838 100.527 80.7627 99.1385 70.5167H93.5996L96.5758 85.0838Z" fill="#121D30"/>
<path d="M96.085 88.1317L101.444 82.9406" stroke="#121D30" stroke-width="0.75" stroke-miterlimit="10"/>
<path d="M79.2583 58.085C89.1796 58.085 97.2223 66.1276 97.2223 76.0489V90.8093C97.2223 91.1766 97.1931 91.5341 97.145 91.8922C96.8842 93.6323 95.9947 95.2362 94.6127 96.3774L87.3343 102.428C85.1303 104.265 82.0374 104.622 79.4571 103.327L65.2773 96.2132C62.8319 94.976 61.2949 92.4728 61.2949 89.7472V76.0501C61.2943 66.1276 69.3369 58.085 79.2583 58.085Z" fill="#D28A7B"/>
<path d="M70.833 98.8958L79.0823 103.034C80.4771 103.734 82.0166 104.098 83.5773 104.098H84.1914" stroke="#121D30" stroke-width="0.75" stroke-miterlimit="10"/>
<path d="M82.0748 58.085L86.6427 89.538H80.9111" stroke="#121D30" stroke-width="0.75" stroke-miterlimit="10"/>
<path d="M97.2226 80.9305V90.1423C97.0098 90.1715 96.7879 90.1903 96.5556 90.1903C93.9844 90.1903 91.8965 88.1122 91.8965 85.5312C91.8965 82.96 93.9844 80.8818 96.5556 80.8818C96.7879 80.8824 97.0104 80.9019 97.2226 80.9305Z" fill="#CB705D"/>
<path d="M75.3392 85.5361C75.3392 88.1085 73.2538 90.1939 70.6813 90.1939C68.1089 90.1939 66.0234 88.1085 66.0234 85.5361C66.0234 82.9636 68.1089 80.8782 70.6813 80.8782C73.2538 80.8782 75.3392 82.9636 75.3392 85.5361Z" fill="#CB705D"/>
<path d="M93.7981 81.0904C93.7981 82.701 93.0795 84.0064 92.193 84.0064C91.3065 84.0064 90.5879 82.7004 90.5879 81.0904C90.5879 79.4804 91.3065 78.1744 92.193 78.1744C93.0795 78.1744 93.7981 79.4798 93.7981 81.0904Z" fill="#121D30"/>
<path d="M76.9661 81.0904C76.9661 82.701 76.2474 84.0064 75.361 84.0064C74.4745 84.0064 73.7559 82.7004 73.7559 81.0904C73.7559 79.4804 74.4745 78.1744 75.361 78.1744C76.2474 78.1744 76.9661 79.4798 76.9661 81.0904Z" fill="#121D30"/>
<path d="M61.2949 74.3598V86.0048C61.2949 86.0048 65.9188 81.8972 65.7905 73.8108L61.2949 74.3598Z" fill="#121D30"/>
<path d="M91.1494 68.7346C92.605 66.5123 94.0192 66.2436 94.9579 69.2058L91.1494 68.7346Z" fill="#121D30"/>
<path d="M71.208 69.5712C71.4208 66.9234 72.5328 66.0096 74.7764 68.1595L71.208 69.5712Z" fill="#121D30"/>
<path d="M102.37 55.6085C90.0899 48.47 77.1139 60.3199 77.1139 60.3199C77.1139 60.3199 83.3836 73.8114 57.7041 82.6505C53.4761 84.1061 48.2047 91.2015 45.6572 95.2605C45.6572 95.2605 51.2837 79.0299 53.0566 68.5316C54.8386 58.0241 64.1702 59.6481 64.1702 59.6481C64.1702 59.6481 69.8252 45.8282 85.4648 45.8933C96.2994 45.9401 102.37 55.6085 102.37 55.6085Z" fill="#121D30"/>
<path d="M80.9248 96.5355C83.7763 90.7972 86.6272 96.5355 86.6272 96.5355H80.9248Z" fill="#121D30"/>
<path d="M132.924 192.547L112.356 146.551L95.0176 148.473L95.0182 148.479C97.0003 161.298 102.502 173.317 110.912 183.194L127.515 200.781L132.924 192.547Z" fill="#DBA195"/>
<path d="M115.411 164.747C112.366 168.57 106.798 169.201 102.975 166.156L68.5798 138.76C64.7567 135.716 64.1256 130.147 67.1711 126.324C70.216 122.501 75.784 121.87 79.6071 124.916L115.492 154.005C115.492 154.005 118.456 160.924 115.411 164.747Z" fill="#DBA195"/>
<path d="M114.682 144.443L97.7113 143.327L79.8428 149.138L97.7095 149.834L114.682 144.443Z" fill="#1F2328"/>
<path d="M109.118 128.598L111.902 150.844L85.1211 154.54L89.039 114.704L96.36 115.701C103.044 116.612 108.28 121.904 109.118 128.598Z" fill="#EDB837"/>
<path d="M114.682 144.443L97.7095 149.834L79.8428 149.138L83.2664 159.15L98.9589 158.336L115.595 153.132L114.682 144.443Z" fill="white"/>
<path d="M95.5486 185.316H60.1442L37.391 141.178C33.6433 133.908 36.769 124.982 44.2334 121.638L67.7411 111.107L89.0388 114.704C96.412 115.95 101.57 122.681 100.854 130.124L95.5486 185.316Z" fill="#EDB837"/>
<path d="M86.0247 127.043L88.6604 109.677L58.8623 106.785L61.6311 127.043H86.0247Z" fill="#EDB837"/>
<path d="M61.0783 117.285C65.7587 124.192 71.5013 128.096 77.1149 128.096C82.4045 128.096 86.5699 124.578 88.5545 118.684C88.3873 126.116 87.4649 141.808 82.7322 146.629C81.8196 147.558 80.8426 148.01 79.7458 148.01C79.2983 148.01 78.8258 147.932 78.3401 147.777C69.2517 144.885 63.0786 124.755 61.0783 117.285ZM59.9316 114.605C59.9316 114.605 66.6841 144.546 78.202 148.211C78.7426 148.383 79.2575 148.465 79.7458 148.465C89.6586 148.465 89.039 114.704 89.039 114.704C87.7568 123.063 82.9432 127.64 77.1149 127.64C71.5852 127.64 65.1416 123.521 59.9316 114.605Z" fill="white"/>
<path d="M50.4287 176.542L99.6433 173.874L95.3307 186.344L54.36 185.901L50.4287 176.542Z" fill="#969696"/>
<path d="M95.3306 186.344C95.3306 186.344 112.189 201.929 113.188 229.728H37.7998C37.7998 203.602 54.3593 185.901 54.3593 185.901L95.3306 186.344Z" fill="#969696"/>
<path d="M51.9474 196.795H63.7687C63.7687 196.795 57.9332 210.253 46.3027 211.138" stroke="#121D30" stroke-width="0.75" stroke-miterlimit="10"/>
<path d="M103.395 196.795H96.8789C96.8789 196.795 99.3699 209.537 109.949 211.138" stroke="#121D30" stroke-width="0.75" stroke-miterlimit="10"/>
<path d="M81.3033 187.186L80.1645 207.815C80.1645 207.815 76.3372 205.781 77.1519 198.913" stroke="#121D30" stroke-width="0.75" stroke-miterlimit="10"/>
<path d="M67.5386 184.216H56.8037V188.481H67.5386V184.216Z" fill="#121D30"/>
<path d="M93.6272 184.216H89.8916V188.481H93.6272V184.216Z" fill="#121D30"/>
<path d="M87.4296 184.216H70.5205V188.481H87.4296V184.216Z" fill="#121D30"/>
<path d="M84.2643 183.359H77.0303V189.338H84.2643V183.359Z" fill="white"/>
<path d="M95.7654 134.213C108.414 152.933 107.759 161.901 92.2256 168.758L95.7654 134.213Z" fill="#EDB837"/>
<path d="M104.623 149.834L97.6465 137.088L100.854 130.124" stroke="white" stroke-width="0.75" stroke-miterlimit="10"/>
<path d="M133.803 187.78L117.425 193.631C122.159 201.825 125.114 207.78 125.114 207.78C129.479 209.35 134.132 208.736 137.615 207.768L133.239 197.207C136.543 200.629 138.708 204.929 139.673 207.118C141.806 206.369 143.153 205.634 143.153 205.634C138.787 195.023 133.803 187.78 133.803 187.78Z" fill="#DBA195"/>
<path d="M134.421 208.476C130.411 200.855 128.57 197.192 128.57 197.192" stroke="#121D30" stroke-width="0.75" stroke-miterlimit="10"/>
<path d="M129.807 208.518L124.847 198.308" stroke="#121D30" stroke-width="0.75" stroke-miterlimit="10"/>
<path d="M122.88 177.855L144.449 191.541C142.907 193.97 139.689 194.69 137.26 193.148L134.256 191.243L128.61 192.413C113.317 201.865 112.349 183.808 112.349 183.808L122.88 177.855Z" fill="#DBA195"/>
<path d="M117.271 189.376C123.668 196.931 131.294 189.959 131.294 189.959L137.259 193.148" stroke="#121D30" stroke-width="0.75" stroke-miterlimit="10"/>
<path d="M82.5563 168.65C79.2488 172.249 73.6503 172.485 70.0515 169.178L36.4121 138.583C39.9732 134.855 43.8698 130.456 48.1544 125.769L80.5949 155.324C83.1831 157.743 84.6277 161.234 84.196 164.751C84.0209 166.175 83.5485 167.571 82.5563 168.65Z" fill="#DBA195"/>
<path d="M42.1642 147.418L57.4925 159.963L70.0775 139.566L55.5718 125.301C49.476 119.307 39.2331 121.536 36.1803 129.522C35.5917 131.061 35.2956 132.709 35.4099 134.354C35.7608 139.41 38.1763 144.154 42.1642 147.418Z" fill="#EDB837"/>
<path d="M50.5771 159.025L61.5813 145.855L68.8396 135.72L75.6304 143.835L57.5357 164.307L50.5771 159.025Z" fill="white"/>
<path d="M87.151 125.023C82.5125 118.066 74.8311 114.08 74.8311 114.08L84.4873 102.068C96.4266 110.673 97.3964 118.376 97.2517 122.869L87.151 125.023Z" fill="#DBA195"/>
<path d="M74.8313 114.08C74.8313 114.08 70.0117 108.03 70.0117 101.435L77.1101 95.5535C77.1101 95.5535 78.9001 102.074 82.3371 104.744C82.3371 104.744 79.5415 98.0652 80.5198 94.1156L83.2375 94.6592C83.2375 94.6592 84.3611 101.29 88.8178 106.326L74.8313 114.08Z" fill="#DBA195"/>
<path d="M71.8535 99.984C71.8535 99.984 73.6581 106.487 76.2044 110.589" stroke="#121D30" stroke-width="0.75" stroke-miterlimit="10"/>
<path d="M74.5947 97.6377C74.5947 97.6377 75.8101 103.613 79.4071 108.278" stroke="#121D30" stroke-width="0.75" stroke-miterlimit="10"/>
<path d="M69.7422 153.583L88.9459 120.629L97.2524 121.863C97.1922 139.016 93.3976 155.634 82.7303 168.453L69.7422 153.583Z" fill="#DBA195"/>
<path d="M72.6848 148.117L67.0693 158.551" stroke="#121D30" stroke-width="0.75" stroke-miterlimit="10"/>
<path d="M102.99 209.479H236.794L266.968 133.36H133.165L102.99 209.479Z" fill="#121D30"/>
<path d="M166.07 225.405H187.963L184.979 209.479H169.054L166.07 225.405Z" stroke="#121D30" stroke-miterlimit="10"/>
<path d="M146.572 229.184H207.461V225.405H146.572V229.184Z" stroke="#121D30" stroke-miterlimit="10"/>
<path d="M13.8457 229.303H255.495" stroke="#121D30" stroke-miterlimit="10"/>
<path d="M140.768 226.521H75.3896V229.271H140.768V226.521Z" fill="#2E363D" stroke="#121D30" stroke-width="0.75" stroke-miterlimit="10"/>
<path d="M39.7413 53.0439L35.647 55.1555L35.436 54.7463C35.0767 54.0495 34.8639 53.4434 34.7976 52.9272C34.7313 52.411 34.7624 51.8929 34.8894 51.3725C35.0165 50.8521 35.3928 49.858 36.0179 48.3897C36.3553 47.6157 36.4222 47.0308 36.2185 46.6356C36.0148 46.2404 35.7394 45.9935 35.3935 45.895C35.0469 45.7965 34.6365 45.8695 34.1629 46.1139C33.6528 46.3772 33.3177 46.7633 33.1578 47.2734C32.9979 47.7835 33.0879 48.4827 33.4284 49.371L28.9809 51.0095C28.3315 49.3983 28.2519 47.8729 28.7419 46.4337C29.232 44.9946 30.4826 43.7561 32.4939 42.7188C34.0595 41.9114 35.4926 41.5861 36.7925 41.7436C38.5557 41.9528 39.8167 42.7936 40.576 44.2662C40.891 44.8766 41.026 45.5527 40.981 46.2945C40.936 47.0362 40.604 48.085 39.9845 49.4409C39.5552 50.39 39.3351 51.0873 39.3248 51.5336C39.3126 51.9799 39.4519 52.4833 39.7413 53.0439ZM36.0677 56.3161L40.4532 54.0544L42.4481 57.9225L38.0626 60.1842L36.0677 56.3161Z" fill="#2E363D"/>
<path d="M65.6824 28.091L62.7355 28.7811L62.6662 28.4862C62.5488 27.9846 62.5099 27.5645 62.5506 27.2246C62.5914 26.8853 62.6935 26.56 62.8577 26.2487C63.0218 25.9374 63.4207 25.3641 64.0542 24.5287C64.3929 24.0891 64.5291 23.7274 64.4628 23.4434C64.3965 23.1589 64.2603 22.9576 64.0554 22.8397C63.8505 22.7211 63.5775 22.7023 63.2358 22.7819C62.8686 22.8677 62.5932 23.0604 62.4102 23.3601C62.2266 23.6593 62.1718 24.1195 62.2466 24.7403L59.1507 25.0729C58.995 23.9426 59.1884 22.9576 59.7307 22.1186C60.2731 21.2796 61.2684 20.691 62.716 20.3518C63.8432 20.0879 64.8081 20.1098 65.6113 20.418C66.7008 20.8339 67.3702 21.5714 67.6183 22.6311C67.7211 23.0707 67.6992 23.5231 67.5514 23.9882C67.4043 24.4533 67.0243 25.0686 66.4133 25.8335C65.9877 26.3697 65.7359 26.7789 65.6581 27.0616C65.5797 27.345 65.5876 27.6879 65.6824 28.091ZM62.8182 29.5879L65.9743 28.8486L66.6261 31.6326L63.4699 32.3719L62.8182 29.5879Z" fill="#2E363D"/>
<path d="M96.2159 22.7084L92.7089 21.6395L92.8159 21.2887C92.9977 20.6923 93.2129 20.2284 93.4622 19.897C93.7109 19.5662 94.0161 19.2878 94.3773 19.0616C94.7384 18.8354 95.5051 18.4773 96.6767 17.9873C97.2987 17.7331 97.6617 17.437 97.7644 17.0984C97.8678 16.7603 97.8477 16.4667 97.7049 16.218C97.562 15.9693 97.2878 15.7833 96.8816 15.6592C96.4445 15.5261 96.0395 15.5607 95.665 15.7626C95.2911 15.9645 94.9543 16.4132 94.6545 17.1087L91.209 15.5747C91.7331 14.2955 92.5344 13.3817 93.613 12.8333C94.691 12.2842 96.0918 12.2727 97.8143 12.7974C99.1555 13.206 100.153 13.8164 100.807 14.6275C101.696 15.7255 101.948 16.905 101.564 18.166C101.405 18.6889 101.106 19.1492 100.669 19.5474C100.232 19.945 99.4602 20.3591 98.3542 20.7883C97.5826 21.0911 97.0701 21.3665 96.816 21.6158C96.5624 21.8645 96.3624 22.2287 96.2159 22.7084ZM92.3052 22.5351L96.0614 23.68L95.0515 26.993L91.2959 25.8481L92.3052 22.5351Z" fill="#2E363D"/>
<path d="M120 47.8316L116.833 45.9851L117.018 45.6683C117.332 45.1297 117.648 44.7278 117.966 44.4627C118.284 44.1976 118.646 43.9969 119.049 43.8601C119.453 43.7233 120.281 43.5507 121.534 43.3434C122.198 43.2388 122.619 43.0339 122.797 42.7287C122.975 42.4228 123.023 42.1328 122.942 41.858C122.86 41.5832 122.636 41.3388 122.269 41.1254C121.874 40.8955 121.472 40.836 121.061 40.946C120.651 41.0567 120.22 41.416 119.769 42.024L116.768 39.7385C117.572 38.6143 118.562 37.909 119.738 37.6227C120.914 37.3363 122.28 37.647 123.835 38.5541C125.046 39.26 125.876 40.0833 126.326 41.0232C126.939 42.2964 126.914 43.502 126.25 44.6414C125.974 45.1138 125.578 45.4932 125.061 45.7796C124.544 46.066 123.698 46.2915 122.523 46.4551C121.703 46.5724 121.141 46.7226 120.836 46.9068C120.531 47.0898 120.252 47.3981 120 47.8316ZM116.234 46.764L119.626 48.7418L117.881 51.7338L114.489 49.7559L116.234 46.764Z" fill="#2E363D"/>
</svg>
