<svg width="686" height="784" viewBox="0 0 686 784" fill="none" xmlns="http://www.w3.org/2000/svg">
<rect width="686" height="784" fill="#2B3C4E"/>
<path d="M638 548.465H49V548.759H638V548.465Z" fill="#E6E6E6"/>
<path d="M196.045 566.288H157.027V566.583H196.045V566.288Z" fill="#E6E6E6"/>
<path d="M144.68 566.288H122.07V566.583H144.68V566.288Z" fill="#E6E6E6"/>
<path d="M297.032 570.623H274.424V570.918H297.032V570.623Z" fill="#E6E6E6"/>
<path d="M414.906 577.2H364.024V577.494H414.906V577.2Z" fill="#E6E6E6"/>
<path d="M353.536 577.2H346.076V577.494H353.536V577.2Z" fill="#E6E6E6"/>
<path d="M583.038 570.623H472.688V570.918H583.038V570.623Z" fill="#E6E6E6"/>
<path d="M328.202 495.928H100.732C97.0247 495.928 94.0078 492.912 94.0078 489.204V169.457C94.0078 165.75 97.0247 162.733 100.732 162.733H328.202C331.908 162.733 334.925 165.75 334.925 169.457V489.204C334.925 492.912 331.908 495.928 328.202 495.928ZM100.732 163.029C97.1861 163.029 94.3023 165.913 94.3023 169.459V489.206C94.3023 492.751 97.1861 495.635 100.732 495.635H328.202C331.747 495.635 334.631 492.751 334.631 489.206V169.457C334.631 165.913 331.747 163.028 328.202 163.028L100.732 163.029Z" fill="#E6E6E6"/>
<path d="M582.999 495.928H355.529C351.823 495.928 348.807 492.912 348.807 489.204V169.457C348.807 165.75 351.823 162.733 355.529 162.733H582.999C586.707 162.733 589.723 165.75 589.723 169.457V489.204C589.724 492.912 586.707 495.928 582.999 495.928ZM355.529 163.029C351.985 163.029 349.101 165.913 349.101 169.459V489.206C349.101 492.751 351.985 495.635 355.529 495.635H582.999C586.545 495.635 589.428 492.751 589.428 489.206V169.457C589.428 165.913 586.545 163.028 582.999 163.028L355.529 163.029Z" fill="#E6E6E6"/>
<path d="M363.996 447.839H338.093V550.601H363.996V447.839Z" fill="#E0E0E0"/>
<path d="M359.077 550.602H363.996V536.607H353.918L359.077 550.602Z" fill="#FAFAFA"/>
<path d="M250.49 447.839H224.587V550.601H250.49V447.839Z" fill="#E0E0E0"/>
<path d="M363.997 447.839H246.196V542.014H363.997V447.839Z" fill="#FAFAFA"/>
<path d="M359.725 452.468V477.384H250.468V452.468H359.725ZM360.179 452.014H250.012V477.84H360.179V452.014Z" fill="#E0E0E0"/>
<path d="M251.116 550.602H246.196V536.607H256.274L251.116 550.602Z" fill="#FAFAFA"/>
<path d="M302.49 464.926C302.49 466.364 303.656 467.532 305.096 467.532C306.534 467.532 307.702 466.365 307.702 464.926C307.702 463.487 306.535 462.32 305.096 462.32C303.658 462.321 302.49 463.487 302.49 464.926Z" fill="#E6E6E6"/>
<path d="M359.725 482.469V507.384H250.468V482.469H359.725ZM360.179 482.014H250.012V507.84H360.179V482.014Z" fill="#E0E0E0"/>
<path d="M302.49 494.926C302.49 496.364 303.656 497.532 305.096 497.532C306.534 497.532 307.702 496.365 307.702 494.926C307.702 493.486 306.535 492.32 305.096 492.32C303.658 492.321 302.49 493.487 302.49 494.926Z" fill="#E6E6E6"/>
<path d="M359.725 512.469V537.385H250.468V512.469H359.725ZM360.179 512.014H250.012V537.84H360.179V512.014Z" fill="#E0E0E0"/>
<path d="M302.49 524.927C302.49 526.366 303.656 527.533 305.096 527.533C306.534 527.533 307.702 526.367 307.702 524.927C307.702 523.488 306.535 522.322 305.096 522.322C303.658 522.322 302.49 523.488 302.49 524.927Z" fill="#E6E6E6"/>
<path d="M234.665 388.16H208.762V550.602H234.665V388.16Z" fill="#E0E0E0"/>
<path d="M229.745 550.602H234.665V536.607H224.587L229.745 550.602Z" fill="#FAFAFA"/>
<path d="M137.853 388.16H111.95V550.602H137.853V388.16Z" fill="#E0E0E0"/>
<path d="M234.665 388.16H133.561V542.014H234.665V388.16Z" fill="#FAFAFA"/>
<path d="M230.312 392.516V427.35H137.913V392.516H230.312ZM230.848 391.98H137.377V427.887H230.848V391.98Z" fill="#E0E0E0"/>
<path d="M230.312 431.584V523.981H186.301V431.584H230.312ZM230.848 431.048H185.764V524.52H230.848V431.048Z" fill="#E0E0E0"/>
<path d="M181.925 431.584V523.981H137.913V431.584H181.925ZM182.462 431.048H137.377V524.52H182.462V431.048Z" fill="#E0E0E0"/>
<path d="M138.48 550.602H133.561V536.607H143.638L138.48 550.602Z" fill="#FAFAFA"/>
<path d="M181.507 409.933C181.507 411.373 182.674 412.539 184.113 412.539C185.551 412.539 186.719 411.373 186.719 409.933C186.719 408.495 185.553 407.327 184.113 407.327C182.674 407.329 181.507 408.495 181.507 409.933Z" fill="#E6E6E6"/>
<path d="M190.835 475.58C190.835 477.018 192.001 478.185 193.441 478.185C194.88 478.185 196.046 477.019 196.046 475.58C196.046 474.141 194.88 472.974 193.441 472.974C192.001 472.974 190.835 474.14 190.835 475.58Z" fill="#E6E6E6"/>
<path d="M172.179 475.58C172.179 477.018 173.345 478.185 174.785 478.185C176.223 478.185 177.391 477.019 177.391 475.58C177.391 474.141 176.224 472.974 174.785 472.974C173.347 472.974 172.179 474.14 172.179 475.58Z" fill="#E6E6E6"/>
<path d="M169.244 342.87H158.317C158.317 342.87 160.214 352.971 160.214 358.915C160.214 364.859 151.902 388.16 163.781 388.16C175.658 388.16 167.348 364.858 167.348 358.915C167.346 352.97 169.244 342.87 169.244 342.87Z" fill="#E0E0E0"/>
<path d="M127.694 366.758V373.858C127.694 381.724 134.129 388.159 141.996 388.159H149.096C156.961 388.159 163.397 381.724 163.397 373.858V366.758H127.694Z" fill="#F5F5F5"/>
<path d="M279.496 432.864C279.496 441.101 288.721 447.84 299.995 447.84H310.172C321.448 447.84 330.673 441.101 330.673 432.864H279.496Z" fill="#E0E0E0"/>
<path d="M549.186 420.807C543.013 425.846 534.494 435.072 526.687 448.052C521.487 456.696 518.354 465.754 516.978 477.72C517.008 464.174 517.05 449.62 517.097 435.884C518.665 432.349 522.246 424.203 524.815 417.767C533.388 396.291 536.58 391.01 544.29 372.486C554.573 347.778 565.11 318.461 562.093 320.804C555.945 325.578 532.384 369.696 529.837 376.011C521.078 397.734 518.638 413.567 517.122 428.847C517.169 415.946 517.22 404.1 517.269 394.96C517.427 365.147 517.935 355.525 518.182 352.557C519.135 351.05 520.261 349.292 520.916 348.345C526.45 340.343 528.585 333.526 533.8 321.59C541.19 304.678 547.553 274.65 545.693 276.165C537.946 282.471 531.836 296.029 523.807 313.304C515.779 330.579 518.074 340.514 516.481 355.268C516.146 358.164 515.891 369.089 515.706 384.233C513.623 368.1 509.717 357.469 502.59 347.808C493.823 335.925 485.343 327.898 479.121 323.706C472.899 319.515 489.865 348.703 497.979 361.443C505.205 372.788 511.861 382.8 515.614 392.66C515.415 413.183 515.323 439.172 515.323 463.364C513.462 452.354 510.423 440.5 506.368 431.32C501.496 420.29 494 403.373 488.033 397.635C486.6 396.257 494.272 429.158 499.195 437.907C504.119 446.656 507.733 454.901 510.832 459.86C511.556 461.017 513.954 465.479 515.324 468.045C515.337 497.577 515.488 523.637 515.745 532.508H517.021C516.933 530.219 516.919 515.196 516.946 495.312C520.019 484.516 527.045 472.196 532.843 460.957C539.173 448.687 555.36 415.768 549.186 420.807Z" fill="#E0E0E0"/>
<path d="M534.854 550.602H497.932L495.145 514.409H537.641L534.854 550.602Z" fill="#F0F0F0"/>
<path d="M540.393 518.626H492.393L491.019 506.415H541.768L540.393 518.626Z" fill="#F5F5F5"/>
<path d="M195.378 186.935H129.349V259.44H195.378V186.935Z" fill="#E0E0E0"/>
<path d="M202.53 186.935H134.326V259.44H202.53V186.935Z" fill="#F5F5F5"/>
<path d="M196.815 253.726V192.649H140.039V253.726H196.815Z" fill="white"/>
<path d="M183.054 238.923V207.454H153.802V238.923H183.054Z" fill="#F5F5F5"/>
<path d="M532.04 195.387H470.702V262.742H532.04V195.387Z" fill="#E0E0E0"/>
<path d="M538.684 195.387H475.325V262.742H538.684V195.387Z" fill="#F5F5F5"/>
<path d="M533.376 257.434V200.696H480.633V257.434H533.376Z" fill="white"/>
<path d="M507.004 245.52C516.092 245.52 523.458 238.153 523.458 229.065C523.458 219.978 516.092 212.611 507.004 212.611C497.917 212.611 490.55 219.978 490.55 229.065C490.55 238.153 497.917 245.52 507.004 245.52Z" fill="#F5F5F5"/>
<path d="M263.972 230.168H214.991V283.953H263.972V230.168Z" fill="#E0E0E0"/>
<path d="M269.279 230.168H218.684V283.953H269.279V230.168Z" fill="#F5F5F5"/>
<path d="M265.04 279.715V234.407H222.923V279.715H265.04Z" fill="white"/>
<path d="M243.981 245.607L232.463 265.559H255.5L243.981 245.607Z" fill="#F5F5F5"/>
<path d="M343.5 601.667C469.642 601.667 571.901 595.695 571.901 588.328C571.901 580.962 469.642 574.99 343.5 574.99C217.357 574.99 115.099 580.962 115.099 588.328C115.099 595.695 217.357 601.667 343.5 601.667Z" fill="#F5F5F5"/>
<path d="M460.412 290.523L448.727 285.785C448.727 285.785 433.307 313.907 428.891 315.327C422.881 317.259 410.452 322.629 403.066 323.635C402.07 324.799 400.428 328.47 400.585 329.808C410.494 333.112 432.263 328.724 436.924 325.264C447.547 317.373 460.412 290.523 460.412 290.523Z" fill="#E58A7B"/>
<path d="M464.009 284.142C466.183 292.198 454.38 308.38 454.38 308.38L438.875 299.683C438.875 299.683 441.766 293.031 445.305 286.256C451.019 275.316 461.527 274.947 464.009 284.142Z" fill="#407BFF"/>
<path opacity="0.2" d="M464.009 284.142C466.183 292.198 454.38 308.38 454.38 308.38L438.875 299.683C438.875 299.683 441.766 293.031 445.305 286.256C451.019 275.316 461.527 274.947 464.009 284.142Z" fill="black"/>
<path opacity="0.2" d="M445.058 303.146L451.147 306.56L452.212 287.87C448.678 290.594 446.171 298.789 445.058 303.146Z" fill="black"/>
<path d="M453.834 278.073C453.834 278.073 441.796 304.856 448.814 354.733C463.108 354.733 489.297 354.733 496.252 354.733C497.006 347.451 494.514 311.927 503.549 277.616C503.549 277.616 495.512 275.984 487.786 275.611C481.742 275.319 472.977 275.125 467.62 275.612C460.556 276.253 453.834 278.073 453.834 278.073Z" fill="#407BFF"/>
<path opacity="0.2" d="M453.834 278.073C453.834 278.073 441.796 304.856 448.814 354.733C463.108 354.733 489.297 354.733 496.252 354.733C497.006 347.451 494.514 311.927 503.549 277.616C503.549 277.616 495.512 275.984 487.786 275.611C481.742 275.319 472.977 275.125 467.62 275.612C460.556 276.253 453.834 278.073 453.834 278.073Z" fill="black"/>
<path d="M442.832 589.393C442.758 590.658 460.744 591.683 483.004 591.683C505.265 591.683 523.371 590.658 523.445 589.393C523.519 588.128 505.534 587.103 483.273 587.103C461.012 587.102 442.906 588.128 442.832 589.393Z" fill="#E8ECF1"/>
<path d="M475.602 557.606L467.161 560.858L474.399 579.647L482.841 576.394L475.602 557.606Z" fill="#E58A7B"/>
<path d="M512.014 580.337H503.145L499.891 559.797H508.76L512.014 580.337Z" fill="#E58A7B"/>
<path d="M502.575 579.31H512.539C512.902 579.31 513.201 579.562 513.259 579.915L514.549 587.798C514.683 588.616 513.995 589.39 513.158 589.376C509.683 589.316 508.004 589.112 503.623 589.112C500.928 589.112 495.357 589.392 491.633 589.392C487.992 589.392 487.64 585.711 489.184 585.377C496.105 583.883 498.8 581.821 501.103 579.855C501.518 579.5 502.045 579.31 502.575 579.31Z" fill="#263238"/>
<path d="M473.047 576.204L482.496 573.457C482.849 573.355 483.213 573.507 483.37 573.824L486.871 580.887C487.234 581.618 486.805 582.537 485.985 582.761C482.563 583.695 480.262 584.28 475.978 585.525C473.018 586.385 470.007 587.786 467.082 588.719C465.057 589.365 460.301 589.391 457.838 589.391C454.197 589.391 453.385 585.552 454.946 585.376C458.896 584.933 459.426 585.138 461.606 584.045C465.211 582.237 467.999 580.74 471.12 577.471C471.664 576.903 472.301 576.421 473.047 576.204Z" fill="#263238"/>
<path d="M404.559 323.55L394.799 319.444L390.781 330.256C390.781 330.256 396.413 331.277 402.845 330.256L404.559 323.55Z" fill="#E58A7B"/>
<path d="M387.547 319.179L387.289 326.373L390.781 330.256L394.8 319.444L387.547 319.179Z" fill="#E58A7B"/>
<path d="M475.634 557.584L467.191 560.844L470.929 570.526L479.372 567.267L475.634 557.584Z" fill="#CF6F64"/>
<path d="M508.763 559.803H499.89L501.572 570.39H510.445L508.763 559.803Z" fill="#CF6F64"/>
<path opacity="0.2" d="M447.309 341.242C447.479 343.373 447.685 345.551 447.938 347.79L483.213 336.339C488.722 334.692 493.515 331.23 496.784 326.498C496.917 323.35 497.098 320.046 497.365 316.596C497.486 314.913 497.631 313.194 497.789 311.451C497.958 309.636 498.152 307.783 498.369 305.919L447.309 341.242Z" fill="black"/>
<path d="M458.826 302.604L457.625 302.462C458.324 296.584 462.712 291.938 467.348 292.048L467.312 293.259C463.311 293.143 459.455 297.333 458.826 302.604Z" fill="white"/>
<path d="M465.102 313.482C465.036 313.482 464.97 313.481 464.903 313.48L464.939 312.269C468.99 312.417 472.796 308.194 473.425 302.922L474.627 303.066C473.936 308.861 469.687 313.482 465.102 313.482Z" fill="white"/>
<path d="M487.119 252.903C485.467 259.392 483.5 271.28 487.786 275.609C487.786 275.609 484.793 282.191 472.736 282.191C461.718 282.191 467.62 275.609 467.62 275.609C474.956 273.881 475.085 268.513 474.12 263.471L487.119 252.903Z" fill="#E58A7B"/>
<path d="M481.82 257.216L474.126 263.468C474.358 264.661 474.523 265.871 474.538 267.046C476.787 269.286 481.301 263.613 481.764 260.718C481.994 259.276 482.015 257.889 481.82 257.216Z" fill="#CF6F64"/>
<path d="M460.904 252.823C462.031 254.842 464.021 256.099 465.901 256.517C468.73 257.148 470.151 254.546 469.372 251.927C468.669 249.57 466.352 246.402 463.51 246.945C460.71 247.481 459.614 250.514 460.904 252.823Z" fill="#CF6F64"/>
<path d="M465.571 232.056C461.166 234.075 459.613 251.577 465.152 254.165C470.691 256.752 473.916 228.234 465.571 232.056Z" fill="#263238"/>
<path d="M488.464 243.139C487.409 251.925 487.236 257.095 482.535 261.604C475.462 268.387 464.853 264.364 463.271 255.594C461.847 247.7 463.81 234.659 472.616 231.162C481.291 227.718 489.518 234.353 488.464 243.139Z" fill="#E58A7B"/>
<path d="M473.992 236.609C480.508 234.942 485.305 233.807 483.594 239.247C481.313 246.494 478.578 253.515 482.247 253.842C484.478 254.041 494.375 249.842 493.118 245.596C492.023 241.897 496.623 240.9 497.472 239.014C500.526 232.221 491.798 233.104 493.351 228.994C494.863 224.992 486.319 218.229 481.585 221.533C473.922 226.883 460.752 226.806 467.676 218.032C472.635 211.749 463.788 213.039 463.788 213.039C463.788 213.039 469.131 216.209 460.137 221.109C450.602 226.302 459.33 240.36 473.992 236.609Z" fill="#263238"/>
<path d="M491.864 252.823C490.499 254.842 488.363 256.099 486.434 256.517C483.531 257.148 482.415 254.546 483.502 251.927C484.48 249.57 487.169 246.402 489.948 246.945C492.684 247.481 493.424 250.514 491.864 252.823Z" fill="#E58A7B"/>
<path d="M448.814 354.733C448.814 354.733 440.852 425.999 440.23 453.046C439.585 481.179 467.216 568.954 467.216 568.954L481.365 563.012C481.365 563.012 464.891 482.822 467.179 455.192C469.674 425.072 479.997 354.732 479.997 354.732H448.814V354.733Z" fill="#407BFF"/>
<path opacity="0.2" d="M468.603 374.301C462.259 387.471 466.533 413.509 469.97 428.945C471.278 418.049 472.827 406.224 474.304 395.28C474.159 378.453 472.852 365.465 468.603 374.301Z" fill="black"/>
<path d="M480.725 558.393C480.791 558.366 482.403 562.902 482.403 562.902L466.095 569.75L463.525 564.973L480.725 558.393Z" fill="#407BFF"/>
<path d="M465.642 354.733C465.642 354.733 471.734 422.513 475.771 447.906C480.192 475.713 497.558 568.34 497.558 568.34H513.802C513.802 568.34 504.068 477.958 502.23 450.427C500.234 420.546 496.251 354.733 496.251 354.733H465.642Z" fill="#407BFF"/>
<path d="M514.051 564.108C514.12 564.108 514.594 568.648 514.594 568.648H496.739L495.464 563.436L514.051 564.108Z" fill="#407BFF"/>
<path opacity="0.2" d="M507.827 558.742C507.751 558.742 507.686 558.684 507.678 558.607C507.589 557.785 498.812 476.186 497.161 451.451C495.369 424.608 491.765 365.089 491.729 364.491C491.724 364.407 491.788 364.335 491.87 364.331C491.874 364.331 491.877 364.331 491.88 364.331C491.958 364.331 492.027 364.393 492.032 364.473C492.067 365.07 495.67 424.589 497.463 451.43C499.114 476.16 507.89 557.753 507.978 558.575C507.988 558.658 507.927 558.732 507.845 558.741C507.838 558.742 507.832 558.742 507.827 558.742Z" fill="black"/>
<path d="M474.993 245.595C474.951 246.31 474.538 246.891 474.071 246.891C473.603 246.891 473.258 246.311 473.3 245.595C473.342 244.88 473.755 244.299 474.223 244.299C474.69 244.299 475.036 244.88 474.993 245.595Z" fill="#263238"/>
<path d="M466.907 245.595C466.865 246.31 466.453 246.891 465.985 246.891C465.517 246.891 465.172 246.311 465.214 245.595C465.257 244.88 465.669 244.299 466.137 244.299C466.604 244.299 466.95 244.88 466.907 245.595Z" fill="#263238"/>
<path d="M469.456 245.951C469.456 245.951 467.588 250.079 465.68 252.069C466.877 253.251 469.059 252.71 469.059 252.71L469.456 245.951Z" fill="#DF5753"/>
<path d="M469.663 255.712C469.547 255.712 469.458 255.617 469.465 255.502C469.472 255.387 469.572 255.292 469.687 255.292C472.828 255.292 474.422 253.099 474.438 253.077C474.509 252.98 474.641 252.952 474.733 253.015C474.826 253.079 474.846 253.208 474.776 253.306C474.706 253.403 473.028 255.712 469.663 255.712Z" fill="#263238"/>
<path d="M476.431 243.419C476.31 243.466 476.173 243.459 476.06 243.388C474.515 242.415 473.074 243.067 473.06 243.075C472.862 243.177 472.599 243.088 472.511 242.879C472.423 242.669 472.526 242.418 472.741 242.318C472.817 242.281 474.621 241.463 476.539 242.67C476.731 242.791 476.778 243.049 476.646 243.247C476.592 243.327 476.515 243.386 476.431 243.419Z" fill="#263238"/>
<path d="M463.781 241.069C463.723 241.053 463.667 241.023 463.621 240.979C463.456 240.826 463.456 240.56 463.621 240.386C465.265 238.649 467.171 238.914 467.251 238.925C467.475 238.95 467.625 239.173 467.576 239.402C467.528 239.631 467.307 239.789 467.081 239.756C467.017 239.746 465.529 239.557 464.216 240.943C464.099 241.068 463.928 241.112 463.781 241.069Z" fill="#263238"/>
<path d="M508.102 289.209L495.847 285.948C495.847 285.948 483.831 315.525 479.587 317.455C473.811 320.084 459.188 329.173 452.973 333.556C452.627 335.022 452.898 338.928 453.681 339.992C464.248 338.072 484.58 330.256 488.819 326.282C498.486 317.225 508.102 289.209 508.102 289.209Z" fill="#E58A7B"/>
<path d="M499.551 580.859C498.876 580.859 498.251 580.743 497.87 580.407C497.567 580.14 497.443 579.765 497.501 579.297C497.543 578.947 497.738 578.781 497.896 578.703C498.896 578.201 501.663 579.956 501.975 580.159C502.043 580.205 502.076 580.288 502.059 580.372C502.04 580.455 501.974 580.522 501.89 580.541C501.265 580.689 500.371 580.859 499.551 580.859ZM498.341 579.023C498.231 579.023 498.138 579.04 498.065 579.076C498.008 579.106 497.938 579.16 497.919 579.322C497.878 579.657 497.956 579.907 498.16 580.086C498.62 580.495 499.775 580.549 501.299 580.245C500.331 579.665 499.021 579.023 498.341 579.023Z" fill="#407BFF"/>
<path d="M501.841 580.546C501.806 580.546 501.772 580.538 501.742 580.522C500.852 580.022 499.192 578.08 499.439 577.09C499.482 576.911 499.633 576.601 500.14 576.54C500.471 576.499 500.764 576.591 501.018 576.809C502 577.651 502.061 580.211 502.063 580.319C502.066 580.396 502.024 580.47 501.957 580.511C501.921 580.535 501.881 580.546 501.841 580.546ZM500.262 576.951C500.231 576.951 500.2 576.955 500.167 576.958C499.892 576.991 499.86 577.117 499.847 577.17C499.701 577.755 500.746 579.224 501.618 579.916C501.558 579.168 501.362 577.676 500.734 577.136C500.59 577.011 500.435 576.951 500.262 576.951Z" fill="#407BFF"/>
<path d="M468.27 579.393C467.403 579.603 466.576 579.665 466.048 579.379C465.713 579.198 465.519 578.894 465.475 578.48C465.448 578.233 465.531 578.017 465.714 577.856C466.663 577.011 470.506 577.919 470.942 578.025C471.027 578.047 471.087 578.12 471.09 578.209C471.094 578.299 471.042 578.382 470.958 578.421C470.246 578.744 469.233 579.16 468.27 579.393ZM466.355 577.994C466.193 578.032 466.066 578.088 465.982 578.162C465.908 578.228 465.881 578.303 465.893 578.412C465.924 578.692 466.046 578.888 466.265 579.008C466.891 579.348 468.343 579.079 470.213 578.296C468.899 578.021 467.182 577.792 466.355 577.994Z" fill="#407BFF"/>
<path d="M470.919 578.433C470.89 578.44 470.861 578.44 470.831 578.437C469.69 578.225 467.251 576.87 467.229 575.856C467.223 575.619 467.335 575.294 467.893 575.101C468.298 574.949 468.715 574.979 469.106 575.171C470.387 575.803 471.056 578.064 471.084 578.16C471.104 578.231 471.086 578.308 471.034 578.366C471.002 578.4 470.962 578.423 470.919 578.433ZM468.133 575.458C468.093 575.467 468.052 575.481 468.01 575.494C467.645 575.622 467.648 575.772 467.648 575.822C467.662 576.429 469.355 577.548 470.551 577.925C470.313 577.275 469.74 575.963 468.902 575.549C468.649 575.425 468.396 575.394 468.133 575.458Z" fill="#407BFF"/>
<path d="M453.97 332.86L441.686 338.515L440.261 341.98L444.801 345.035C444.801 345.035 453.273 344.112 455.687 338.669L453.97 332.86Z" fill="#E58A7B"/>
<path d="M454.493 340.192C453.725 335.628 452.225 333.547 452.21 333.527L454.147 332.074C454.222 332.175 456.002 334.578 456.881 339.79L454.493 340.192Z" fill="#263238"/>
<path d="M456.586 334.532C456.984 335.518 456.344 336.705 455.156 337.186C453.967 337.666 452.682 337.256 452.284 336.27C451.886 335.285 452.525 334.097 453.714 333.616C454.901 333.137 456.188 333.546 456.586 334.532Z" fill="#263238"/>
<path d="M433.386 343.081L435.018 344.733L446.04 340.019L441.686 338.516L433.386 343.081Z" fill="#E58A7B"/>
<path opacity="0.2" d="M480.725 558.393C480.791 558.366 482.403 562.902 482.403 562.902L466.095 569.75L463.525 564.973L480.725 558.393Z" fill="black"/>
<path opacity="0.2" d="M514.051 564.108C514.12 564.108 514.594 568.648 514.594 568.648H496.739L495.464 563.436L514.051 564.108Z" fill="black"/>
<path d="M511.296 285.819C514.536 296.264 501.919 310.533 501.919 310.533L484.428 303.395C484.428 303.395 486.892 295.806 491.582 285.639C496.913 274.084 508.024 275.277 511.296 285.819Z" fill="#407BFF"/>
<path opacity="0.2" d="M511.296 285.819C514.536 296.264 501.919 310.533 501.919 310.533L484.428 303.395C484.428 303.395 486.892 295.806 491.582 285.639C496.913 274.084 508.024 275.277 511.296 285.819Z" fill="black"/>
<path d="M337.462 181.131H329.938V182.342H337.462V181.131Z" fill="#407BFF"/>
<path d="M434.916 229.147L434.006 249.36L435.214 249.415L436.125 229.202L434.916 229.147Z" fill="#407BFF"/>
<path d="M432.572 186.578H293.569L280.629 476.035H419.632L432.572 186.578Z" fill="#407BFF"/>
<path opacity="0.56" d="M428.422 190.551H289.419L276.48 480.008H415.483L428.422 190.551Z" fill="#FAFAFA"/>
<path opacity="0.07" d="M424.272 194.523H285.27L272.33 483.98H411.333L424.272 194.523Z" fill="#407BFF"/>
<path d="M408.45 320.767H289.806L288.815 342.92H407.461L408.45 320.767Z" fill="white"/>
<path d="M355.062 304.609H290.528L290.085 314.521H354.618L355.062 304.609Z" fill="#407BFF"/>
<path d="M405.779 380.542H287.133L286.142 402.695H404.788L405.779 380.542Z" fill="white"/>
<path opacity="0.47" d="M384.021 432.594H304.236L303.05 459.145H382.833L384.021 432.594Z" fill="#407BFF"/>
<path d="M378.685 463.258H298.901C298.863 463.258 298.827 463.241 298.8 463.214C298.774 463.187 298.76 463.149 298.762 463.111L299.949 436.561C299.952 436.485 300.014 436.426 300.088 436.426H379.872C379.91 436.426 379.946 436.443 379.973 436.47C379.999 436.497 380.013 436.535 380.011 436.572L378.824 463.123C378.821 463.199 378.759 463.258 378.685 463.258ZM299.047 462.977H378.55L379.724 436.707H300.22L299.047 462.977Z" fill="white"/>
<path d="M341.118 364.386H287.855L287.412 374.297H340.674L341.118 364.386Z" fill="#407BFF"/>
<path d="M382.499 249.23C382.202 255.864 379.798 261.989 375.944 266.965C370.123 274.507 361.007 279.409 350.971 279.409C340.936 279.409 332.269 274.507 327.124 266.965C323.715 261.989 321.858 255.865 322.155 249.23C322.901 232.562 337.013 219.052 353.67 219.052C370.339 219.051 383.244 232.562 382.499 249.23Z" fill="white"/>
<path d="M385.337 225.369C385.258 227.131 384.619 228.759 383.594 230.081C382.048 232.085 379.626 233.387 376.959 233.387C374.292 233.387 371.99 232.085 370.622 230.081C369.716 228.759 369.223 227.131 369.302 225.369C369.5 220.939 373.25 217.35 377.676 217.35C382.105 217.35 385.535 220.939 385.337 225.369Z" fill="#407BFF"/>
<path d="M302.582 331.844C302.495 333.804 300.834 335.393 298.874 335.393C296.914 335.393 295.395 333.804 295.483 331.844C295.57 329.883 297.231 328.294 299.191 328.294C301.152 328.293 302.671 329.883 302.582 331.844Z" fill="#263238"/>
<path d="M318.47 331.844C318.383 333.804 316.722 335.393 314.762 335.393C312.802 335.393 311.283 333.804 311.37 331.844C311.457 329.883 313.118 328.294 315.079 328.294C317.039 328.294 318.558 329.883 318.47 331.844Z" fill="#263238"/>
<path d="M334.359 331.844C334.272 333.804 332.611 335.393 330.65 335.393C328.69 335.393 327.172 333.804 327.259 331.844C327.346 329.883 329.007 328.294 330.967 328.294C332.927 328.293 334.446 329.883 334.359 331.844Z" fill="#263238"/>
<path d="M299.91 391.619C299.823 393.579 298.162 395.168 296.202 395.168C294.242 395.168 292.724 393.579 292.811 391.619C292.898 389.659 294.559 388.068 296.519 388.068C298.479 388.07 299.998 389.659 299.91 391.619Z" fill="#263238"/>
<path d="M315.798 391.619C315.711 393.579 314.05 395.168 312.09 395.168C310.13 395.168 308.611 393.579 308.698 391.619C308.786 389.659 310.447 388.068 312.407 388.068C314.368 388.07 315.885 389.659 315.798 391.619Z" fill="#263238"/>
<path d="M331.686 391.619C331.599 393.579 329.938 395.168 327.978 395.168C326.017 395.168 324.499 393.579 324.586 391.619C324.673 389.659 326.334 388.068 328.294 388.068C330.255 388.068 331.774 389.659 331.686 391.619Z" fill="#263238"/>
<path d="M347.575 391.619C347.488 393.579 345.827 395.168 343.867 395.168C341.907 395.168 340.388 393.579 340.475 391.619C340.562 389.659 342.223 388.068 344.184 388.068C346.144 388.07 347.662 389.659 347.575 391.619Z" fill="#263238"/>
<path d="M363.463 391.619C363.376 393.579 361.715 395.168 359.754 395.168C357.794 395.168 356.276 393.579 356.363 391.619C356.45 389.659 358.111 388.068 360.071 388.068C362.031 388.07 363.55 389.659 363.463 391.619Z" fill="#263238"/>
<path d="M364.982 239.143C364.681 245.884 358.972 251.349 352.23 251.349C345.49 251.349 340.269 245.884 340.571 239.143C340.872 232.402 346.581 226.938 353.322 226.938C360.063 226.938 365.284 232.403 364.982 239.143Z" fill="#407BFF"/>
<path d="M375.943 266.964C370.123 274.506 361.006 279.408 350.971 279.408C340.936 279.408 332.269 274.506 327.124 266.964C332.85 261.262 341.913 257.559 351.949 257.559C361.995 257.559 370.727 261.262 375.943 266.964Z" fill="#407BFF"/>
<path opacity="0.1" d="M364.982 239.143C364.681 245.884 358.972 251.349 352.23 251.349C345.49 251.349 340.269 245.884 340.571 239.143C340.872 232.402 346.581 226.938 353.322 226.938C360.063 226.938 365.284 232.403 364.982 239.143Z" fill="white"/>
<path opacity="0.1" d="M375.943 266.964C370.123 274.506 361.006 279.408 350.971 279.408C340.936 279.408 332.269 274.506 327.124 266.964C332.85 261.262 341.913 257.559 351.949 257.559C361.995 257.559 370.727 261.262 375.943 266.964Z" fill="white"/>
<path d="M202.619 348.258C201.504 350.704 200.329 353.396 199.298 356.022C198.259 358.672 197.223 361.325 196.319 364.016C194.564 369.397 192.918 374.828 192.108 380.273L191.839 382.007C191.818 382.216 191.833 382.513 191.925 382.885C192.097 383.633 192.564 384.634 193.22 385.617C194.546 387.604 196.426 389.616 198.454 391.484C200.476 393.382 202.673 395.198 204.956 396.921C207.217 398.66 209.601 400.362 211.934 401.957L209.738 406.09C204.133 403.64 198.913 400.711 193.857 397.034C191.372 395.14 188.917 393.101 186.742 390.344C185.67 388.954 184.616 387.384 183.925 385.311C183.591 384.276 183.358 383.107 183.356 381.841C183.365 381.55 183.38 381.142 183.4 380.946L183.458 380.361L183.576 379.19C184.216 372.945 185.599 366.943 187.422 361.122C188.341 358.214 189.321 355.336 190.44 352.513C191.582 349.67 192.71 346.942 194.139 344.081L202.619 348.258Z" fill="#E58A7B"/>
<path d="M210.284 401.255L218.608 397.032L216.458 406.18C216.458 406.18 210.743 407.776 208.084 405.003L210.284 401.255Z" fill="#E58A7B"/>
<path d="M226.231 398.534L224.016 406.096L216.457 406.181L218.608 397.032L226.231 398.534Z" fill="#E58A7B"/>
<path d="M237.989 304.151C237.989 304.151 238.711 306.806 239.856 308.808C238.872 309.727 237.989 309.407 237.989 309.407V304.151Z" fill="#DF5753"/>
<path d="M237.742 304.221C238.229 304.221 238.625 303.616 238.625 302.871C238.625 302.125 238.229 301.521 237.742 301.521C237.255 301.521 236.86 302.125 236.86 302.871C236.86 303.616 237.255 304.221 237.742 304.221Z" fill="#263238"/>
<path d="M237.527 301.562L239.317 301.046C239.317 301.046 238.399 302.445 237.527 301.562Z" fill="#263238"/>
<path d="M214.976 312.792C216.052 318.275 217.125 328.324 213.287 331.983C213.287 331.983 214.787 337.545 224.976 337.545C236.182 337.545 230.332 331.983 230.332 331.983C224.217 330.522 224.374 325.985 225.439 321.725L214.976 312.792Z" fill="#E58A7B"/>
<path d="M212.003 300.312C212.565 309.467 212.608 313.354 217.232 318.053C224.187 325.121 235.309 322.428 237.494 313.29C239.46 305.064 238.21 291.475 229.249 287.831C220.419 284.242 211.44 291.157 212.003 300.312Z" fill="#E58A7B"/>
<path d="M212.906 289.953C208.315 291.627 202.19 290.382 204.594 304.552C207.138 319.556 203.221 324.492 203.221 324.492C203.221 324.492 220.646 328.204 238.434 324.27C238.434 324.27 233.003 314.773 234.528 307.843C236.471 299.005 234.931 295.738 234.931 295.738C234.931 295.738 219.361 287.599 212.906 289.953Z" fill="#263238"/>
<path d="M232.344 305.083C232.325 306.897 232.961 308.724 233.786 309.993C235.026 311.902 236.498 311.125 236.867 309.142C237.199 307.359 236.953 304.216 235.364 302.997C233.8 301.798 232.366 303.01 232.344 305.083Z" fill="#E58A7B"/>
<path d="M208.918 291.556C207.593 287.851 213.888 282.153 227.197 284.523C240.506 286.893 241.09 297.962 241.09 297.962L238.397 294.766L238.519 298.132L224.841 300.76L208.918 291.556Z" fill="#263238"/>
<path d="M210.046 332.606C209.863 331.474 210.624 330.408 211.755 330.222C215.899 329.537 225.318 328.152 230.059 328.808C233.582 329.296 234.513 331.352 234.662 333.035C234.773 334.282 233.741 335.334 232.49 335.277L212.005 334.352C211.022 334.307 210.203 333.579 210.046 332.606Z" fill="#407BFF"/>
<path opacity="0.6" d="M210.046 332.606C209.863 331.474 210.624 330.408 211.755 330.222C215.899 329.537 225.318 328.152 230.059 328.808C233.582 329.296 234.513 331.352 234.662 333.035C234.773 334.282 233.741 335.334 232.49 335.277L212.005 334.352C211.022 334.307 210.203 333.579 210.046 332.606Z" fill="black"/>
<path d="M221.883 538.409L229.475 543.68L242.188 526.45L234.596 521.18L221.883 538.409Z" fill="#E58A7B"/>
<path d="M204.16 538.061L212.192 542.635L223.443 524.412L215.412 519.839L204.16 538.061Z" fill="#E58A7B"/>
<path d="M242.182 526.454L235.631 535.336L228.037 530.063L234.587 521.181L242.182 526.454Z" fill="#CF6F64"/>
<path d="M215.408 519.843L223.441 524.418L217.637 533.809L209.604 529.234L215.408 519.843Z" fill="#CF6F64"/>
<path d="M228.289 390.13C228.289 390.13 257.951 427.514 252.386 463.262C247.891 492.138 221.861 531.237 221.861 531.237L209.621 525.153C209.621 525.153 222.92 499.169 231.652 471.624C235.315 460.072 233.754 447.347 226.907 437.348C211.882 415.402 187.809 428.46 204.002 390.131L228.289 390.13Z" fill="#407BFF"/>
<path opacity="0.6" d="M228.289 390.13C228.289 390.13 257.951 427.514 252.386 463.262C247.891 492.138 221.861 531.237 221.861 531.237L209.621 525.153C209.621 525.153 222.92 499.169 231.652 471.624C235.315 460.072 233.754 447.347 226.907 437.348C211.882 415.402 187.809 428.46 204.002 390.131L228.289 390.13Z" fill="black"/>
<path opacity="0.4" d="M242.838 414.152L238.529 409.866C238.529 410.205 246.882 461.762 249.23 476.251C250.646 471.809 251.736 467.427 252.39 463.263C255.113 445.759 249.387 427.855 242.838 414.152Z" fill="black"/>
<path d="M241.537 390.13C241.537 390.13 277.253 437.108 278.258 465.28C279.1 488.885 239.354 534.482 239.354 534.482L227.816 527.017C227.816 527.017 251.056 494.602 256.907 468.104C254.676 441.876 206.793 390.129 206.793 390.129H241.537V390.13Z" fill="#407BFF"/>
<path opacity="0.6" d="M241.537 390.13C241.537 390.13 277.253 437.108 278.258 465.28C279.1 488.885 239.354 534.482 239.354 534.482L227.816 527.017C227.816 527.017 251.056 494.602 256.907 468.104C254.676 441.876 206.793 390.129 206.793 390.129H241.537V390.13Z" fill="black"/>
<path d="M197.349 334.083C193.524 334.985 189.869 348.87 189.869 348.87L204.786 358.828C204.786 358.828 209.757 347.854 208.022 343.046C206.213 338.04 202.179 332.944 197.349 334.083Z" fill="#407BFF"/>
<path opacity="0.2" d="M200.268 343.017L199.225 355.114L204.778 358.83C204.778 358.83 207.38 353.081 208.156 348.069L200.268 343.017Z" fill="black"/>
<path d="M245.953 334.35C245.953 334.35 250.355 335.901 241.537 390.13C226.642 390.13 211.249 390.13 204.002 390.13C204.632 374.854 204.65 365.433 197.349 334.083C197.349 334.083 205.213 332.373 213.287 331.983C219.603 331.679 224.778 331.476 230.331 331.984C237.652 332.652 245.953 334.35 245.953 334.35Z" fill="#407BFF"/>
<path d="M249.765 342.962C250.616 345.312 251.516 347.854 252.452 350.295C253.351 352.772 254.284 355.245 255.246 357.707L258.135 365.106L258.865 366.955L259.231 367.88L259.415 368.342C259.447 368.424 259.441 368.417 259.429 368.409C259.379 368.386 259.335 368.153 258.605 367.674C258.247 367.451 257.646 367.237 257.066 367.225C256.483 367.204 256.021 367.346 255.756 367.462C255.225 367.715 255.217 367.825 255.229 367.807C255.263 367.789 255.372 367.684 255.493 367.539C256.007 366.921 256.629 365.855 257.175 364.795C257.732 363.715 258.258 362.56 258.783 361.389C259.825 359.041 260.773 356.591 261.738 354.137C262.692 351.677 263.591 349.179 264.482 346.675L267.163 339.157L271.702 340.301C270.804 345.678 269.643 350.945 268.259 356.231C267.582 358.879 266.8 361.505 265.906 364.155C265.461 365.483 264.962 366.807 264.39 368.157C263.795 369.517 263.205 370.859 262.152 372.418C261.875 372.812 261.562 373.229 261.125 373.689C260.663 374.141 260.129 374.688 258.978 375.205C258.406 375.451 257.609 375.669 256.691 375.632C255.775 375.606 254.847 375.281 254.205 374.883C252.9 374.049 252.449 373.255 252.062 372.659C251.883 372.36 251.73 372.051 251.624 371.829L251.4 371.372L250.953 370.457L250.062 368.628C248.898 366.177 247.758 363.712 246.678 361.221C245.608 358.723 244.565 356.212 243.555 353.681C242.588 351.112 241.631 348.623 240.779 345.89L249.765 342.962Z" fill="#E58A7B"/>
<path d="M245.953 334.35C250.465 335.425 255.534 348.755 255.534 348.755L242.126 360.18C242.126 360.18 233.436 345.645 235.194 340.846C237.025 335.848 240.06 332.946 245.953 334.35Z" fill="#407BFF"/>
<path d="M269.257 335.001L273.964 331.065L277.237 336.164L274.826 340.423C274.826 340.423 270.986 343.938 267.586 342.15C266.488 339.661 267.17 336.746 269.257 335.001Z" fill="#E58A7B"/>
<path d="M282.505 331.077L282.153 332.36L274.697 333.612L273.962 331.065L282.505 331.077Z" fill="#E58A7B"/>
<path d="M240.309 535.1L226.857 526.4L229.266 522.211L244.384 531.504L240.309 535.1Z" fill="#407BFF"/>
<path d="M217.433 542.019C216.364 542.019 214.956 541.34 214.103 540.867C214.027 540.824 213.983 540.741 213.992 540.652C214.001 540.566 214.061 540.493 214.143 540.465C214.506 540.351 217.697 539.373 218.601 540.132C218.743 540.252 218.902 540.473 218.852 540.842C218.786 541.331 218.562 541.676 218.187 541.862C217.971 541.971 217.714 542.019 217.433 542.019ZM214.784 540.734C216.247 541.478 217.425 541.753 217.992 541.471C218.233 541.351 218.372 541.126 218.419 540.783C218.444 540.598 218.379 540.517 218.319 540.467C217.845 540.068 216.075 540.379 214.784 540.734Z" fill="#263238"/>
<path d="M214.211 540.893C214.152 540.893 214.095 540.869 214.054 540.827C214 540.77 213.98 540.69 214.001 540.615C214.032 540.506 214.767 537.948 215.976 537.365C216.299 537.21 216.627 537.202 216.947 537.335C217.456 537.55 217.507 537.922 217.489 538.123C217.407 539.182 215.247 540.645 214.262 540.886C214.246 540.89 214.228 540.893 214.211 540.893ZM216.494 537.68C216.385 537.68 216.276 537.707 216.165 537.76C215.444 538.108 214.839 539.489 214.549 540.329C215.585 539.893 217 538.736 217.051 538.09C217.059 537.985 217.036 537.849 216.775 537.74C216.682 537.7 216.588 537.68 216.494 537.68Z" fill="#263238"/>
<path d="M234.261 547.109C232.935 547.109 231.085 545.404 230.073 544.357C230.009 544.29 229.993 544.19 230.035 544.106C230.077 544.024 230.183 543.977 230.258 543.987C230.725 544.047 234.822 544.601 235.4 545.758C235.511 545.982 235.502 546.22 235.373 546.447C235.157 546.829 234.842 547.048 234.44 547.098C234.383 547.106 234.323 547.109 234.261 547.109ZM230.849 544.515C232.338 545.962 233.638 546.763 234.386 546.663C234.648 546.63 234.846 546.489 234.993 546.23C235.049 546.131 235.054 546.044 235.008 545.953C234.694 545.324 232.506 544.781 230.849 544.515Z" fill="#263238"/>
<path d="M230.978 544.479C230.676 544.479 230.405 544.46 230.191 544.42C230.116 544.405 230.052 544.352 230.025 544.281C229.999 544.208 230.012 544.125 230.062 544.065C230.129 543.984 231.723 542.062 233.228 541.931C233.699 541.894 234.099 542.019 234.44 542.311C234.903 542.708 234.872 543.061 234.763 543.288C234.39 544.072 232.354 544.479 230.978 544.479ZM230.674 544.037C231.99 544.11 234.094 543.673 234.369 543.099C234.392 543.051 234.462 542.905 234.157 542.644C233.902 542.426 233.608 542.336 233.267 542.366C232.279 542.454 231.175 543.502 230.674 544.037Z" fill="#263238"/>
<path d="M214.533 539.653L204.541 536.829C204.177 536.726 203.811 536.895 203.66 537.235L200.288 544.818C199.938 545.605 200.423 546.58 201.267 546.803C204.766 547.727 206.503 547.997 210.897 549.24C213.6 550.005 217.47 551.402 221.203 552.456C224.854 553.488 226.178 549.876 224.718 549.102C218.172 545.633 217.656 543.255 215.865 540.619C215.543 540.145 215.066 539.804 214.533 539.653Z" fill="#407BFF"/>
<path d="M230.346 542.981L221.817 537.06C221.506 536.844 221.105 536.885 220.851 537.157L215.194 543.231C214.608 543.861 214.75 544.942 215.475 545.426C218.483 547.439 220.038 548.259 223.789 550.863C226.097 552.465 230.703 556.018 233.889 558.231C237.006 560.395 239.433 557.41 238.304 556.203C233.244 550.794 232.127 547.404 231.292 544.328C231.14 543.774 230.799 543.296 230.346 542.981Z" fill="#407BFF"/>
<path d="M223.432 532.018L208.051 524.374L209.643 520.212L226.06 528.259L223.432 532.018Z" fill="#407BFF"/>
<path d="M203.44 387.927L202.139 391.287C202.007 391.547 202.315 391.813 202.75 391.813H241.722C242.06 391.813 242.34 391.647 242.362 391.435L242.7 388.075C242.723 387.842 242.43 387.646 242.06 387.646H204.051C203.773 387.646 203.525 387.76 203.44 387.927Z" fill="#407BFF"/>
<path opacity="0.4" d="M203.44 387.927L202.139 391.287C202.007 391.547 202.315 391.813 202.75 391.813H241.722C242.06 391.813 242.34 391.647 242.362 391.435L242.7 388.075C242.723 387.842 242.43 387.646 242.06 387.646H204.051C203.773 387.646 203.525 387.76 203.44 387.927Z" fill="white"/>
<path d="M209.57 392.177H208.552C208.349 392.177 208.195 392.072 208.209 391.945L208.686 387.581C208.7 387.453 208.877 387.349 209.081 387.349H210.098C210.301 387.349 210.455 387.453 210.441 387.581L209.964 391.945C209.95 392.074 209.772 392.177 209.57 392.177Z" fill="#407BFF"/>
<path d="M233.609 392.177H232.591C232.389 392.177 232.234 392.072 232.248 391.945L232.726 387.581C232.74 387.453 232.916 387.349 233.12 387.349H234.138C234.341 387.349 234.495 387.453 234.481 387.581L234.004 391.945C233.99 392.074 233.812 392.177 233.609 392.177Z" fill="#407BFF"/>
<path d="M208.673 591.684C226.103 591.684 240.233 590.659 240.233 589.394C240.233 588.13 226.103 587.104 208.673 587.104C191.243 587.104 177.113 588.13 177.113 589.394C177.113 590.659 191.243 591.684 208.673 591.684Z" fill="#F5F5F5"/>
<path d="M227.906 586.163C222.323 584.542 216.177 582.454 212.374 580.233C212.268 580.172 212.156 580.127 212.049 580.071V554.827H223.28C225.138 554.827 226.643 553.322 226.643 551.464C226.643 549.607 225.138 548.102 223.28 548.102H212.049V432.866H205.324V548.102H194.093C192.236 548.102 190.731 549.607 190.731 551.464C190.731 553.322 192.236 554.827 194.093 554.827H205.324V580.069C205.217 580.126 205.105 580.169 204.999 580.232C201.196 582.452 195.051 584.541 189.467 586.162C187.635 586.693 188.022 589.392 189.929 589.392H208.686H227.443C229.352 589.393 229.738 586.694 227.906 586.163Z" fill="#E0E0E0"/>
<path d="M229.634 445.801H187.739C184.383 445.801 181.637 443.055 181.637 439.699V427.244C181.637 423.888 184.383 421.142 187.739 421.142H229.634C232.99 421.142 235.736 423.888 235.736 427.244V439.699C235.736 443.055 232.99 445.801 229.634 445.801Z" fill="#407BFF"/>
<path d="M187.354 445.801V447.945C187.354 449.712 189.277 451.159 191.627 451.159H225.746C228.096 451.159 230.02 449.713 230.02 447.945V445.801H187.354Z" fill="#407BFF"/>
<path opacity="0.3" d="M187.354 445.801V447.945C187.354 449.712 189.277 451.159 191.627 451.159H225.746C228.096 451.159 230.02 449.713 230.02 447.945V445.801H187.354Z" fill="white"/>
</svg>
