<svg width="18" height="19" viewBox="0 0 18 19" fill="none" xmlns="http://www.w3.org/2000/svg">
<path d="M16.95 18.5C14.8667 18.5 12.8083 18.046 10.775 17.138C8.74167 16.23 6.89167 14.9423 5.225 13.275C3.55833 11.6077 2.271 9.75767 1.363 7.725C0.455 5.69233 0.000666667 3.634 0 1.55C0 1.25 0.0999999 1 0.3 0.8C0.5 0.6 0.75 0.5 1.05 0.5H5.1C5.33333 0.5 5.54167 0.579333 5.725 0.738C5.90833 0.896667 6.01667 1.084 6.05 1.3L6.7 4.8C6.73333 5.06667 6.725 5.29167 6.675 5.475C6.625 5.65833 6.53333 5.81667 6.4 5.95L3.975 8.4C4.30833 9.01667 4.704 9.61233 5.162 10.187C5.62 10.7617 6.12433 11.316 6.675 11.85C7.19167 12.3667 7.73333 12.846 8.3 13.288C8.86667 13.73 9.46667 14.134 10.1 14.5L12.45 12.15C12.6 12 12.796 11.8877 13.038 11.813C13.28 11.7383 13.5173 11.7173 13.75 11.75L17.2 12.45C17.4333 12.5167 17.625 12.6377 17.775 12.813C17.925 12.9883 18 13.184 18 13.4V17.45C18 17.75 17.9 18 17.7 18.2C17.5 18.4 17.25 18.5 16.95 18.5Z" fill="#757575"/>
</svg>
