<svg width="20" height="21" viewBox="0 0 20 21" fill="none" xmlns="http://www.w3.org/2000/svg">
<g clip-path="url(#clip0_5953_13690)">
<path d="M12.083 6.37656H14.1663V8.45988C14.1663 9.15024 14.7259 9.70988 15.4163 9.70988C16.1066 9.70988 16.6663 9.15024 16.6663 8.45988V6.37656H18.7496C19.44 6.37656 19.9996 5.81692 19.9996 5.12656C19.9996 4.43621 19.44 3.87656 18.7496 3.87656H16.6663V1.79324C16.6663 1.10289 16.1067 0.543243 15.4163 0.543243C14.726 0.543243 14.1663 1.10289 14.1663 1.79324V3.87656H12.083C11.3927 3.87656 10.833 4.43621 10.833 5.12656C10.833 5.81692 11.3926 6.37656 12.083 6.37656Z" fill="#FC5D01"/>
<path d="M4.58332 0.543243C2.05203 0.543243 0 2.59527 0 5.12656C0 7.65785 2.05203 9.70988 4.58332 9.70988C7.11461 9.70988 9.16664 7.65785 9.16664 5.12656C9.16391 2.59641 7.11352 0.546017 4.58332 0.543243ZM4.58332 7.20992C3.43273 7.20992 2.5 6.27719 2.5 5.12656C2.5 3.97594 3.43273 3.04324 4.58332 3.04324C5.73391 3.04324 6.66664 3.97598 6.66664 5.12656C6.66664 6.27715 5.73395 7.20992 4.58332 7.20992Z" fill="#FC5D01"/>
<path d="M4.58332 11.3766C2.05203 11.3766 0 13.4286 0 15.9599C0 18.4912 2.05203 20.5432 4.58332 20.5432C7.11461 20.5432 9.16664 18.4912 9.16664 15.9599C9.16391 13.4298 7.11352 11.3793 4.58332 11.3766ZM4.58332 18.0432C3.43273 18.0432 2.5 17.1105 2.5 15.9599C2.5 14.8093 3.43273 13.8766 4.58332 13.8766C5.73391 13.8766 6.66664 14.8093 6.66664 15.9599C6.66664 17.1105 5.73395 18.0432 4.58332 18.0432Z" fill="#FC5D01"/>
<path d="M15.4163 11.3766C12.885 11.3766 10.833 13.4286 10.833 15.9599C10.833 18.4912 12.885 20.5432 15.4163 20.5432C17.9477 20.5432 19.9996 18.4912 19.9996 15.9599C19.9969 13.4298 17.9465 11.3793 15.4163 11.3766ZM15.4163 18.0432C14.2657 18.0432 13.333 17.1105 13.333 15.9599C13.333 14.8093 14.2657 13.8766 15.4163 13.8766C16.5669 13.8766 17.4996 14.8093 17.4996 15.9599C17.4996 17.1105 16.5669 18.0432 15.4163 18.0432Z" fill="#FC5D01"/>
</g>
<defs>
<clipPath id="clip0_5953_13690">
<rect width="20" height="20" fill="white" transform="translate(0 0.543243)"/>
</clipPath>
</defs>
</svg>
