<svg width="24" height="24" viewBox="0 0 24 24" fill="none" xmlns="http://www.w3.org/2000/svg">
<path d="M18.2199 20.75H5.77994C5.43316 20.7359 5.09256 20.6535 4.77765 20.5075C4.46274 20.3616 4.17969 20.155 3.9447 19.8996C3.70971 19.6442 3.52739 19.3449 3.40818 19.019C3.28896 18.693 3.23519 18.3468 3.24994 18V15C3.24994 14.8011 3.32896 14.6103 3.46961 14.4697C3.61027 14.329 3.80103 14.25 3.99994 14.25C4.19886 14.25 4.38962 14.329 4.53027 14.4697C4.67093 14.6103 4.74994 14.8011 4.74994 15V18C4.72412 18.2969 4.81359 18.5924 4.99977 18.8251C5.18596 19.0579 5.45459 19.21 5.74994 19.25H18.2199C18.5153 19.21 18.7839 19.0579 18.9701 18.8251C19.1563 18.5924 19.2458 18.2969 19.2199 18V15C19.2199 14.8011 19.299 14.6103 19.4396 14.4697C19.5803 14.329 19.771 14.25 19.9699 14.25C20.1689 14.25 20.3596 14.329 20.5003 14.4697C20.6409 14.6103 20.7199 14.8011 20.7199 15V18C20.7499 18.6954 20.504 19.3744 20.0358 19.8894C19.5676 20.4045 18.915 20.7137 18.2199 20.75Z" fill="white"/>
<path d="M11.9998 15.7501C11.9013 15.7506 11.8037 15.7313 11.7127 15.6936C11.6216 15.6558 11.5391 15.6002 11.4698 15.5301L7.46985 11.5301C7.33737 11.3879 7.26524 11.1999 7.26867 11.0056C7.2721 10.8113 7.35081 10.6259 7.48822 10.4885C7.62564 10.3511 7.81102 10.2723 8.00532 10.2689C8.19963 10.2655 8.38767 10.3376 8.52985 10.4701L11.9998 13.9401L15.4698 10.4701C15.612 10.3376 15.8001 10.2655 15.9944 10.2689C16.1887 10.2723 16.3741 10.3511 16.5115 10.4885C16.6489 10.6259 16.7276 10.8113 16.731 11.0056C16.7344 11.1999 16.6623 11.3879 16.5298 11.5301L12.5298 15.5301C12.4606 15.6002 12.3781 15.6558 12.287 15.6936C12.196 15.7313 12.0984 15.7506 11.9998 15.7501Z" fill="white"/>
<path d="M12 15.75C11.8019 15.7474 11.6126 15.6676 11.4725 15.5275C11.3324 15.3874 11.2526 15.1981 11.25 15V4C11.25 3.80109 11.329 3.61032 11.4697 3.46967C11.6103 3.32902 11.8011 3.25 12 3.25C12.1989 3.25 12.3897 3.32902 12.5303 3.46967C12.671 3.61032 12.75 3.80109 12.75 4V15C12.7474 15.1981 12.6676 15.3874 12.5275 15.5275C12.3874 15.6676 12.1981 15.7474 12 15.75Z" fill="white"/>
</svg>
