<svg width="20" height="18" viewBox="0 0 20 18" fill="none" xmlns="http://www.w3.org/2000/svg">
<path d="M14 5V2H6V5H4V0H16V5H14ZM16 9.5C16.2833 9.5 16.521 9.404 16.713 9.212C16.905 9.02 17.0007 8.78267 17 8.5C16.9993 8.21733 16.9033 7.98 16.712 7.788C16.5207 7.596 16.2833 7.5 16 7.5C15.7167 7.5 15.4793 7.596 15.288 7.788C15.0967 7.98 15.0007 8.21733 15 8.5C14.9993 8.78267 15.0953 9.02033 15.288 9.213C15.4807 9.40567 15.718 9.50133 16 9.5ZM14 16V12H6V16H14ZM16 18H4V14H0V8C0 7.15 0.291667 6.43767 0.875 5.863C1.45833 5.28833 2.16667 5.00067 3 5H17C17.85 5 18.5627 5.28767 19.138 5.863C19.7133 6.43833 20.0007 7.15067 20 8V14H16V18ZM18 12V8C18 7.71667 17.904 7.47933 17.712 7.288C17.52 7.09667 17.2827 7.00067 17 7H3C2.71667 7 2.47933 7.096 2.288 7.288C2.09667 7.48 2.00067 7.71733 2 8V12H4V10H16V12H18Z" fill="white"/>
</svg>
