<svg width="16" height="18" viewBox="0 0 16 18" fill="none" xmlns="http://www.w3.org/2000/svg">
<path d="M9.5 5.25V0.345C10.1848 0.6045 10.8148 1.00425 11.3488 1.5375L13.9618 4.152C14.4958 4.68525 14.8955 5.31525 15.155 6H10.25C9.836 6 9.5 5.66325 9.5 5.25ZM15.5 7.86375V14.25C15.5 16.3177 13.8178 18 11.75 18H4.25C2.18225 18 0.5 16.3177 0.5 14.25V3.75C0.5 1.68225 2.18225 0 4.25 0H7.63625C7.7585 0 7.87925 0.00975 8 0.018V5.25C8 6.4905 9.0095 7.5 10.25 7.5H15.482C15.4903 7.62075 15.5 7.7415 15.5 7.86375ZM5.75 13.5C5.7455 12.519 4.2545 12.5197 4.25 13.5V15C4.2545 15.981 5.7455 15.9803 5.75 15V13.5ZM8.75 9.75C8.7455 8.769 7.2545 8.76975 7.25 9.75V15C7.2545 15.981 8.7455 15.9803 8.75 15V9.75ZM11.75 12C11.7455 11.019 10.2538 11.0197 10.25 12V15C10.2545 15.981 11.7463 15.9803 11.75 15V12Z" fill="#2B3C4E"/>
</svg>
