<svg width="21" height="20" viewBox="0 0 21 20" fill="none" xmlns="http://www.w3.org/2000/svg">
<path d="M11.3795 10.2701L3.84753 11.5261C3.76094 11.5406 3.67968 11.5776 3.61192 11.6334C3.54416 11.6892 3.49229 11.7619 3.46153 11.8441L0.864533 18.8011C0.616533 19.4411 1.28553 20.0511 1.89953 19.7441L19.8995 10.7441C20.0242 10.6819 20.1291 10.5861 20.2024 10.4676C20.2757 10.3491 20.3145 10.2125 20.3145 10.0731C20.3145 9.93378 20.2757 9.79718 20.2024 9.67866C20.1291 9.56014 20.0242 9.46438 19.8995 9.40213L1.89953 0.402128C1.28553 0.0951276 0.616533 0.706128 0.864533 1.34513L3.46253 8.30213C3.49315 8.38454 3.54495 8.45743 3.61272 8.51343C3.68049 8.56944 3.76183 8.60659 3.84853 8.62113L11.3805 9.87613C11.4269 9.88425 11.4689 9.90845 11.4992 9.94448C11.5294 9.98052 11.546 10.0261 11.546 10.0731C11.546 10.1202 11.5294 10.1657 11.4992 10.2018C11.4689 10.2378 11.4269 10.262 11.3805 10.2701H11.3795Z" fill="#8BABD8"/>
</svg>
