<svg width="12" height="13" viewBox="0 0 12 13" fill="none" xmlns="http://www.w3.org/2000/svg">
<path d="M1.6228 9.04659L1.04586 11.5227L3.39595 10.8936L10.1785 3.69819C10.398 3.46527 10.5205 3.15019 10.519 2.82226C10.5175 2.49432 10.3921 2.18038 10.1705 1.94946L10.0689 1.84357C9.84719 1.61272 9.54741 1.48384 9.23545 1.48526C8.9235 1.48669 8.62491 1.6183 8.40535 1.85115L1.6228 9.04659Z" fill="#2B3C4E" fill-opacity="0.5" stroke="#2B3C4E" stroke-linecap="round" stroke-linejoin="round"/>
<path d="M7.47696 2.90863L9.18076 4.68344L3.36904 10.849L1.11321 11.4528L1.66817 9.07102L7.47696 2.90863Z" fill="#2B3C4E" fill-opacity="0.5" stroke="#2B3C4E" stroke-width="0.1"/>
<path d="M7.47651 2.83606L9.24966 4.6831L7.47651 2.83606ZM6.33954 11.4985L11.0454 11.477L6.33954 11.4985Z" fill="#2B3C4E" fill-opacity="0.5"/>
<path d="M7.47651 2.83606L9.24966 4.6831M6.33954 11.4985L11.0454 11.477" stroke="#2B3C4E" stroke-linecap="round" stroke-linejoin="round"/>
</svg>
