<svg width="15" height="15" viewBox="0 0 15 15" fill="none" xmlns="http://www.w3.org/2000/svg">
<path d="M5.38574 10.5778L3.17315 8.36517C3.06313 8.25892 2.91578 8.20012 2.76283 8.20145C2.60989 8.20278 2.46358 8.26413 2.35542 8.37228C2.24727 8.48044 2.18592 8.62674 2.18459 8.77969C2.18326 8.93264 2.24206 9.07999 2.34832 9.19001L4.97332 11.815C5.08271 11.9244 5.23106 11.9858 5.38574 11.9858C5.54041 11.9858 5.68876 11.9244 5.79815 11.815L12.2148 5.39834C12.3211 5.28832 12.3799 5.14097 12.3785 4.98802C12.3772 4.83508 12.3159 4.68877 12.2077 4.58061C12.0996 4.47246 11.9532 4.41111 11.8003 4.40978C11.6474 4.40845 11.5 4.46725 11.39 4.57351L5.38574 10.5778Z" fill="#011627"/>
</svg>
